<?xml version="1.0" encoding="UTF-8" standalone="no"?>
<!-- Created with Inkscape (http://www.inkscape.org/) -->

<svg
   width="256mm"
   height="256mm"
   viewBox="0 0 256 256"
   version="1.1"
   id="svg1"
   inkscape:version="1.3.2 (091e20e, 2023-11-25)"
   sodipodi:docname="brain01.svg"
   inkscape:export-filename="brain01_v2.png"
   inkscape:export-xdpi="96"
   inkscape:export-ydpi="96"
   xmlns:inkscape="http://www.inkscape.org/namespaces/inkscape"
   xmlns:sodipodi="http://sodipodi.sourceforge.net/DTD/sodipodi-0.dtd"
   xmlns="http://www.w3.org/2000/svg"
   xmlns:svg="http://www.w3.org/2000/svg">
  <sodipodi:namedview
     id="namedview1"
     pagecolor="#ffffff"
     bordercolor="#000000"
     borderopacity="0.25"
     inkscape:showpageshadow="2"
     inkscape:pageopacity="0.0"
     inkscape:pagecheckerboard="true"
     inkscape:deskcolor="#d1d1d1"
     inkscape:document-units="mm"
     inkscape:zoom="0.51316815"
     inkscape:cx="511.52824"
     inkscape:cy="443.32447"
     inkscape:window-width="1312"
     inkscape:window-height="838"
     inkscape:window-x="45"
     inkscape:window-y="28"
     inkscape:window-maximized="0"
     inkscape:current-layer="layer1" />
  <defs
     id="defs1" />
  <g
     inkscape:label="Layer 1"
     inkscape:groupmode="layer"
     id="layer1">
    <path
       style="fill:#ffffff;fill-opacity:1;stroke-width:0.264583"
       d="m 133.6115,253.70603 c -14.73069,-2.51702 -23.77092,-15.19411 -34.522693,-24.11775 -6.33594,-9.40494 -17.362593,-15.55656 -28.123958,-18.24505 -15.026105,-0.71912 -26.973133,11.79332 -32.176094,24.8112 -4.861389,6.6906 -12.176389,13.85586 -18.759032,15.00866 -6.191563,3.47451 -22.4900665,-0.80277 -7.597542,-0.60314 13.856411,-0.25608 23.655324,-11.82052 28.927136,-23.51066 7.41145,-11.26423 22.322914,-21.73323 36.02822,-15.65573 9.803893,4.08507 18.58002,10.52662 25.354973,18.9618 9.84367,9.47319 20.42175,21.02621 35.0114,21.93591 11.0454,-1.48182 23.13596,-6.33362 27.74462,-17.25161 4.69291,-10.32937 8.13871,-22.19594 6.93209,-33.63007 -2.80026,-11.78661 -6.57689,-24.1843 -16.89538,-31.6157 -9.05483,-6.92669 -16.81482,-14.83109 -25.50564,-22.24896 -5.26603,-7.30866 -14.54629,-0.74027 -21.70654,-2.0258 -9.642103,-3.99939 -21.698625,-7.90608 -25.499769,-18.70794 -3.636141,-6.18465 5.012208,-20.47598 -5.628314,-11.76903 -8.197585,4.95483 -18.620969,3.57829 -25.987853,-2.34318 -8.366991,-4.5398 -11.270649,-1.53271 -14.761229,-9.34791 C 29.625452,100.21729 26.620854,92.787901 27.865855,85.666224 26.531304,73.029265 39.800663,65.682734 42.268321,54.161056 45.424838,43.240163 53.660617,35.820481 62.734437,29.815319 69.003136,20.953619 80.427207,27.335407 84.488957,17.397952 95.187977,12.184613 107.57535,6.272899 118.22028,9.937816 127.13175,3.67237 138.91777,3.646912 149.36423,2.306 c 9.4325,2.59938 19.95898,0.663447 28.50461,6.238826 5.12541,6.16967 15.7901,-0.87881 19.78194,4.722723 10.67501,0.530712 16.98011,8.347211 25.34152,13.752704 10.94272,9.599146 18.10199,22.527415 26.89917,33.935373 4.45039,8.595383 2.5903,18.539934 2.24172,27.764196 -1.18314,9.351576 -3.24002,18.475068 -8.23746,26.594358 -1.99082,7.25649 -10.73498,11.73143 -17.40187,6.9688 -8.55982,-8.24565 -11.14118,9.99565 -21.97003,7.77653 -9.96265,2.3003 -11.66936,16.73226 -24.61029,15.69065 -7.73221,4.93027 -16.7721,-3.67245 -23.27879,-7.30936 -6.00438,-5.4418 -13.09005,-11.29478 -12.59118,-20.34646 0.18268,-8.49493 19.47465,-21.015567 2.24786,-23.760572 -9.45921,3.609833 -30.6967,7.886942 -22.94694,22.036902 1.80249,8.09505 -2.43144,11.9747 8.01522,9.6398 9.50428,0.92156 3.51644,-7.7849 -1.7665,-10.23436 -1.36816,-8.32899 7.27513,-1.79289 7.43564,2.84481 4.65924,4.88885 -1.77335,10.6053 -7.15011,8.61522 -4.7946,-1.86993 -8.01241,2.63622 -6.42837,6.99233 1.03317,15.01805 15.35079,-0.81901 22.68609,7.46926 7.15834,9.63194 15.08473,18.71379 25.03825,25.88246 8.62446,10.53709 7.49252,25.80998 9.98168,38.64806 -1.14529,13.04682 -6.55567,25.98177 -14.86884,36.04272 -10.30272,5.39408 -20.24618,13.29916 -32.67605,11.43506 z m 30.25142,-11.63987 c 8.84658,-7.24028 12.64082,-19.30343 15.65737,-30.02835 1.76785,-12.06748 -2.50504,-23.88361 -6.09066,-35.18959 -3.02928,-10.29763 -12.56603,-15.72649 -19.72118,-22.8358 -3.36324,-5.48888 -6.10262,-12.39816 -13.39915,-13.85086 -5.77845,1.93212 -19.52359,1.91062 -7.81033,7.68647 9.21311,8.73206 20.43988,15.31765 29.15837,24.25611 5.99245,9.62364 11.04736,20.61434 12.28507,31.99309 -0.44602,13.78278 -3.82031,28.10413 -12.20364,39.25331 l 0.38162,-0.25118 1.74256,-1.0332 z m 12.3542,-62.24137 c 0.66662,-5.05054 -9.32738,-16.64129 -3.42735,-6.61338 0.75829,0.30513 3.47223,9.32285 3.42735,6.61338 z m -15.25303,-6.87917 c -6.1774,-9.34405 -8.43785,-5.33255 0,0 z m 15.74416,-27.02535 c -2.00703,-1.64624 -15.77369,-3.10167 -3.40925,-0.29196 l 1.65439,0.62523 z m 6.11575,-2.92077 c 6.58965,0.86625 21.03623,-14.46357 7.42025,-9.66299 4.44805,-5.38331 -10.47954,1.54599 -15.18672,1.0558 -7.95306,-1.74944 -25.12058,-12.20492 -11.63469,-18.87187 8.20603,-1.37769 12.301,9.93784 21.02785,3.64035 10.07195,-5.16992 12.93196,8.74273 16.38049,10.68446 15.93969,-3.72419 4.54472,-20.35859 -5.75198,-22.06087 -8.60285,0.25494 -17.25266,6.29567 -23.46154,-3.33138 -5.45668,-3.14858 -19.92877,-15.082175 -17.07353,-2.19814 -4.18484,7.44708 -13.71544,13.81865 -7.70344,23.5051 5.58114,9.15291 14.50897,16.80996 25.65033,17.34931 3.47439,0.34626 6.88974,0.76913 10.33298,-0.10977 z m -61.9125,-0.69538 c 8.13263,2.5922 -0.85717,-14.11585 0.23732,-12.88246 -5.06118,5.54741 -12.75684,6.72294 -18.96372,2.14273 -6.383123,-3.2905 -12.471819,-12.732 -5.651423,-18.79025 3.835773,-7.90508 18.357193,-11.08772 18.859643,0.74678 0.15993,7.50751 -10.33732,14.57506 -11.73377,6.79682 5.89573,7.04629 12.2781,-4.69585 9.83673,-10.15907 -5.99884,-9.37139 -20.855843,3.34635 -18.474743,11.46103 3.78158,10.63062 19.466073,16.50603 26.589923,5.61477 4.31997,-9.49669 -7.85422,-24.16405 8.39211,-27.477513 6.6856,-4.042903 14.72413,-7.793154 22.13568,-6.275026 2.36162,-5.293927 -1.48664,-13.76114 -6.68682,-16.579766 -10.7023,-1.852395 -10.1746,10.849923 -15.07006,15.493377 -7.39378,-2.798533 -16.87324,-12.033378 -22.20264,0.699464 -5.08153,11.523424 -19.593539,4.083067 -23.078976,17.235584 -4.398878,9.31354 -1.858125,22.84289 8.989803,26.41181 7.689723,6.52913 17.293023,6.60263 26.820943,5.56172 z m 61.64792,-10.4175 c 6.28113,-2.56497 21.46097,1.56067 12.46791,-9.61022 -5.52632,-5.52307 -13.69365,-0.27626 -19.97797,0.0188 -3.45716,-3.99646 -11.97288,-9.63223 -15.61783,-2.67065 -1.39503,8.64867 8.09778,8.91085 13.22581,12.57317 2.80174,1.59844 6.97965,0.68486 9.90208,-0.31112 z m 25.34571,-3.8394 c 5.24235,-1.36211 15.79625,-8.57781 8.66209,-12.99702 -8.64478,-6.09761 -7.02211,-18.56901 -19.71923,-17.635896 -4.8691,-6.265673 -25.74618,-8.070564 -21.22994,4.056186 -4.02362,3.86032 3.49147,9.36748 8.25459,7.75994 6.56462,-5.65446 17.2056,-2.80684 21.54196,4.18162 7.64996,4.44023 4.01971,13.56272 2.49053,14.63517 z m 28.03397,-5.5272 c 8.63072,-6.00266 12.37835,-18.26344 13.71972,-28.423206 0.48542,-12.026163 2.51012,-24.334572 -4.52945,-35.032364 -9.26407,-9.539608 -13.52861,-23.70891 -25.51344,-29.960515 -6.69818,-7.497644 -15.25469,-12.74928 -24.93255,-15.48095 -4.9296,-1.047878 -14.29558,-1.462538 -5.16729,3.253681 8.39194,4.36036 19.37625,12.217346 17.37274,22.64521 4.96041,4.056345 17.52968,5.516935 23.3404,11.887019 5.95848,5.767481 19.03966,21.585069 8.66169,27.035332 -10.45473,-0.49075 -7.87112,-16.486812 -19.00852,-16.171011 -10.7448,0.301408 -17.46109,-12.422278 -15.69056,-18.47618 -14.46173,-0.442378 -14.62488,16.609457 -26.20889,21.265301 -3.06336,7.627756 -9.7756,17.540628 -19.79015,13.917025 -7.10209,-2.628758 -4.75661,-13.565445 -1.76997,-18.615599 7.41236,-9.242438 21.49045,-11.838485 25.68369,-23.744747 1.05764,-10.641337 -4.7686,-24.549816 -17.2743,-23.78802 -11.59409,2.39413 -25.81676,2.977095 -29.30539,16.716274 -0.43184,10.840317 9.66303,23.700493 20.93378,16.274697 13.1502,-4.804412 12.7996,-15.666927 3.50421,-21.270081 11.78527,-6.374647 12.47334,14.383331 4.16842,18.250983 -6.34165,6.135803 -14.88633,9.796466 -23.01424,3.667827 -6.79428,-3.78913 -3.59661,-22.27135 -11.48099,-9.114479 -9.2663,7.89082 -26.39913,-4.462065 -19.06579,-15.219204 5.06116,-6.254252 5.71513,-11.949469 -3.9933,-9.9383 -8.300573,3.583605 -20.119783,3.798751 -25.625631,11.594053 10.146114,0.232056 20.382511,9.448735 19.343381,21.85157 0.17275,9.44335 -13.298262,11.156301 -14.025329,20.97765 -2.219772,9.193798 -20.205913,7.637718 -14.114288,17.35673 0.552131,5.161845 5.614195,13.259508 -0.628753,18.075464 -3.230492,5.97094 -17.341865,7.20445 -18.118548,9.72089 8.344647,7.10902 21.324524,4.71778 29.423834,-1.46445 5.80082,-5.55157 11.492301,-10.422948 1.721815,-13.839908 -7.249716,-10.275342 5.824815,-17.901722 11.956716,-24.418663 2.79922,-4.373168 10.834573,-4.621604 11.571933,-9.631923 -0.86263,6.60815 -14.029553,10.763573 -18.676005,17.984843 -3.868953,3.190914 -7.7892,8.081191 -5.08469,13.252979 3.919471,10.536902 13.588422,2.277254 10.666042,-5.570804 4.15329,-10.754742 16.408323,-18.208054 27.774073,-16.759972 9.14891,4.059557 14.97824,-6.501437 16.6143,-14.152356 -3.84847,-6.179012 -11.54669,-10.42638 -18.71221,-6.861401 -5.90478,-0.0174 -18.3256,19.576726 -9.1805,5.802211 4.83629,-12.655505 20.84881,-10.615638 27.82346,-1.2894 2.56886,6.233871 -2.71501,13.068638 -6.91283,17.242502 -10.39329,1.543316 -22.66968,-1.657179 -30.93036,7.945934 -7.535033,4.4765 -3.926703,14.680289 -8.332313,19.389785 11.488103,4.351123 13.376293,-11.670601 22.000383,-14.366555 7.33982,0.05682 19.05594,12.110288 18.33815,-1.929833 5.35978,-13.850397 21.96891,-4.36529 21.08719,7.656993 -1.50864,7.07249 14.36142,7.869431 19.23908,12.396788 -4.48447,-10.467827 7.33389,-12.21697 15.72865,-11.420007 -2.2354,-3.080804 -7.90242,-8.334818 -6.30429,-14.064135 4.37109,-8.015714 13.95268,-14.239345 23.594,-12.397752 11.99782,1.236517 14.50287,15.711139 25.40917,18.422828 8.68514,2.00062 8.11462,10.970781 8.22583,17.739186 0.15772,1.24272 -3.15535,17.23385 -10.92702,19.21073 -4.51766,1.7644 5.36899,3.38208 6.41494,1.86733 z m -6.35463,-2.97439 c 7.72632,-5.46285 10.44714,-15.50827 9.20524,-24.686933 0.5279,-10.943236 -17.61867,-9.736861 -19.99808,-20.923672 -7.50202,-10.184085 -24.46655,-10.00817 -31.7681,0.478694 -5.44082,4.349645 -1.97488,12.529793 3.39668,15.434253 5.98309,1.333754 8.4395,-19.129932 19.46166,-10.869944 7.67356,4.706351 17.204,14.826935 14.62139,24.070892 -7.67423,3.65398 -6.16258,20.74664 5.08121,16.49671 z m -93.32713,-0.37657 c -0.12101,-6.90436 -10.54357,-7.63404 -3.13897,-1.31148 0.16721,-0.13453 4.17814,2.80212 3.13897,1.31148 z m 83.20642,-4.43177 c 4.08384,-7.37796 -6.85659,-10.81479 -7.43041,-6.72361 1.44022,1.45072 6.03514,8.56866 7.43041,6.72361 z M 48.924803,109.09051 c -3.227993,-4.88938 -17.051726,-7.05646 -5.249859,-0.82257 0.0022,0.14779 7.948174,2.81755 5.249859,0.82257 z m 3.680095,-0.14883 c 8.004578,-0.85562 19.954057,-5.003 20.946181,-14.243008 -2.782553,-6.289944 -0.403527,-19.49987 -10.199654,-16.477828 -5.556589,-1.691728 -10.682505,-6.138523 -5.371136,2.285934 11.601236,6.584635 -4.21217,24.613622 -9.947415,12.293178 0.06525,-3.431234 3.218204,-11.731285 -3.315927,-9.869151 -5.685974,4.134284 -7.115682,9.400102 -6.834162,17.577075 3.001941,2.73008 10.450666,8.32251 14.722113,8.4338 z m 165.673272,-3.50135 c 6.21142,-9.413439 -16.85475,-9.237548 -7.78774,-1.17001 2.37773,1.81732 5.01888,1.61304 7.78774,1.17001 z m 3.9359,-1.45683 c 5.47773,-9.574412 -6.29729,-19.850376 -13.93396,-24.725617 -10.27296,-3.549278 -23.62037,18.537387 -6.83574,18.220959 7.86792,2.705468 18.51743,-4.838842 19.43681,7.611888 l 1.33289,-1.10722 z M 36.773192,99.722187 C 33.274924,91.788836 46.427638,72.654878 50.084223,86.659283 43.665025,103.75741 70.03582,91.786103 58.07038,82.696448 54.624545,76.013981 54.822675,70.87879 46.571055,72.572213 39.999553,71.077888 39.90282,60.209928 35.681156,71.411772 29.40529,80.112503 25.986827,94.952664 36.802434,101.62273 l -0.02923,-1.900543 z M 251.51264,84.202302 c 0.56925,-6.709307 -0.20484,-13.634959 -0.66958,-2.37813 0.17414,4.425442 0.35396,10.605688 0.66958,2.37813 z M 29.17811,83.913342 C 29.513423,77.410569 38.800292,66.037996 38.931456,64.268026 34.434614,69.62678 27.464864,78.801721 29.17811,83.913342 Z m 136.7676,-6.01592 c 8.74112,-5.282537 10.78421,-16.599751 20.70987,-21.508297 2.84654,-7.728926 7.98908,-15.663982 17.3337,-15.049159 7.48295,-8.966248 -8.38186,-20.398398 -16.40278,-24.44402 -2.28463,-5.977739 -21.81056,-4.899645 -9.48055,0.517189 7.86097,10.365647 5.63214,24.446651 -4.0132,32.583131 -9.55371,5.184442 -17.88879,12.85415 -18.76522,24.744215 1.22379,4.401017 7.13695,4.318292 10.61818,3.156941 z M 68.030976,77.056772 C 76.242072,71.091756 59.99967,59.62212 56.123208,70.027698 c -2.787048,6.115345 7.697281,7.615638 11.907768,7.029074 z M 241.1846,76.682592 c 1.68595,-9.385895 -5.4589,-21.001312 -14.55943,-23.915586 -4.9321,-3.398739 -13.4897,-10.808414 -19.5897,-8.77705 -7.03408,12.06456 10.95886,17.490462 20.0401,18.92135 3.31686,5.450258 5.42925,13.889204 12.04832,13.913127 -4.93038,-0.928184 1.49936,1.879764 2.06071,-0.141841 z M 73.021912,76.182572 c 6.667152,-1.777775 11.493199,-8.21523 14.233899,-14.299246 4.063137,-10.217448 -12.138547,3.033965 -12.822332,-8.24843 2.503767,-12.318507 -12.491243,-4.744294 -18.552733,-2.92948 -6.746125,4.935687 -22.914352,14.503171 -7.95662,20.810185 7.39277,1.179181 11.153439,-10.731228 19.503084,-5.601625 5.604169,1.109687 1.302955,10.51763 5.594702,10.268596 z m 82.776828,-7.558286 c 1.64624,-6.16459 10.18837,-17.044941 0.75636,-6.69065 -2.00146,1.577918 -2.96193,15.103762 -0.75636,6.69065 z m 95.4047,-0.2287 c -0.287,-6.449222 -9.73822,-17.601994 -11.17679,-18.54735 5.13249,5.998634 8.59855,14.261894 11.33904,20.776175 z M 47.456548,56.481126 C 52.174562,46.896661 64.910437,43.001854 72.329972,42.661461 76.455427,42.390536 78.840376,27.543656 77.33788,25.760386 66.142564,29.912395 51.659503,36.224558 47.723306,47.360376 47.240756,47.290016 35.838405,66.736127 45.584684,58.307724 l 1.871864,-1.826558 z m 41.361763,0.0162 c 0.184891,-6.251036 -11.070993,-13.832676 -13.944259,-9.8711 -0.99826,5.949605 4.860594,10.949302 10.583279,9.95649 l 1.826599,0.09732 1.534391,-0.182717 z m 1.77473,-0.39309 C 98.389797,53.47981 100.84917,45.546111 97.783537,38.243449 96.306867,23.983975 74.014098,21.220818 76.636134,38.603446 c -4.530493,8.647493 14.374131,7.561443 13.956907,17.50079 z m -2.01649,-27.16975 c -9.537281,-0.580659 0.192023,-2.362249 1.58756,-0.10092 l -0.89965,0.12501 -0.68791,-0.024 z m 79.262469,24.70427 c 16.4094,-10.847515 -9.56757,3.069957 0,0 z m 63.31453,-0.315 c -6.285,-4.421138 -4.45085,0.207656 0.8246,0.923657 z m -169.641013,-6.1159 c 5.922721,-0.505678 19.537847,-2.84799 5.835798,-2.24536 -4.60283,-1.619778 -23.315092,10.29104 -5.835798,2.24536 z m 60.290773,1.71893 c 9.73695,-3.137914 -11.1736,2.411093 0,0 z m 100.90396,-0.87249 c -7.6936,-5.977989 -8.87353,-0.427503 0,0 z m 15.2796,-1.18263 c -2.06872,-3.989909 -12.1252,-17.789895 -5.41208,-5.502179 0.40851,0.990727 5.54065,7.780673 5.41208,5.502179 z m -44.11651,-0.94537 c 4.69115,-1.908405 13.70664,-4.837549 3.29586,-1.968249 -0.59147,-0.528636 -6.68096,4.247501 -3.29586,1.968249 z m -69.91615,-7.44559 c -1.69491,-0.582428 -13.37573,-2.004497 -1.35028,0.283811 l 1.35028,-0.283791 z m 1.476,-1.73329 c 14.70452,-3.732715 0.10963,-17.252646 -6.98899,-22.151926 -11.28351,2.480274 -11.04148,25.299371 4.62051,22.402051 z m 43.0755,-7.17438 c -0.0106,-8.392334 -14.26587,-3.840392 -2.93432,-0.890103 0.9594,-0.300836 3.78011,4.769102 2.93432,0.890103 z m 55.8017,0.17049 c -4.66421,-4.260573 -14.51946,-10.248436 -4.3839,-1.821425 0.63246,1.062915 8.56394,5.29207 4.3839,1.821425 z M 66.771996,28.303206 c 5.713344,-2.485325 16.499797,-5.071283 3.792805,-2.596177 -1.121358,-0.406544 -8.411779,4.965219 -3.792805,2.596177 z m 68.387114,-0.28238 c 3.76634,-12.994029 16.90238,-15.561022 28.4826,-17.5599 4.78585,0.202786 21.61688,4.196688 12.77424,-1.1186 -8.60326,-4.149794 -18.19955,-1.176885 -27.10278,-4.319559 -10.59391,0.963191 -20.93845,4.710069 -31.08645,7.849099 6.81148,3.079745 12.75673,11.82782 16.93239,15.14896 z m -2.76764,-0.59603 c -7.61292,-12.264431 -4.82042,-1.871866 0,0 z M 94.909557,15.025736 C 100.52767,11.144253 109.6564,10.837731 114.531,11.303846 107.91447,7.262435 96.977127,11.469751 93.126737,15.789555 l 1.78272,-0.763819 z m 63.043613,-2.10858 c 4.34864,-0.603791 10.69735,-2.148346 2.35336,-1.19648 1.51927,-0.831098 -12.48348,4.051183 -2.35336,1.19648 z m -36.77708,-2.36338 C 125.67951,8.99328 140.57648,5.9207 138.5382,5.018371 c -4.9469,0.659821 -18.41202,2.655946 -17.36211,5.535405 z"
       id="path1-1" />
  </g>
</svg>
