<?xml version="1.0" encoding="UTF-8" standalone="no"?>
<!-- Created with Inkscape (http://www.inkscape.org/) -->

<svg
   width="256mm"
   height="256mm"
   viewBox="0 0 256 256"
   version="1.1"
   id="svg1"
   inkscape:version="1.3.2 (091e20e, 2023-11-25)"
   sodipodi:docname="brain03.svg"
   xmlns:inkscape="http://www.inkscape.org/namespaces/inkscape"
   xmlns:sodipodi="http://sodipodi.sourceforge.net/DTD/sodipodi-0.dtd"
   xmlns="http://www.w3.org/2000/svg"
   xmlns:svg="http://www.w3.org/2000/svg">
  <sodipodi:namedview
     id="namedview1"
     pagecolor="#ffffff"
     bordercolor="#000000"
     borderopacity="0.25"
     inkscape:showpageshadow="2"
     inkscape:pageopacity="0.0"
     inkscape:pagecheckerboard="true"
     inkscape:deskcolor="#d1d1d1"
     inkscape:document-units="mm"
     inkscape:zoom="0.51316815"
     inkscape:cx="249.43091"
     inkscape:cy="252.35393"
     inkscape:window-width="1312"
     inkscape:window-height="838"
     inkscape:window-x="0"
     inkscape:window-y="0"
     inkscape:window-maximized="0"
     inkscape:current-layer="layer1" />
  <defs
     id="defs1" />
  <g
     inkscape:label="Layer 1"
     inkscape:groupmode="layer"
     id="layer1">
    <path
       style="fill:#ffffff;stroke-width:0.264583;fill-opacity:1"
       d="M 131.8424,253.24943 C 115.4992,249.68412 104.40578,235.53861 93.293695,224.18591 83.265668,214.45309 66.951857,205.8082 53.783644,214.98858 40.67879,221.77911 38.88896,238.23089 27.054088,246.28421 c -3.39826,5.35556 -22.4304365,7.63684 -20.5942773,3.93025 16.5525073,1.84653 28.3099033,-12.23673 34.6058253,-25.72065 8.869588,-13.35805 27.928582,-20.61906 41.697811,-10.05688 18.493903,10.13376 28.400703,33.19079 50.532013,37.10555 14.31165,0.66133 29.39405,-8.41639 32.91975,-22.91883 5.78644,-13.71872 6.37558,-29.48039 -0.25574,-43.02443 -5.55031,-14.92153 -13.22189,-19.46103 -24.36351,-28.16626 -7.34453,-13.09451 -27.72212,-10.72095 -38.75012,-13.8795 -11.04869,-3.7334 -25.190769,-12.24971 -22.364783,-25.93631 2.123535,-13.26504 -15.591241,7.10296 -23.402316,-1.20944 C 45.347452,110.34231 31.571852,106.53401 26.466062,93.108569 21.354444,77.388327 36.116609,67.037864 40.499228,53.704451 44.109483,40.573159 56.110751,32.490724 66.437912,25.077425 86.777303,11.120706 112.06814,9.963089 135.49996,3.2013956 c 11.86785,-2.1927371 23.91976,0.034194 35.60421,2.4634745 11.2212,7.9357389 25.37913,3.195143 36.81731,11.2142569 13.14588,8.262347 24.19298,17.513008 32.41665,30.694243 7.05239,11.169722 12.52747,24.295027 10.21225,37.201027 -0.80655,13.029353 -4.37109,26.823903 -13.04681,36.732803 -8.77346,7.29069 -18.33795,-7.52263 -24.62233,5.78276 -11.1942,3.53084 -16.5363,6.84079 -25.30116,15.28928 -9.57921,6.03541 -21.7469,4.80682 -30.16318,-3.03456 -8.41474,-5.54662 -19.33186,-16.1248 -13.39093,-27.01896 6.02967,-5.26158 12.43461,-20.786619 -1.40532,-17.961646 -13.41543,2.358597 -28.31787,11.480456 -20.50152,26.599646 -1.08268,11.15625 20.45031,1.824 6.02323,-4.94078 -6.54336,-8.81419 8.85241,-2.75656 8.3684,3.79681 1.9316,12.26822 -18.90432,0.21817 -12.26603,15.38771 4.99046,10.57001 23.46522,-2.3 27.38042,13.20442 7.71432,12.69238 21.49018,16.29861 24.07245,31.98571 2.98777,15.46751 6.02169,32.03056 -2.04903,46.59278 -4.8363,14.52024 -19.11766,21.85604 -32.90551,25.81729 -2.92396,0.58575 -5.94956,0.69076 -8.90066,0.24177 z m 30.25142,-11.63987 c 10.06629,-9.22566 15.31694,-23.38807 16.05903,-36.78809 -1.44387,-13.19968 -4.05114,-27.49382 -12.17684,-38.30604 -12.09013,-6.50414 -15.68838,-23.96492 -29.46203,-24.81582 -7.88493,-0.002 -11.99485,2.9953 -1.78993,7.08061 11.62445,10.88469 25.78248,18.21367 31.35831,34.21902 7.3328,13.50569 7.33006,29.49985 2.18839,43.75062 1.46,2.24187 -12.31181,20.43048 -6.17693,14.8597 z M 181.0549,142.5429 c 9.05479,0.16911 17.01115,-12.74223 8.07384,-11.52258 -10.64978,3.08532 -23.36145,4.4811 -30.91201,-6.07696 -6.18676,-10.73309 6.98886,-12.41258 15.03066,-5.54156 8.05632,-0.57367 19.69511,-4.96775 23.21676,6.77122 8.94619,9.74751 15.21324,-11.53268 4.33014,-15.20379 -8.34613,-9.31819 -21.80023,4.488 -29.75357,-5.34613 -5.84765,-6.116739 -17.40464,-11.046094 -19.35135,1.14499 -4.22062,2.53165 -10.80993,19.05699 -0.43957,26.50632 7.48882,8.18809 19.11073,11.00167 29.8051,9.26849 z m -61.9125,-0.69538 c 7.70214,1.6893 2.39238,-18.95216 -2.18515,-8.86981 -11.82145,7.16632 -31.256404,-7.97568 -22.602463,-22.77796 17.308823,-12.477543 27.659223,-0.92412 15.995283,10.36523 -3.83316,6.72051 -13.206149,-3.00622 -4.09205,1.44972 13.59483,-5.23133 0.91407,-23.657053 -8.417639,-11.91007 -12.570877,9.39462 3.411329,26.34599 15.373719,21.88561 16.66082,-4.59714 -2.18053,-26.27805 12.29627,-31.93959 7.56528,-4.900079 19.27047,-6.50384 25.46379,-9.142064 2.86795,-13.835362 -16.78805,-26.491947 -19.07642,-11.053184 -3.08994,14.462135 -18.2993,-3.016983 -24.44074,10.64609 -3.68114,13.361078 -24.87837,7.124426 -25.446952,23.035008 -4.358762,13.1033 6.697767,23.37664 18.020452,27.14206 6.13078,2.11894 12.75828,1.85477 19.1119,1.16896 z m 61.64792,-10.4175 c 7.28076,-0.13183 22.8262,-2.64349 10.28058,-11.20724 -9.22879,-2.37388 -18.24979,5.08614 -25.52913,-3.82877 -13.69712,-2.49388 -6.45649,14.6098 3.24865,14.1101 3.45781,2.8717 8.07067,2.35658 11.9999,0.92591 z m 25.34571,-3.8394 c 11.19621,-2.19514 9.89404,-11.74461 4.13554,-17.20809 -6.17822,-11.671611 -16.79334,-15.33285 -27.3085,-18.29397 -12.65601,6.522001 -11.63148,22.84653 1.77301,13.15948 10.05,-4.68991 22.22055,6.50752 23.59686,16.28791 -0.1534,2.1581 -0.69564,4.3991 -2.19691,6.05467 z M 234.17,122.06342 C 248.99813,110.06188 249.1555,88.651531 248.01497,71.222521 244.6466,56.329314 232.70355,44.93564 223.85789,32.916218 214.17177,25.533553 205.42025,15.899866 192.91428,13.16638 c -9.02366,-3.145678 -5.75399,3.922937 3.23249,6.621871 7.91623,5.625979 7.55709,14.823232 12.47098,21.334416 11.13721,3.449901 22.18846,7.185399 28.08655,17.845375 9.51159,6.472626 4.82504,28.195117 -6.38059,14.987913 -2.42474,-14.180282 -17.90329,-9.615061 -24.74894,-18.994193 -4.21124,-5.905967 -2.09803,-16.576262 -11.71921,-9.139984 -7.8148,10.127133 -16.97435,18.165753 -23.7286,28.782636 -11.20287,13.857674 -26.2406,-5.938843 -14.00934,-16.356221 8.93519,-8.861194 28.3745,-14.288085 23.7255,-30.399102 -1.78547,-16.630786 -20.13772,-17.781208 -32.38763,-12.119037 -15.3691,2.422203 -18.02319,23.841398 -4.45439,30.607468 9.89439,4.648091 27.55927,-6.597114 18.73083,-17.651672 -10.22317,-8.484588 11.37363,-5.095434 6.07036,4.505222 -1.86344,9.889679 -13.89104,17.958114 -23.85375,15.286126 -10.99311,-0.261793 -8.05851,-26.177066 -17.90135,-10.329956 -14.51334,6.448711 -25.08877,-12.887266 -13.72359,-22.890114 -5.18942,-8.826795 -21.180528,1.64891 -29.441313,4.421474 -9.094335,5.979634 11.78713,3.662611 12.656816,12.373749 8.436037,11.243182 -0.974351,22.447694 -9.457735,29.339298 1.121147,12.874995 -21.05301,12.518687 -14.05765,25.439821 8.338325,14.69976 -9.438845,20.85062 -20.383059,24.487 11.596816,9.40988 25.954844,5.4249 30.876513,-7.97508 C 69.154419,96.303598 82.828406,70.14123 92.895751,64.002614 96.983568,60.23189 113.43673,47.363089 103.43467,57.060636 95.642624,63.802719 77.848979,85.690484 80.75888,97.91422 85.30886,109.15508 94.44184,92.811631 92.520834,85.654081 98.364265,73.174504 115.45717,67.366247 127.91342,69.922227 c 14.37396,-4.828288 10.33014,-24.915389 -6.31348,-21.047566 -5.81147,-0.164193 -15.26352,11.130771 -15.25503,10.93797 3.32687,-14.962777 26.71795,-17.359826 31.80719,-3.083512 0.5597,19.199071 -19.49795,13.914993 -31.59958,17.753101 -10.253701,3.150315 -15.242848,18.850737 -13.14309,25.050941 11.80453,2.126779 14.36367,-25.527244 26.84976,-17.970445 6.65812,5.123208 10.6812,3.989287 9.93795,-5.261784 9.88518,-12.603329 17.52607,-7.176049 26.07918,18.430248 4.58928,2.62216 15.02132,9.20512 15.54664,7.68297 -4.80858,-14.846152 24.93108,-5.81925 11.34469,-17.167797 -6.7458,-11.426266 9.81823,-21.731187 20.07364,-20.675328 13.71001,0.227423 16.94537,17.868557 30.05744,19.734161 9.62764,8.753075 5.64218,26.109514 -2.83636,34.548834 -8.77435,2.5657 0.3936,4.92018 3.70763,3.2094 z m -6.35463,-2.97439 c 8.98487,-6.46735 10.12227,-21.762015 6.09538,-31.66452 -10.31403,-5.632176 -15.83923,-11.957038 -23.99012,-19.64242 -11.9296,-7.729529 -36.47193,7.389268 -23.18085,20.290592 8.76115,4.365397 13.6713,-20.841198 24.62551,-9.055751 8.83857,5.582822 17.53541,19.612497 7.34409,28.292169 0.3808,4.56647 3.12628,14.55567 9.10599,11.77993 z m -10.12071,-4.80834 c 5.80617,-9.31341 -14.49623,-10.85445 -3.69835,-2.12589 0.92255,0.68145 2.2407,3.18237 3.69835,2.12589 z M 47.15571,108.6339 C 0,0 0,0 47.15571,108.6339 Z m 3.680095,-0.14883 c 9.928541,-0.59538 24.891283,-7.35631 19.417488,-19.480143 1.543566,-10.424638 -9.825402,-13.334701 -16.224986,-13.103898 8.81572,5.465445 7.452235,23.390267 -5.214623,19.721486 -5.408105,-2.663266 2.205073,-18.40601 -7.803529,-11.541442 -10.477616,11.09647 -3.723332,21.839157 9.82565,24.403997 z m 165.673265,-3.50135 c 6.37583,-10.686488 -19.12409,-7.039629 -5.95717,-0.15821 1.91627,0.70759 3.99667,0.46992 5.95717,0.15821 z m 3.9359,-1.45683 c 5.0154,-11.033392 -6.62535,-25.177073 -17.57364,-23.21284 -15.7393,4.810832 -6.56667,22.20581 7.96442,16.798231 8.11372,-3.81128 7.07015,7.690939 9.60922,6.414609 z M 35.004099,99.265582 C 29.314543,89.94618 49.078612,71.787096 47.478423,89.075719 c 0.314644,14.404131 19.423992,-3.185127 6.290984,-9.675022 -1.731476,-4.651063 -12.43823,-6.473793 -17.2989,-13.200128 -6.846008,9.702069 -14.107196,26.611826 -1.437166,34.965551 -0.0097,-0.63351 -0.01947,-1.267047 -0.02924,-1.900538 z M 249.74354,83.745697 C 0,0 0,0 249.74354,83.745697 Z M 35.381919,65.984448 C 0,0 0,0 35.381919,65.984448 Z M 164.17661,77.440817 c 8.36153,-7.72433 15.525,-17.548916 22.56577,-25.81984 1.86719,-11.943211 23.63367,-7.771491 15.69115,-21.345386 -7.51699,-8.055498 -17.15398,-18.981044 -29.11783,-17.439309 4.6821,6.29574 12.89412,21.506632 3.63362,31.563323 -8.41983,9.191989 -23.39528,15.043284 -23.39089,29.884271 1.30765,4.443438 7.07937,4.299571 10.61818,3.156941 z M 65.568442,75.490661 C 76.090175,64.480634 49.181226,65.010886 55.786843,74.637204 c 3.099763,1.88221 6.233705,1.175728 9.781599,0.853457 z M 239.4155,76.225987 c 2.26871,-13.467079 -9.69423,-22.39947 -20.05979,-27.866461 -7.37246,-9.516385 -23.00837,-2.507484 -11.79262,7.417897 9.08117,6.065687 21.05142,4.920565 23.94533,17.614771 2.05965,1.220726 1.59878,3.020894 6.3219,3.478868 z M 71.252819,75.725967 c 7.918825,-0.294791 23.745498,-22.841601 6.840459,-17.673791 -8.775073,0.0591 -2.400143,-17.430557 -14.787511,-10.922029 -8.701518,2.646204 -27.021429,10.360557 -21.38005,21.426299 8.052663,8.658271 23.619643,-14.753364 27.021909,2.544743 0.218887,1.545198 -0.18284,4.752059 2.305193,4.624778 z M 154.786,61.477031 C 0,0 0,0 154.786,61.477031 Z M 48.045154,52.418628 c 3.572186,-3.226524 18.11383,-6.683015 23.951669,-16.319744 2.296437,-5.742474 5.752746,-15.07175 -2.980961,-8.214212 -13.397581,4.274751 -22.75691,14.990731 -27.966771,27.627038 -3.88794,6.876266 0.617898,3.850631 2.696729,0.790227 z m 39.004064,3.622093 C 88.101135,45.65008 65.430355,40.812504 75.876244,53.751272 c 3.00055,2.992548 7.335624,2.567482 11.172974,2.289449 z m 1.77473,-0.39309 c 14.912052,-4.710844 8.228065,-31.342032 -6.921299,-29.47171 -13.077957,4.486761 -9.124355,18.416058 3.031254,20.431586 1.673107,1.382295 4.050875,6.827958 3.890045,9.040124 z m 77.245972,-2.46548 C 0,0 0,0 166.06992,53.182151 Z M 58.079186,45.086993 c -59.7434443,-46.7512513 -59.7434443,-46.7512513 0,0 z M 220.93817,47.597691 C 0,0 0,0 220.93817,47.597691 Z m 15.2796,-1.18263 C 0,0 0,0 236.21777,46.415061 Z m -44.11651,-0.94537 C 0,0 0,0 192.10126,45.469691 Z m -68.44015,-9.17888 C 139.42353,33.30074 119.23119,7.7915949 111.5664,17.375563 c -7.20354,8.868926 0.0838,23.272727 12.09471,18.915248 z m 43.0755,-7.17438 C 0,0 0,0 166.73661,29.116431 Z m 51.4178,-1.650935 C 0,0 0,0 218.15441,27.465496 Z M 65.002903,27.846601 C 0,0 0,0 65.002903,27.846601 Z m 68.387107,-0.28238 c 4.12897,-13.661194 21.09952,-18.2224528 33.7411,-16.901669 5.69026,2.06098 15.37662,0.408818 4.24626,-3.0249832 -11.20704,-0.957908 -22.63261,-4.110956 -33.69365,-1.4563831 -9.01173,3.2576229 -29.27586,4.0926033 -12.85909,12.6019823 2.91299,2.870093 5.43825,6.130067 8.56538,8.781053 z m -2.76764,-0.59603 C 0,0 0,0 130.62237,26.968191 Z M 93.140468,14.569131 C 0,0 0,0 93.140468,14.569131 Z m 26.266522,-4.47196 C 0,0 0,0 119.40699,10.097171 Z"
       id="path1"
       sodipodi:nodetypes="ccccccccccccccccccccccccccccccccccccccccccccccccccccccccccccccccccccccccccccccccccccccccccccccccccccccccccccccccccccccccccccccccccccccccccccccccccccccsccccssccccccccccccccccccccccccccccsccccscccccccccccccccccccccccccccccccccccccc" />
  </g>
</svg>
