<?xml version="1.0" encoding="UTF-8" standalone="no"?>
<!-- Created with Inkscape (http://www.inkscape.org/) -->

<svg
   width="256mm"
   height="256mm"
   viewBox="0 0 256 256"
   version="1.1"
   id="svg1"
   inkscape:version="1.3.2 (091e20e, 2023-11-25)"
   sodipodi:docname="brain00.svg"
   inkscape:export-filename="brain00_v1.png"
   inkscape:export-xdpi="96"
   inkscape:export-ydpi="96"
   xmlns:inkscape="http://www.inkscape.org/namespaces/inkscape"
   xmlns:sodipodi="http://sodipodi.sourceforge.net/DTD/sodipodi-0.dtd"
   xmlns="http://www.w3.org/2000/svg"
   xmlns:svg="http://www.w3.org/2000/svg">
  <sodipodi:namedview
     id="namedview1"
     pagecolor="#ffffff"
     bordercolor="#000000"
     borderopacity="0.25"
     inkscape:showpageshadow="2"
     inkscape:pageopacity="0.0"
     inkscape:pagecheckerboard="true"
     inkscape:deskcolor="#d1d1d1"
     inkscape:document-units="mm"
     inkscape:zoom="0.51316815"
     inkscape:cx="511.52824"
     inkscape:cy="443.32447"
     inkscape:window-width="1312"
     inkscape:window-height="838"
     inkscape:window-x="45"
     inkscape:window-y="28"
     inkscape:window-maximized="0"
     inkscape:current-layer="layer1" />
  <defs
     id="defs1" />
  <g
     inkscape:label="Layer 1"
     inkscape:groupmode="layer"
     id="layer1">
    <path
       style="fill:#ffffff;fill-opacity:1;stroke-width:0.264583"
       d="m 133.86416,253.71573 c -2.36088,-0.25601 -4.56625,-0.95872 -7.82865,-2.49449 -2.34693,-1.10482 -8.63074,-4.97721 -9.71345,-5.98591 -0.29857,-0.27815 -0.75407,-0.57277 -1.01223,-0.65471 -0.25817,-0.0819 -0.71057,-0.53919 -1.00533,-1.01613 -0.29477,-0.47697 -1.28294,-1.51014 -2.19595,-2.296 -0.913,-0.78584 -2.34462,-2.07447 -3.18136,-2.86362 -0.83675,-0.78914 -1.5218,-1.32736 -1.52235,-1.19607 -5.3e-4,0.13129 -0.243,-0.15825 -0.53879,-0.64341 -0.78257,-1.2836 -2.8335,-3.25515 -4.49591,-4.32192 -1.80802,-1.16021 -4.543887,-4.06405 -5.173537,-5.49118 -0.26177,-0.59331 -0.56406,-1.07874 -0.67177,-1.07874 -0.10771,0 -0.26961,-0.23244 -0.35978,-0.51653 -0.29836,-0.94006 -4.83343,-4.77514 -5.64672,-4.77514 -0.25362,0 -3.39129,-1.35249 -4.42721,-1.90835 -0.44523,-0.23891 -1.29442,-0.91929 -1.8871,-1.51197 -0.59268,-0.59268 -1.19793,-1.07759 -1.345,-1.07759 -0.14708,0 -0.32974,-0.16246 -0.40594,-0.36101 -0.21047,-0.54848 -5.28082,-3.05867 -7.31923,-3.62354 -4.50766,-1.24914 -12.5324,-0.3416 -16.14677,1.82608 -0.509323,0.30546 -1.31168,0.73086 -1.783014,0.94533 -1.813208,0.82505 -3.766902,2.31914 -7.404179,5.66233 -1.051131,0.96614 -2.078842,1.81883 -2.283798,1.89486 -0.369393,0.13703 -1.19897,1.16765 -3.199358,3.97469 -0.570362,0.80037 -1.806186,3.06256 -2.746272,5.02709 -2.772135,5.79302 -3.561035,6.96452 -7.051709,10.47168 -3.447611,3.4639 -4.45344,4.31043 -7.678544,6.46247 -1.164167,0.77682 -2.335358,1.65997 -2.602648,1.96255 -0.26729,0.3026 -0.416801,0.41381 -0.332248,0.24717 0.08455,-0.16666 -0.03744,-0.37637 -0.271084,-0.46603 -0.30914,-0.11862 -0.381223,-0.0494 -0.264729,0.25415 l 0.160086,0.4172 -0.520663,-0.16526 c -0.286364,-0.0909 -0.910693,0.008 -1.387396,0.21894 -0.476705,0.21133 -1.079315,0.45437 -1.339133,0.54012 -0.940139,0.31031 -8.848939,1.25024 -11.367706,1.35104 L 6.335,252.62705 v -1.29937 -1.29937 l 0.595313,0.21863 c 0.327422,0.12022 1.756105,0.20658 3.174851,0.19187 1.418747,-0.0148 2.579606,0.0442 2.579688,0.13084 2.64e-4,0.31856 5.04422,-0.55208 6.012018,-1.03772 0.549773,-0.27588 1.129983,-0.45482 1.289357,-0.39765 0.293108,0.10518 3.321569,-1.04055 5.266482,-1.99236 0.582083,-0.28488 1.713177,-1.10302 2.513541,-1.81811 0.800365,-0.71509 1.931459,-1.70826 2.513542,-2.207 3.650197,-3.12758 8.088646,-8.80573 8.516194,-10.89482 0.0819,-0.40019 0.240183,-0.72761 0.351737,-0.72761 0.111556,0 0.277535,-0.29765 0.368842,-0.66146 0.09131,-0.3638 0.282811,-0.66146 0.425559,-0.66146 0.142748,0 0.261572,-0.20835 0.264054,-0.46302 0.0098,-1.00959 4.084786,-6.65948 6.152732,-8.53073 0.403307,-0.36494 1.415338,-1.36135 2.248958,-2.21423 1.997305,-2.04345 3.874558,-3.46584 6.968051,-5.27969 5.176344,-3.0351 8.568024,-3.98619 14.259084,-3.9985 l 2.77812,-0.006 2.38125,0.76649 c 1.30969,0.42157 2.50031,0.85244 2.64584,0.95748 0.67749,0.48906 2.29843,1.30572 2.59165,1.30572 0.17963,0 0.80108,0.25515 1.38101,0.56701 0.57993,0.31185 1.23301,0.5911 1.45129,0.62055 1.49835,0.20215 2.1019,0.50606 2.33543,1.17597 0.25607,0.73455 1.12127,1.33966 5.73403,4.01029 1.3095,0.75816 2.73438,1.68803 3.1664,2.06639 1.49683,1.3109 3.06941,2.96599 3.87022,4.0733 0.44252,0.61189 0.96846,1.17206 1.16875,1.24482 0.20029,0.0728 1.141427,1.06769 2.091397,2.21094 0.94996,1.14326 2.25564,2.41377 2.90148,2.82335 0.64585,0.40959 1.64817,1.37919 2.22738,2.15468 1.33127,1.78241 1.68898,2.14211 3.90176,3.92353 0.99418,0.80036 2.71203,2.28864 3.81746,3.30729 3.59216,3.31018 4.92234,4.34578 6.9126,5.38178 1.07661,0.56042 3.02903,1.6043 4.33872,2.31976 3.39542,1.85481 5.54533,2.70878 8.23881,3.27258 3.27273,0.68504 4.95395,0.61526 9.22369,-0.3829 4.49069,-1.04982 7.96352,-2.5504 15.45437,-6.67785 1.31241,-0.72313 2.72064,-2.1745 3.32714,-3.42908 0.22298,-0.46122 0.51774,-0.87794 0.65502,-0.92604 0.22635,-0.0793 4.77284,-7.75481 4.77284,-8.05766 0,-0.0707 0.24111,-0.65783 0.53579,-1.3047 0.29468,-0.64686 0.60446,-1.56306 0.68841,-2.036 0.0839,-0.47294 0.38941,-1.51473 0.67881,-2.3151 0.28941,-0.80036 0.86621,-2.88396 1.28177,-4.63021 0.41557,-1.74625 0.94255,-3.88937 1.17108,-4.7625 0.84786,-3.23931 1.45811,-7.93559 1.4612,-11.24479 l 0.003,-3.30729 -0.65467,-2.64583 c -0.36008,-1.45521 -1.05614,-3.83646 -1.54682,-5.29167 -0.49067,-1.45521 -1.04358,-3.30068 -1.22867,-4.10104 -0.70429,-3.04541 -2.72414,-7.95326 -4.25508,-10.33902 -0.50217,-0.78256 -0.91303,-1.5013 -0.91303,-1.59719 0,-0.537 -3.94059,-4.71574 -6.95599,-7.37638 -1.06089,-0.93608 -2.41494,-2.36127 -3.00899,-3.16709 -1.73649,-2.35548 -3.19107,-3.4977 -6.72521,-5.28096 -1.82769,-0.92222 -3.89567,-2.16734 -4.59551,-2.76692 -1.29261,-1.10744 -2.93739,-3.093 -3.25917,-3.93442 -0.0974,-0.25466 -0.28822,-0.46302 -0.42407,-0.46302 -0.13585,0 -0.36411,-0.32742 -0.50723,-0.72761 -0.56834,-1.58909 -3.55206,-4.18587 -8.66502,-7.54132 -1.02411,-0.67209 -2.35661,-1.76543 -2.9611,-2.42965 l -1.09909,-1.20767 h -1.20503 c -0.66277,0 -1.92137,0.2479 -2.7969,0.5509 -2.21594,0.76687 -5.37102,1.04897 -6.85287,0.61273 l -1.16658,-0.34343 -0.55321,0.30051 c -1.91989,1.04292 -4.47877,0.98149 -6.90321,-0.16572 -2.00127,-0.94697 -2.84017,-1.26292 -3.61927,-1.36311 -0.97347,-0.12519 -2.60326,-0.98926 -4.500997,-2.38629 -0.87738,-0.64589 -1.85002,-1.17613 -2.16144,-1.17833 -1.15229,-0.008 -2.49662,-0.69959 -4.02412,-2.06988 -0.86304,-0.77422 -1.92053,-1.59227 -2.34998,-1.81788 -0.42945,-0.22561 -0.94397,-0.57336 -1.14338,-0.77277 -0.19941,-0.19941 -0.45647,-0.36256 -0.57124,-0.36256 -0.11477,0 -0.62588,-0.39348 -1.1358,-0.8744 -2.06934,-1.95164 -4.36145,-6.63696 -4.81444,-9.84123 -0.23124,-1.63561 -0.26288,-5.97919 -0.0511,-7.01146 0.10449,-0.50932 0.4219,-1.99203 0.70535,-3.2949 0.28345,-1.30288 0.51537,-2.44544 0.51537,-2.53905 0,-0.0936 -0.46829,0.25802 -1.04064,0.78137 -0.96527,0.88262 -1.82684,1.37375 -5.10494,2.91004 -0.68792,0.3224 -1.31803,0.695 -1.40023,0.82801 -0.12133,0.19631 -1.09146,0.54763 -2.57451,0.93233 -0.10914,0.0283 -0.2282,0.0755 -0.26458,0.10479 -0.1031,0.0831 -1.0269,0.24768 -2.13021,0.37952 -0.55316,0.0661 -1.1971,0.27852 -1.43097,0.47205 -0.30918,0.25584 -1.28347,0.33875 -3.56969,0.30375 l -3.14446,-0.0481 -2.03916,-0.60262 c -2.32991,-0.68854 -6.695146,-2.86926 -9.434038,-4.71291 -1.676591,-1.12858 -2.669035,-1.50725 -4.595958,-1.75361 -1.382813,-0.1768 -4.22284,-1.4976 -5.323261,-2.47567 -0.645985,-0.57416 -1.273622,-0.98268 -1.394751,-0.90782 -0.121126,0.0749 0.05022,0.36161 0.380767,0.63721 l 0.601001,0.5011 -0.851278,-0.2347 c -1.106567,-0.30509 -1.39768,-0.49629 -1.39768,-0.91798 0,-0.19007 -0.215588,-0.62953 -0.479083,-0.97657 -0.263499,-0.34705 -0.62206,-1.12565 -0.796806,-1.73023 l -0.31772,-1.09922 -2.623354,-1.74644 C 30.834585,99.456951 29.384359,97.521996 28.40463,93.656296 l -0.433387,-1.71 0.130739,-5.56604 0.130741,-5.56603 0.605089,-2.11667 c 0.332798,-1.16417 0.749514,-2.29527 0.926036,-2.51355 0.176519,-0.21828 0.410186,-0.69453 0.519258,-1.05834 0.331708,-1.10639 3.921302,-6.323296 7.282058,-10.583326 2.079398,-2.63581 2.923231,-4.23311 3.5223,-6.66743 0.23993,-0.97495 0.885018,-2.64183 1.433528,-3.70416 0.548511,-1.06235 1.222275,-2.46732 1.497251,-3.12216 2.490875,-5.93186 5.434391,-10.91973 7.163517,-12.13878 0.733915,-0.51742 2.035045,-1.57341 3.079493,-2.49931 1.26151,-1.11832 3.335475,-2.64792 3.861414,-2.84788 0.329846,-0.12541 0.599718,-0.35003 0.599718,-0.49915 0,-0.14912 0.210135,-0.27113 0.466968,-0.27113 0.60208,0 1.6409,-0.8562 4.92885,-4.06242 3.12305,-3.04542 4.04865,-3.6381 6.90731,-4.42296 2.16552,-0.59456 6.66358,-0.84595 8.07838,-0.45149 l 0.67005,0.18681 0.77455,-2.04111 c 0.426,-1.12262 0.92552,-2.19583 1.11005,-2.38491 0.18452,-0.18908 0.42742,-0.49744 0.53978,-0.68524 0.58614,-0.97976 3.84476,-2.20122 7.05375,-2.64405 1.0733,-0.1481 2.12859,-0.77028 4.79219,-2.82534 5.12839,-3.95674 12.237957,-5.89486 17.330207,-4.72434 1.65851,0.38123 4.29706,1.58637 4.71136,2.15188 0.5051,0.68946 0.69386,0.61499 2.38711,-0.94166 2.70314,-2.48507 6.71447,-4.0105 13.93591,-5.29957 3.26567,-0.58294 3.6687,-0.64676 6.08541,-0.96371 1.16417,-0.15268 2.71198,-0.39048 3.43959,-0.52844 0.7276,-0.13797 1.7296,-0.31792 2.22669,-0.3999 0.49708,-0.082 0.99866,-0.2077 1.11464,-0.27938 0.11597,-0.0717 1.43568,-0.13936 2.93268,-0.15041 l 2.72182,-0.0201 2.64583,0.66438 c 5.32504,1.33714 6.09041,1.44739 10.20117,1.46943 4.20665,0.0226 4.79101,0.0838 6.99674,0.73371 1.20107,0.35386 5.63336,2.41003 5.95285,2.76156 0.0729,0.0802 0.70077,0.35898 1.39523,0.61944 0.69445,0.26046 1.98339,1.01536 2.8643,1.67756 l 1.60167,1.20398 2.29506,-0.21605 c 2.55744,-0.24075 9.07542,-0.30977 10.10027,-0.10696 1.47264,0.29143 4.20439,2.10011 3.17191,2.10011 -0.64977,0 0.0211,0.37637 1.27268,0.71396 2.97673,0.80294 6.76112,1.66729 7.29991,1.66729 0.3218,0 0.70732,0.12223 0.85672,0.27164 0.1494,0.1494 0.64923,0.29822 1.11073,0.33073 0.46149,0.0325 0.83931,0.14036 0.8396,0.2397 2.7e-4,0.0993 0.25623,0.26176 0.56873,0.36094 0.63183,0.20054 2.34221,1.81204 2.34221,2.2068 0,0.50533 2.05905,2.30138 3.67406,3.20477 0.91053,0.50933 2.36169,1.43206 3.2248,2.05052 0.86311,0.61847 1.65826,1.12672 1.76699,1.12945 0.51297,0.0129 5.59991,4.6947 8.1892,7.53698 3.17232,3.48227 5.02236,5.91147 9.67117,12.69868 1.69445,2.47385 3.38363,4.8551 3.75373,5.29166 2.94415,3.4728 6.66633,8.51456 7.41889,10.04904 0.50096,1.02147 1.33453,3.28596 1.8524,5.03221 l 0.94157,3.175 -0.003,8.202096 c -0.003,4.58825 -0.12669,8.90153 -0.28359,9.78958 -0.15427,0.87313 -0.38399,2.26788 -0.51046,3.09945 -0.12644,0.83158 -0.3008,1.62663 -0.38743,1.76679 -0.0866,0.14015 -0.33094,1.48383 -0.54295,2.98596 -0.49183,3.484435 -1.13797,7.195714 -1.48897,8.551964 -0.15065,0.58208 -1.95495,4.45161 -4.00954,8.59895 l -3.73566,7.54063 -1.59955,1.52236 -1.59957,1.52236 -1.85508,0.7116 c -3.89419,1.49382 -6.13374,1.07557 -12.32234,-2.30127 -2.19095,-1.19551 -4.01302,-2.13103 -4.04906,-2.07893 -0.036,0.0521 -0.53189,1.04721 -1.10193,2.21138 -2.15036,4.39158 -7.12337,7.36531 -14.67248,8.77376 -0.36158,0.0675 -1.37361,0.40274 -2.24896,0.74506 -1.67251,0.65407 -3.24637,1.06748 -3.73192,0.98029 -0.15856,-0.0285 -0.4374,0.45507 -0.61965,1.07456 -0.57712,1.96166 -2.94054,6.18768 -4.08289,7.30058 -2.34242,2.28202 -4.86283,3.28978 -12.80239,5.11892 -0.61846,0.14248 -1.12448,0.35454 -1.12448,0.47124 0,0.1167 -0.6581,0.52378 -1.46244,0.90461 l -1.46245,0.69244 h -1.66622 c -1.05999,0 -2.33286,-0.22789 -3.49849,-0.62634 -1.78242,-0.60929 -8.57333,-3.82142 -8.84905,-4.18563 -0.0757,-0.1 -0.701,-0.42327 -1.3896,-0.71844 -2.53583,-1.08698 -4.19986,-2.45901 -9.97898,-8.22793 l -4.37335,-4.36562 -0.8447,-1.73731 c -1.9237,-3.95654 -2.79853,-8.92173 -2.11802,-12.02102 0.15976,-0.72761 0.26767,-1.41222 0.2398,-1.52136 -0.0279,-0.10914 0.0684,-0.19844 0.21391,-0.19844 0.14552,0 0.26458,-0.15546 0.26458,-0.34547 0,-0.51791 1.05504,-1.85006 3.39153,-4.28235 2.16589,-2.25471 4.28139,-4.93036 4.28139,-5.41504 0,-0.15174 0.0973,-0.27588 0.21626,-0.27588 0.43589,0 1.15091,-2.92376 0.97282,-3.977879 -0.29823,-1.765215 -1.09492,-3.555615 -1.62475,-3.651305 -0.26971,-0.0487 -1.02615,-0.27281 -1.681,-0.498 -0.65484,-0.22519 -1.36922,-0.43669 -1.5875,-0.47001 -0.21828,-0.0333 -0.57547,-0.12659 -0.79375,-0.20726 -0.77371,-0.28595 -3.10614,-0.41902 -3.33727,-0.1904 -0.20116,0.199 -2.3742,1.06196 -10.15648,4.033385 -0.80036,0.30559 -1.93146,0.86469 -2.51354,1.24244 -0.58208,0.377749 -2.20561,1.249649 -3.60785,1.937549 -4.87313,2.39066 -6.95835,4.46834 -7.27077,7.24447 -0.14579,1.29553 0.20969,2.73123 1.43156,5.7818 0.99309,2.47936 1.36738,3.967 1.54025,6.12186 0.17342,2.16176 -0.24317,5.5069 -0.72273,5.80329 -0.1287,0.0795 -0.234,0.24966 -0.234,0.37804 0,0.12838 0.47309,-0.0763 1.05131,-0.45489 1.55363,-1.01719 2.30598,-1.08806 6.31643,-0.59498 l 2.73754,0.33658 1.41826,-0.44707 c 3.50051,-1.10344 3.40268,-4.21468 -0.19116,-6.07922 -4.20256,-2.18036 -5.11463,-3.11441 -5.41191,-5.54233 -0.089,-0.72696 0.0334,-1.2616 0.43923,-1.91823 0.69619,-1.12646 1.41522,-1.17586 3.17487,-0.21814 l 1.2718,0.6922 2.30075,4.61176 2.30075,4.61176 -0.0145,1.0543 c -0.0283,2.05389 -1.25107,3.28383 -4.10802,4.13225 l -1.34687,0.39998 -3.35244,-0.3222 -3.35243,-0.32221 -0.91641,0.30245 c -0.50403,0.16635 -1.20182,0.60608 -1.55064,0.97719 l -0.63422,0.67475 -0.0919,2.34368 -0.0918,2.34367 0.84642,2.72446 c 1.87459,6.03388 2.27584,6.27606 7.43714,4.48861 0.8169,-0.2829 1.85407,-0.70508 2.30482,-0.93817 0.95161,-0.4921 4.37,-1.25751 4.86716,-1.08981 0.18621,0.0628 0.75586,0.17421 1.26587,0.24754 1.42178,0.20443 4.65179,1.62197 6.17371,2.70943 2.55605,1.82639 4.4667,4.29639 6.51913,8.42761 0.65158,1.31154 1.5534,2.48916 3.08992,4.0349 1.19339,1.20055 2.25526,2.18281 2.35972,2.18281 0.10446,0 0.74047,0.50602 1.41336,1.12448 0.67288,0.61846 2.22504,2.01745 3.44923,3.10885 1.2242,1.09141 2.49185,2.2225 2.81702,2.51355 2.04257,1.82828 3.73032,3.23182 4.3282,3.59935 1.12457,0.69128 3.65732,3.65474 4.6677,5.46147 1.81574,3.24685 2.46035,6.08135 2.88874,12.70247 0.10201,1.5765 0.94934,5.52392 1.85974,8.66379 0.7452,2.57015 1.3539,6.27644 1.58783,9.66823 0.53608,7.7728 -2.41637,18.42202 -7.91928,28.56406 -0.35531,0.65484 -1.22202,2.36476 -1.92603,3.79986 -0.9066,1.84801 -1.82034,3.20911 -3.13211,4.6655 l -1.85208,2.05632 -2.91042,1.51807 c -1.60073,0.83495 -3.08901,1.66635 -3.30729,1.84754 -0.84492,0.70143 -5.59267,3.34756 -8.22176,4.58234 -4.61556,2.16779 -5.26135,2.43245 -5.93517,2.43245 -0.35696,0 -1.09792,0.16851 -1.64657,0.37449 -1.82583,0.68546 -7.35269,1.03828 -10.65483,0.68019 z m 30.25142,-11.63987 c 2.97832,-1.53535 4.98216,-4.17052 8.38307,-11.02419 1.07064,-2.1576 2.03687,-3.98555 2.14717,-4.0621 0.18187,-0.12623 2.85121,-6.58428 2.99754,-7.25207 0.0339,-0.15491 0.12224,-0.46025 0.19623,-0.67854 0.52851,-1.55929 1.86542,-6.40767 1.93336,-7.01145 0.0327,-0.29104 0.15028,-1.24354 0.26118,-2.11667 0.29392,-2.31406 0.20285,-7.5326 -0.17482,-10.01706 -0.18006,-1.18458 -0.29955,-2.2556 -0.26553,-2.38006 0.034,-0.12446 -0.0656,-0.37982 -0.22128,-0.56746 -0.15574,-0.18765 -0.25945,-0.44301 -0.23047,-0.56747 0.0685,-0.29425 -0.20048,-1.3513 -0.96654,-3.79816 -0.3417,-1.0914 -0.75705,-2.69875 -0.923,-3.57187 -0.16595,-0.87313 -0.46077,-2.18282 -0.65517,-2.91042 -0.35341,-1.32279 -0.88341,-3.52495 -1.07595,-4.47053 -0.21393,-1.05065 -0.76647,-2.48977 -1.83908,-4.78989 -2.12453,-4.55589 -2.36879,-5.03964 -3.62775,-7.18457 l -1.26634,-2.1575 -3.10837,-2.91864 c -1.70961,-1.60525 -3.58462,-3.26308 -4.16671,-3.68408 -0.58208,-0.42099 -1.42909,-1.18829 -1.88224,-1.7051 -0.45314,-0.51681 -1.76283,-1.6822 -2.91041,-2.58975 -1.93045,-1.52668 -4.07089,-3.89498 -4.07089,-4.50427 0,-0.14256 -0.11906,-0.25921 -0.26458,-0.25921 -0.14552,0 -0.26459,-0.11322 -0.26459,-0.25159 0,-0.13837 -0.52977,-1.35877 -1.17727,-2.71198 l -1.17727,-2.46039 -1.83655,-1.74476 c -2.27444,-2.16075 -4.79576,-3.86728 -6.25758,-4.23537 l -1.10978,-0.27945 -5.13484,1.24828 c -2.82416,0.68655 -5.8405,1.35204 -6.70299,1.47886 -0.8625,0.12682 -1.61477,0.27718 -1.67173,0.33414 -0.057,0.057 0.76777,0.79939 1.83275,1.64985 1.06496,0.85046 1.99584,1.61524 2.0686,1.69952 0.0728,0.0843 0.88181,0.6584 1.79788,1.27582 3.10805,2.09479 5.20105,3.76412 7.60601,6.06634 4.30419,4.12033 8.3299,7.71944 8.63502,7.71999 0.0987,1.8e-4 0.33687,0.15317 0.52917,0.33999 0.19229,0.18681 0.94494,0.68204 1.67254,1.10052 0.72761,0.41847 2.12025,1.27765 3.09478,1.90929 0.97452,0.63164 1.84486,1.14844 1.9341,1.14844 0.32644,0 2.55405,1.83511 3.10827,2.5606 0.31373,0.41068 1.02223,1.26947 1.57445,1.90842 0.55221,0.63895 1.00403,1.31508 1.00403,1.50252 0,0.18743 0.41262,0.77828 0.91692,1.31301 0.50431,0.53472 0.90213,1.04921 0.88404,1.14331 -0.0523,0.27207 0.35997,1.16897 0.88793,1.93173 0.26736,0.38627 0.48611,0.84414 0.48611,1.01749 0,0.17335 0.23954,0.6516 0.53232,1.06276 2.15665,3.02874 6.023,13.12525 7.85055,20.50078 l 0.72116,2.91042 0.0102,3.57188 c 0.009,3.30093 -0.39267,6.8076 -1.18312,10.31875 -0.48139,2.13828 -0.54467,2.4955 -0.703,3.96874 -0.086,0.80037 -0.2857,1.69334 -0.44375,1.98438 -0.15804,0.29104 -0.42426,1.00542 -0.59159,1.5875 -0.16734,0.58208 -0.66253,2.24896 -1.10044,3.70417 -0.4379,1.4552 -0.87541,2.98639 -0.97224,3.40263 -0.0968,0.41624 -0.40102,1.24968 -0.67599,1.85208 -0.27497,0.60241 -0.6839,1.51201 -0.90873,2.02133 -0.65079,1.47426 -1.34701,2.56995 -4.25463,6.69586 -1.53273,2.17496 -1.75402,2.62266 -0.99269,2.0084 0.25466,-0.20545 1.03882,-0.6704 1.74256,-1.0332 z m 12.3542,-62.24137 c -0.11783,-0.47295 -0.41898,-1.75287 -0.66922,-2.84427 -0.66204,-2.88741 -1.84763,-5.15703 -3.76078,-7.19943 -1.89503,-2.02304 -2.04118,-1.99624 -0.75565,0.13859 0.49911,0.82885 1.29034,2.31013 1.7583,3.29173 1.6672,3.49718 3.19879,6.81285 3.1771,6.87796 -0.0949,0.28482 0.0205,0.59531 0.22122,0.59531 0.142,0 0.15408,-0.35794 0.029,-0.85989 z m -15.25303,-6.87917 c -0.10741,-0.1819 -0.47163,-0.69916 -0.80936,-1.14945 -0.33773,-0.4503 -0.61495,-0.92655 -0.61605,-1.05834 -0.002,-0.30221 -1.94981,-2.18354 -3.17301,-3.06551 -1.72302,-1.24237 -1.93788,-1.07507 -0.67831,0.52816 1.64555,2.09452 2.22856,2.69462 2.61791,2.69462 0.18231,0 0.8573,0.53578 1.49998,1.19062 1.19287,1.21544 1.50603,1.44782 1.15884,0.8599 z m 15.74416,-27.02535 0.63113,-0.34983 -0.76342,-0.20656 c -0.41988,-0.1136 -1.35873,-0.23854 -2.08633,-0.27765 -1.48846,-0.08 -4.58869,-0.73617 -6.25372,-1.32363 -0.60768,-0.2144 -1.1483,-0.34638 -1.20138,-0.2933 -0.23979,0.23979 3.21794,1.53583 4.47136,1.67598 0.76793,0.0859 1.57483,0.30323 1.79311,0.48303 0.87355,0.71954 2.40175,0.85041 3.40925,0.29196 z m 6.11575,-2.92077 c 2.16388,-0.36461 3.50266,-0.72 5.29167,-1.40471 0.21828,-0.0836 0.52625,-0.13237 0.68437,-0.1085 0.31162,0.047 0.90313,-1.06555 0.90313,-1.69873 0,-0.21504 0.3004,-0.50519 0.66755,-0.64478 0.36716,-0.13959 1.32736,-0.67587 2.13379,-1.19174 0.80643,-0.51587 1.65261,-0.90472 1.88039,-0.86413 0.46588,0.083 2.8913,-4.88807 2.4585,-5.03891 -0.38395,-0.13381 -5.5743,0.74002 -6.1153,1.02956 l -0.48385,0.25895 0.1713,-0.4464 c 0.11487,-0.29935 0.0703,-0.384 -0.13522,-0.25696 -0.19555,0.12085 -0.25327,0.0507 -0.15945,-0.19381 0.0812,-0.21151 0.67491,-0.4624 1.32501,-0.55989 0.73692,-0.11051 1.1124,-0.28269 1.00288,-0.45989 -0.31932,-0.51668 -7.53791,0.43718 -8.43414,1.11448 -0.14552,0.10998 -0.6813,0.29628 -1.19063,0.41401 -0.50932,0.11773 -0.98557,0.23 -1.05833,0.2495 -0.0728,0.0195 -0.57878,0.12877 -1.12448,0.24282 -0.5457,0.11405 -0.99219,0.30059 -0.99219,0.41452 0,0.11393 -0.26789,0.21309 -0.59531,0.22035 -0.32742,0.007 -1.49413,0.0935 -2.59269,0.19167 l -1.99738,0.17846 -1.44221,-0.72301 c -0.79321,-0.39765 -1.62079,-0.87492 -1.83907,-1.06059 -0.21828,-0.18568 -1.05172,-0.6121 -1.85209,-0.94761 -0.80036,-0.33551 -1.5451,-0.75582 -1.65496,-0.93403 -0.10987,-0.17821 -1.00284,-0.58024 -1.98438,-0.89339 -4.22102,-1.3467 -6.21876,-3.04458 -7.08392,-6.02061 -0.72383,-2.48989 -0.0463,-5.47816 1.55663,-6.86569 1.42224,-1.2311 2.31819,-1.51801 4.9333,-1.57978 l 2.51354,-0.0594 1.15903,0.53835 c 0.64876,0.30134 2.11998,1.51237 3.34178,2.75079 1.20052,1.21685 2.46489,2.2706 2.80973,2.34167 1.93877,0.3996 2.2672,0.35954 4.2778,-0.52176 1.13483,-0.49742 2.34744,-0.90441 2.69468,-0.90441 0.34724,0 1.49798,-0.1823 2.55721,-0.40511 2.26658,-0.4768 5.68989,-0.53417 7.36915,-0.12351 3.05647,0.74746 6.53494,4.67495 6.74504,7.61573 0.0282,0.39496 0.0718,1.25388 0.0968,1.90873 0.025,0.65484 0.1399,1.33934 0.25532,1.52111 l 0.20986,0.3305 1.70432,-0.5681 c 0.93738,-0.31246 2.02036,-0.7886 2.40662,-1.0581 0.38627,-0.2695 0.80299,-0.49125 0.92605,-0.49278 0.38249,-0.005 3.16127,-2.2026 3.89715,-3.08242 0.99382,-1.18819 1.48596,-2.51732 1.48596,-4.01313 0,-1.63 -0.4373,-2.28859 -3.79375,-5.71343 -1.41508,-1.44392 -2.89081,-3.20945 -3.2794,-3.92341 -0.70492,-1.29517 -1.69354,-2.05024 -2.68439,-2.05024 -0.28788,0 -0.70782,-0.18441 -0.93321,-0.4098 -0.94058,-0.94058 -6.32605,-2.01383 -8.41617,-1.67722 -1.40456,0.22619 -3.97613,1.37073 -4.97016,2.21208 -0.21828,0.18475 -1.16615,0.59792 -2.10638,0.91814 -1.96921,0.67068 -2.84776,0.59062 -4.98129,-0.45393 -1.3055,-0.63916 -4.02483,-3.02922 -4.02483,-3.53749 0,-0.12473 -0.10241,-0.22678 -0.22758,-0.22678 -0.12516,0 -0.68352,-0.43002 -1.24078,-0.95558 -0.55726,-0.52557 -1.86463,-1.34359 -2.90525,-1.81781 -1.19409,-0.54417 -2.45827,-1.40199 -3.42701,-2.32544 -1.67007,-1.591989 -3.73331,-2.743429 -6.77953,-3.783484 -3.0032,-1.02537 -5.56038,-1.75702 -5.68954,-1.62786 -0.0641,0.0641 0.12459,0.67904 0.41929,1.36654 0.896,2.090285 0.60181,4.539094 -0.81241,6.762384 -0.13885,0.21828 -0.48997,0.89563 -0.78028,1.50522 -0.2903,0.60959 -0.97194,1.58019 -1.51476,2.15688 -0.54282,0.5767 -1.83973,1.95365 -2.88203,3.0599 -1.0423,1.10624 -2.18838,2.5999 -2.54684,3.31924 l -0.65174,1.30788 -0.0446,2.59367 c -0.0303,1.76412 0.0861,2.96395 0.36402,3.75141 0.22473,0.63676 0.40933,1.41067 0.41023,1.71979 7.9e-4,0.30913 0.17949,0.90308 0.39688,1.3199 0.21738,0.41681 0.39524,0.89857 0.39524,1.07058 0,1.0313 2.94697,4.5929 7.18647,8.68531 4.26024,4.11243 6.66653,5.98343 8.19743,6.37386 0.34287,0.0874 2.40933,0.56175 4.59214,1.054 2.18282,0.49225 4.21625,0.97433 4.51876,1.0713 0.3025,0.097 1.72512,0.23806 3.16137,0.31356 1.43626,0.0755 2.67704,0.20441 2.75729,0.28648 0.19444,0.19885 2.48619,-0.0254 5.56987,-0.545 z m -61.9125,-0.69538 c 1.52797,-0.13649 3.03348,-0.24826 3.34558,-0.24838 l 0.56745,-2.2e-4 -0.20723,-0.8599 c -0.11397,-0.47294 -0.4559,-1.40672 -0.75985,-2.07505 -1.46669,-3.22499 -2.29646,-8.39066 -1.62958,-10.1447 0.33708,-0.88658 0.30591,-0.8737 -1.07905,0.44579 -0.64914,0.61847 -2.66116,2.01595 -4.47115,3.10551 l -3.29088,1.98104 -1.86004,-0.026 c -1.02302,-0.0143 -2.09816,-0.0835 -2.3892,-0.15369 -2.1032,-0.50749 -3.24811,-0.93844 -5.68855,-2.14122 l -2.77811,-1.3692 -2.403187,-2.32018 -2.40317,-2.32017 -0.94853,-1.91684 c -0.52169,-1.05426 -1.08547,-2.52617 -1.25284,-3.27089 l -0.30431,-1.35406 0.30349,-1.67364 c 0.49189,-2.71256 1.13486,-3.62011 5.50733,-7.7736 2.230277,-2.11857 4.165037,-3.85194 4.299477,-3.85194 0.13444,0 0.30522,0.002 0.3795,0.005 0.0743,0.003 0.48509,-0.17565 0.9129,-0.39688 0.4948,-0.25587 1.50575,-0.40223 2.77824,-0.40223 h 2.0004 l 1.1983,0.56327 c 1.38927,0.65303 3.54893,2.66883 4.03253,3.76392 0.18346,0.41542 0.40058,1.42745 0.48249,2.24895 l 0.14894,1.49365 -0.93798,2.73499 c -0.51589,1.50424 -1.24404,3.25723 -1.61811,3.89552 -0.71557,1.22104 -2.36942,3.1525 -2.71304,3.16845 -0.11111,0.005 -0.4849,0.16619 -0.83064,0.35786 -0.89091,0.49389 -2.16794,0.47132 -3.28347,-0.058 -1.15642,-0.54877 -2.83479,-2.51995 -2.83479,-3.32936 v -0.58439 l 0.73706,0.80698 c 0.67916,0.74357 3.03493,2.40068 3.41286,2.40068 0.0895,0 1.02783,-0.50435 2.08509,-1.12078 l 1.9223,-1.12078 0.58528,-1.19433 c 1.01789,-2.07713 1.87082,-4.84136 2.01879,-6.54259 l 0.14299,-1.64409 -0.59251,-1.22395 c -0.89393,-1.84663 -3.67986,-3.69596 -5.41707,-3.59592 -2.1207,0.12212 -3.143,0.35953 -4.07115,0.94544 -2.11077,1.33248 -8.073407,7.14874 -8.913857,8.69505 -0.22081,0.40627 -0.45311,1.44967 -0.5162,2.31868 l -0.11472,1.58 0.55827,1.51778 c 0.30706,0.83478 0.7215,1.70575 0.92099,1.93549 0.1995,0.22974 0.36271,0.53892 0.36271,0.68707 0,0.29122 2.00045,2.57798 4.059377,4.64036 0.70469,0.70588 1.97922,1.63575 2.83231,2.06638 1.5853,0.80026 5.01456,2.16258 5.01456,1.9921 0,-0.052 0.50602,0.0572 1.12448,0.24275 1.61755,0.48518 4.23908,0.0837 5.5925,-0.85661 1.19193,-0.82806 2.31158,-1.51485 3.91652,-2.40239 0.61759,-0.34153 1.34779,-0.87731 1.62268,-1.19063 3.44814,-3.93019 3.70798,-8.34812 0.87182,-14.82373 -1.4811,-3.3817 -1.55338,-3.8614 -0.90051,-5.97657 0.97207,-3.14932 3.11034,-5.30254 6.85518,-6.90311 1.32482,-0.56624 2.54405,-1.139479 2.7094,-1.273859 0.27087,-0.22015 2.3385,-1.400015 3.34335,-1.907845 2.58936,-1.30863 5.28709,-2.45584 7.03591,-2.99204 1.17762,-0.36107 2.63981,-0.91642 3.24931,-1.23411 l 1.1082,-0.57762 2.04235,0.13915 c 1.1233,0.0765 2.68243,0.29297 3.46475,0.48098 l 1.42239,0.34183 0.74169,-0.8301 c 0.92506,-1.03532 1.25144,-2.87868 0.80514,-4.54736 -0.17409,-0.6509 -1.36001,-3.21374 -2.63538,-5.6952 l -2.31885,-4.51173 -1.57077,-0.85009 -1.57078,-0.85009 -1.43151,0.13338 c -0.78733,0.0734 -2.03749,0.382 -2.77813,0.68585 -0.74064,0.30385 -1.67403,0.6852 -2.07421,0.84743 -0.40019,0.16224 -0.72761,0.37109 -0.72761,0.46412 0,0.093 -0.22493,0.22796 -0.49984,0.29985 -0.69888,0.18276 -2.80766,2.94472 -3.16891,4.15046 -0.165,0.55072 -0.30173,1.82094 -0.30385,2.8227 -0.004,1.74901 -0.5126,3.81429 -1.1203,4.54653 -0.15888,0.19143 -0.81656,0.65731 -1.46151,1.03528 l -1.17264,0.68721 -1.2843,-0.0455 c -2.06611,-0.0731 -3.38014,-0.80835 -5.2849,-2.95701 -2.01131,-2.26885 -3.09983,-2.83441 -5.91303,-3.07221 l -2.00338,-0.16935 -1.23743,0.47258 c -1.57669,0.60214 -2.93509,1.83535 -4.95337,4.49686 -0.88363,1.16524 -2.20645,2.8506 -2.93959,3.74523 -0.73315,0.89464 -1.63065,2.05574 -1.99445,2.58023 -0.74164,1.069225 -2.31361,2.175845 -4.53407,3.191874 -1.759767,0.80522 -3.914287,0.91682 -5.892927,0.30524 -1.64049,-0.50706 -1.80026,-0.41924 -3.90482,2.14652 -3.25205,3.96469 -5.64773,7.38442 -5.92446,8.4569 -0.0678,0.26292 -0.42365,1.60913 -0.79069,2.99158 l -0.66734,2.51354 0.12065,3.175 c 0.34016,8.9518 2.47026,12.17563 10.91231,16.51538 1.88429,0.96865 3.77851,2.11969 4.20939,2.55788 1.747267,1.7769 6.765937,3.33062 10.523267,3.25787 1.13098,-0.0219 2.13303,0.0369 2.22678,0.13064 0.19673,0.19673 5.7964,-0.0219 9.86149,-0.38504 z m 61.64792,-10.4175 c 1.67349,-0.53145 4.10255,-1.14319 5.3979,-1.35942 2.40889,-0.4021 5.7146,-0.4362 5.7146,-0.0589 0,0.11559 0.77391,0.21016 1.71979,0.21016 1.03404,0 1.71979,-0.11173 1.71979,-0.2802 0,-0.15411 0.11907,-0.20661 0.26459,-0.11667 0.32607,0.20152 0.32759,-0.21087 0.0109,-2.96468 -0.1373,-1.19401 -0.43286,-2.52525 -0.65681,-2.95832 -0.59608,-1.1527 -2.63695,-3.13162 -3.92368,-3.80459 l -1.11897,-0.58523 -2.77813,-0.0522 -2.77812,-0.0522 -2.77813,0.62013 c -1.52797,0.34107 -3.61156,0.92626 -4.63021,1.30042 -3.22544,1.18472 -4.17528,0.89834 -7.18651,-2.1668 -1.14065,-1.16107 -2.55015,-2.3324 -3.13224,-2.60296 l -1.05833,-0.49193 h -2.5256 -2.5256 l -0.71605,0.46945 c -0.39382,0.2582 -1.03802,0.956 -1.43156,1.55067 l -0.71552,1.08122 0.0607,1.53647 c 0.0777,1.9661 0.61684,3.74805 1.47426,4.87218 l 0.67667,0.88716 2.58678,1.01639 c 1.42272,0.55901 2.70584,1.11979 2.85136,1.24617 0.14552,0.12638 1.81239,1.04137 3.70416,2.0333 l 3.43959,1.80352 2.64583,-0.0834 2.64583,-0.0834 z m 25.34571,-3.8394 c 3.00519,-0.80921 9.54396,-5.00287 9.98956,-6.40682 0.085,-0.26783 0.25171,-0.48697 0.37045,-0.48697 0.50668,0 0.99981,-2.9025 0.49764,-2.92901 -0.19378,-0.0102 -0.12555,-0.10754 0.15161,-0.21625 l 0.50392,-0.19765 -2.85109,-2.76032 c -4.29159,-4.15495 -8.426,-9.42985 -9.00697,-11.49156 -0.29213,-1.03667 -0.4494,-1.9455 -0.49221,-2.84427 l -0.0347,-0.727599 -0.59531,-0.0331 c -0.32743,-0.0182 -0.68461,-0.0577 -0.79375,-0.0877 -0.10914,-0.0301 -0.5031,-0.14143 -0.87546,-0.2475 -0.37236,-0.10607 -0.84861,-0.22721 -1.05834,-0.2692 -0.20972,-0.042 -0.5599,-0.1525 -0.77818,-0.24558 -0.21828,-0.0931 -1.18378,-0.27831 -2.14554,-0.41161 -2.63159,-0.364725 -5.29261,-1.724625 -7.73753,-3.954215 -1.14283,-1.04217 -2.15486,-1.89061 -2.24896,-1.88543 -0.0941,0.005 -0.88547,0.19394 -1.7586,0.41944 -0.87312,0.22551 -1.88515,0.40428 -2.24896,0.39726 -1.09364,-0.0211 -3.47607,-0.3063 -5.09415,-0.6098 l -1.52228,-0.28554 -1.65272,0.45429 c -3.98355,1.09498 -5.1224,3.02849 -3.5607,6.045235 0.28653,0.55349 0.58137,1.542219 0.65519,2.197169 l 0.13422,1.19082 -0.99594,0.91224 -0.99594,0.91224 2.02003,1.99398 c 2.34056,2.31039 3.8323,3.0764 6.0009,3.08147 l 1.47089,0.003 2.10098,-1.1304 c 1.15554,-0.62172 2.57723,-1.37777 3.15932,-1.68011 l 1.05833,-0.5497 2.18627,0.0253 c 2.19912,0.0255 3.82554,0.38355 7.42235,1.63421 2.27809,0.79213 3.06119,1.35118 3.733,2.66498 0.27201,0.53195 0.83424,1.27705 1.24939,1.65579 1.2977,1.18388 4.43724,4.5577 5.20276,5.59102 2.31497,3.12478 1.52028,6.75324 -2.15473,9.83823 -0.67918,0.57015 -1.03396,0.96369 -0.7884,0.87456 0.24556,-0.0891 0.91318,-0.28775 1.48361,-0.44135 z m 28.03397,-5.5272 c 0.32742,-0.17978 0.59531,-0.25344 0.59531,-0.16369 0,0.25118 1.92117,-0.97488 2.48539,-1.58615 0.66644,-0.722 3.86461,-5.6226 3.86461,-5.92178 0,-0.40541 1.84105,-4.24025 2.11778,-4.41128 0.14491,-0.0896 0.26347,-0.38543 0.26347,-0.65749 0,-0.27205 0.16288,-0.65753 0.36198,-0.85662 0.19907,-0.19908 0.45289,-0.65407 0.56401,-1.01108 0.1111,-0.35702 0.6404,-1.54209 1.17618,-2.6335 0.65728,-1.33888 1.11615,-2.802 1.41065,-4.49791 0.88263,-5.082404 1.59814,-13.650004 1.3479,-16.139584 -0.0951,-0.94588 -0.16275,-1.93792 -0.15034,-2.20453 0.0124,-0.26661 -0.0895,-0.77941 -0.22646,-1.13957 -0.17007,-0.44737 -0.12226,-1.26823 0.15098,-2.59107 0.51485,-2.49251 0.87735,-6.23567 0.60388,-6.23567 -0.11642,0 -0.21169,-0.28311 -0.21169,-0.62915 0,-0.73234 -0.48938,-1.9952 -1.70426,-4.397926 -0.47826,-0.94589 -1.20002,-2.73183 -1.60388,-3.96875 -1.11392,-3.41149 -2.27031,-5.51064 -4.68924,-8.51222 -0.50752,-0.62979 -1.64867,-2.23362 -2.53584,-3.56406 -1.07326,-1.6095 -2.26873,-2.98187 -3.57235,-4.10105 -1.07763,-0.92513 -2.44184,-2.39642 -3.0316,-3.26955 -1.37349,-2.03339 -4.29408,-7.59596 -4.29408,-8.17852 0,-0.73503 -2.38798,-2.86847 -4.36562,-3.90028 -3.31181,-1.7279 -7.27604,-4.29022 -7.27604,-4.70293 0,-0.39296 -5.12541,-5.47632 -6.35128,-6.29917 -0.65555,-0.44003 -1.78664,-1.09956 -2.51355,-1.46563 -2.89535,-1.45809 -3.57059,-1.84309 -3.57059,-2.0358 0,-0.30067 -1.95384,-0.98255 -4.61492,-1.61058 -1.30128,-0.30711 -3.20974,-1.00543 -4.24102,-1.55182 l -1.87505,-0.99344 -3.82877,-0.17563 c -2.10583,-0.0966 -4.18597,-0.0749 -4.62253,0.0481 l -0.79375,0.22376 0.83246,0.18856 c 0.91894,0.20814 1.52329,0.77221 1.79991,1.67992 0.0998,0.32742 0.29756,0.59531 0.43952,0.59531 0.14196,0 0.87808,0.46234 1.63582,1.02742 0.75774,0.56508 2.86599,1.88725 4.685,2.93816 1.81901,1.0509 4.14073,2.58262 5.15937,3.40382 1.01865,0.8212 1.94138,1.46356 2.05052,1.42747 0.10914,-0.0361 0.17036,0.0237 0.13603,0.13281 -0.0343,0.10915 0.43127,0.86354 1.03464,1.67643 1.39719,1.88234 3.03059,4.60444 3.47913,5.79805 0.37094,0.98713 0.36756,0.97557 0.69217,2.36627 0.11696,0.50107 0.37673,1.07513 0.57727,1.27567 0.598,0.59799 0.18246,4.01209 -0.44139,3.62653 -0.1398,-0.0864 -0.21786,0.22115 -0.17869,0.7041 l 0.0695,0.85752 0.9206,0.0958 c 4.24874,0.4422 7.5346,1.32946 8.05764,2.17574 0.24875,0.40249 1.71694,1.00039 3.18712,1.29791 0.73058,0.14785 1.68308,0.4538 2.11667,0.67988 0.43358,0.22609 0.9074,0.41667 1.05292,0.42353 0.60442,0.0285 2.3641,1.55683 2.90512,2.52323 0.32005,0.57169 0.6903,1.04814 0.82277,1.05877 0.53232,0.0427 4.42416,1.99136 5.79663,2.90235 1.27658,0.84736 3.11144,2.90049 3.20855,3.59026 0.0182,0.12921 0.048,0.33688 0.0661,0.46147 0.0183,0.12459 0.43873,0.75781 0.93454,1.40714 0.4958,0.64933 1.46746,2.1845 2.15923,3.41148 2.3495,4.16722 2.7444,4.87558 3.41077,6.11828 1.03273,1.92584 1.98374,5.510786 1.84304,6.947526 -0.15941,1.62785 -1.31736,3.81587 -2.20181,4.16044 -0.89347,0.34808 -3.33362,0.0971 -4.66759,-0.48014 -0.57653,-0.24946 -1.18592,-0.47988 -1.35419,-0.51203 -0.5464,-0.10441 -2.62517,-1.79698 -3.35151,-2.72883 -0.38932,-0.49948 -0.90136,-1.57367 -1.13788,-2.38709 -0.96171,-3.307446 -2.10927,-5.633546 -3.38262,-6.856526 l -1.08244,-1.03963 -2.9714,-1.10968 c -1.63427,-0.61032 -3.08754,-1.03789 -3.2295,-0.95016 -0.14196,0.0877 -0.68006,-0.0168 -1.19579,-0.23227 -0.51573,-0.21549 -0.93769,-0.34048 -0.93769,-0.27775 0,0.15857 -4.60895,-1.52785 -6.2177,-2.27507 -1.27521,-0.5923 -4.43563,-3.54262 -5.95313,-5.55737 -1.91054,-2.53659 -2.02208,-6.48719 -0.2753,-9.75108 l 0.28093,-0.52493 -1.39188,0.14229 c -0.76553,0.0783 -1.74906,0.26043 -2.18562,0.40483 -0.43657,0.1444 -1.65603,0.49303 -2.70993,0.77473 -2.39227,0.63944 -6.02994,2.39762 -7.07966,3.4218 -0.80127,0.78177 -1.55792,2.13964 -2.94568,5.28625 -1.95857,4.44088 -4.21937,6.85911 -9.10941,9.74378 -3.10469,1.83147 -5.51765,5.20196 -5.94415,8.302946 l -0.18687,1.35869 -1.87537,1.94626 c -2.06031,2.13821 -3.86058,3.42202 -5.16426,3.68275 -0.4657,0.0931 -0.91201,0.27497 -0.9918,0.40407 -0.0798,0.1291 -0.2559,0.16623 -0.39137,0.0825 -0.13546,-0.0837 -0.39303,-0.0615 -0.57237,0.0493 -1.00187,0.61919 -4.69764,0.47035 -6.84255,-0.27558 -1.00496,-0.34949 -1.82721,-0.57936 -1.82721,-0.51082 0,0.0685 -0.41672,-0.31724 -0.92604,-0.85728 -0.50932,-0.54003 -0.92678,-1.1736 -0.92767,-1.40791 -8e-4,-0.2343 -0.17569,-0.75972 -0.38843,-1.16758 l -0.3868,-0.74157 0.0862,-4.5501 c 0.0925,-4.879886 0.17255,-5.254436 1.69926,-7.948636 1.22134,-2.1553 2.13291,-3.09089 5.47367,-5.61786 1.60073,-1.21081 3.20206,-2.51687 3.5585,-2.90236 0.85579,-0.92553 3.04406,-2.37916 5.93081,-3.93975 1.29006,-0.69742 2.56998,-1.49244 2.84427,-1.76673 0.27429,-0.27429 0.49871,-0.42965 0.49871,-0.34525 0,0.0844 0.7239,-0.57044 1.60867,-1.45521 0.88476,-0.88477 1.76953,-1.60867 1.96615,-1.60867 0.52208,0 3.23609,-3.97216 4.02545,-5.89157 l 0.67818,-1.64905 0.0179,-2.77813 c 0.0325,-5.0381 -1.6099,-10.62181 -4.4905,-15.26627 -0.3955,-0.63767 -3.54507,-3.22603 -4.59962,-3.78003 -0.3638,-0.19113 -0.72099,-0.43637 -0.79375,-0.545 -0.28062,-0.41895 -6.22049,-1.55634 -7.40833,-1.41859 -1.01491,0.1177 -11.79739,2.31876 -12.56771,2.56549 -0.14552,0.0466 -0.63355,0.28036 -1.08451,0.51945 -0.94409,0.50054 -2.27975,0.82468 -5.26549,1.27787 -3.24053,0.49187 -4.27433,1.25201 -5.57754,4.10113 -0.34449,0.75312 -1.44506,2.60414 -2.44571,4.11337 -2.83854,4.2812 -2.87826,4.43773 -1.76504,6.95492 0.36451,0.82422 0.96356,2.89286 1.33123,4.59698 0.73338,3.39918 1.17477,4.81818 1.49875,4.81818 0.11629,0 0.21143,0.22101 0.21143,0.49112 0,0.82894 1.75758,2.8567 2.9672,3.42332 2.50129,1.17168 3.05319,1.37845 4.70572,1.76298 5.06867,1.17944 7.82762,0.24309 13.28594,-4.50904 2.62122,-2.28208 4.4423,-3.54963 5.09975,-3.54963 0.48293,0 1.98723,-1.38065 1.98723,-1.82389 0,-0.17126 0.18473,-0.59333 0.41052,-0.93793 0.51567,-0.78702 0.67235,-3.1735 0.28212,-4.29732 -0.342,-0.98495 -2.39941,-2.63323 -4.79369,-3.84044 -1.93395,-0.97511 -3.203,-1.90492 -3.59203,-2.63184 l -0.29185,-0.54532 0.73628,-0.76851 c 1.71991,-1.7952 6.04434,-1.74108 7.97126,0.0998 1.47289,1.40709 1.63021,2.51742 1.32288,9.33678 l -0.10801,2.39649 -0.6812,1.48793 c -1.00741,2.20049 -3.65882,4.7973 -6.2845,6.15509 -0.45774,0.2367 -1.56151,1.01802 -2.45283,1.73625 -0.89131,0.71823 -1.83489,1.30587 -2.09684,1.30587 -0.33164,0 -0.47628,0.20087 -0.47628,0.66146 v 0.66146 h -0.52917 c -0.29104,0 -0.52916,0.0904 -0.52916,0.20093 0,0.41028 -1.22754,0.94702 -2.51174,1.09826 -3.52429,0.41506 -7.80701,-0.1451 -7.80701,-1.02111 0,-0.15295 -0.17377,-0.27808 -0.38614,-0.27808 -0.84146,0 -4.42247,-1.80975 -5.43531,-2.74686 -2.00206,-1.85238 -2.70248,-3.3718 -3.30751,-7.17502 -0.34581,-2.1738 -1.89449,-7.02238 -2.23701,-7.00359 -0.0789,0.004 -0.56013,0.73759 -1.06945,1.62948 -1.5169,2.65626 -2.92043,4.01531 -5.36514,5.19513 -4.41482,2.13059 -8.36113,1.97475 -12.77327,-0.50444 -1.48102,-0.83219 -4.4354,-3.75545 -4.72839,-4.67859 -0.10319,-0.32511 -0.28207,-0.59111 -0.39752,-0.59111 -0.11545,0 -0.4614,-0.80367 -0.76876,-1.78594 l -0.55885,-1.78594 0.11185,-1.86609 c 0.12069,-2.01341 0.41165,-3.01675 1.14529,-3.94943 0.25693,-0.32662 0.81992,-1.47347 1.25109,-2.54855 0.43117,-1.07507 1.46306,-3.14477 2.29309,-4.59933 l 1.50915,-2.64466 -0.58271,-0.22074 c -0.78274,-0.29651 -3.99094,-0.96425 -5.52851,-1.15069 -1.82225,-0.22095 -10.185837,1.98644 -11.139407,2.94 -0.18346,0.18347 -0.80653,0.48653 -1.3846,0.67348 -0.57806,0.18694 -1.36449,0.49841 -1.74763,0.69216 -0.38313,0.19374 -1.03797,0.41378 -1.45521,0.48898 -1.12301,0.20239 -7.5751,2.49138 -7.87889,2.79516 -0.14387,0.14387 -0.47589,0.26159 -0.73783,0.26159 -0.26194,0 -0.47625,0.10549 -0.47625,0.23443 0,0.12894 -0.41948,0.4335 -0.93218,0.67679 -0.5127,0.24329 -0.86656,0.54854 -0.78634,0.67833 0.0802,0.12979 -0.0956,0.36521 -0.39074,0.52315 -0.29512,0.15794 -0.53657,0.5211 -0.53657,0.80702 0,0.28592 -0.24083,0.76069 -0.53517,1.05503 -0.68418,0.68417 -1.01163,0.57814 4.37162,1.41559 3.04569,0.4738 5.50966,1.12223 6.83645,1.7991 3.35604,1.71213 6.0784,6.88135 7.2914,13.84493 0.27883,1.60073 0.658587,3.75711 0.843907,4.79195 l 0.33692,1.88153 -0.44444,0.93658 c -0.24444,0.51512 -0.444437,1.04374 -0.444437,1.17471 0,0.13098 -0.47504,0.9692 -1.05564,1.86272 -1.13541,1.74736 -2.19729,2.68574 -3.77673,3.33747 -0.54775,0.22602 -1.06624,0.59423 -1.1522,0.81824 -0.086,0.22402 -0.26289,0.34143 -0.39316,0.26092 -0.13027,-0.0805 -0.23686,-0.0394 -0.23686,0.0915 0,0.13082 -0.45222,0.38709 -1.00492,0.5695 -1.73513,0.57265 -2.10451,1.03677 -2.83277,3.55933 -0.8383,2.90371 -1.65167,4.64971 -3.02109,6.48515 -1.76055,2.35967 -5.56655,6.427696 -7.35564,7.862036 -2.0958,1.68024 -5.67438,3.13264 -7.54756,3.06324 l -0.46302,-0.0171 v 1.98306 c 0,2.41854 0.4368,4.33405 0.98831,4.33405 0.26622,0 0.35084,0.17392 0.25778,0.52979 -0.0826,0.31578 0.0229,0.62014 0.26113,0.75346 l 0.39967,0.22367 -0.32295,0.51714 -0.32296,0.51713 0.68338,1.34859 c 1.81042,3.57268 2.42458,6.83276 1.7447,9.26107 -0.19541,0.69792 -0.33994,1.32847 -0.32117,1.40123 0.0188,0.07279 -0.13853,0.228905 -0.34954,0.346985 -0.21101,0.11809 -0.31458,0.32645 -0.23017,0.46303 0.0844,0.13657 0.0418,0.24832 -0.0946,0.24832 -0.13646,0 -0.39418,0.35264 -0.57271,0.783659 -0.36943,0.89188 -2.20918,2.61609 -4.24547,3.97884 -0.76105,0.50932 -1.60589,1.1339 -1.87741,1.38795 -0.27151,0.25405 -0.88162,0.67077 -1.35578,0.92604 -0.47416,0.25528 -1.2438,0.73674 -1.71032,1.06993 -1.01136,0.72233 -5.861255,2.29696 -8.277697,2.68756 -0.945885,0.15289 -2.068951,0.37382 -2.495701,0.49095 l -0.775909,0.21297 1.122077,0.77949 c 0.617141,0.42871 1.689,1.21902 2.381904,1.75624 0.692906,0.53721 1.549161,1.01648 1.90279,1.06503 0.353632,0.0486 0.762027,0.15761 0.907548,0.24236 0.993808,0.57873 7.545088,1.81182 8.064148,1.51783 0.4384,-0.24831 8.91474,-2.08219 9.624,-2.08219 0.2397,0 0.43581,-0.11907 0.43581,-0.26459 0,-0.14552 0.1626,-0.26458 0.36133,-0.26458 0.19873,0 1.20377,-0.42146 2.23343,-0.93658 2.05472,-1.02793 5.00286,-3.61005 6.93024,-6.06984 0.65484,-0.83573 2.06466,-2.58675 3.13292,-3.89116 1.06827,-1.3044 1.90171,-2.40146 1.85209,-2.43791 -0.0496,-0.0365 -0.98388,-0.3861 -2.07613,-0.776999 -2.76012,-0.98782 -3.56895,-1.543255 -4.60443,-3.161975 -1.30002,-2.03225 -1.78363,-3.31189 -1.84024,-4.86927 -0.0275,-0.75566 -0.13612,-1.46012 -0.24145,-1.56545 -1.09238,-1.09237 1.51456,-6.04392 4.96473,-9.42987 1.0009,-0.98227 1.91225,-1.78594 2.02524,-1.78594 0.11298,0 2.38314,-2.15389 5.04478,-4.78641 l 4.83937,-4.786406 1.455207,-0.65865 c 0.80037,-0.36225 1.69333,-0.76016 1.98437,-0.88424 2.07267,-0.88363 2.66895,-1.28327 3.86141,-2.58801 l 1.34432,-1.47091 -0.1087,-0.74065 c -0.0795,-0.54168 -0.0259,-0.67191 0.1996,-0.48478 0.16957,0.14073 0.37873,0.18545 0.4648,0.0994 0.0861,-0.0861 0.28259,-0.0786 0.43671,0.0167 0.26317,0.16265 -0.15217,1.15223 -1.10768,2.6391 -0.64747,1.00752 -2.87188,3.01549 -3.83937,3.46579 -0.54258,0.25253 -1.45535,0.6816 -2.02839,0.953486 -0.57303,0.27189 -1.20008,0.49434 -1.39343,0.49434 -0.19336,0 -1.331857,0.93282 -2.529997,2.07292 -1.19814,1.14011 -4.4137,4.1947 -7.14569,6.78799 l -4.96725,4.71506 -1.35419,2.40223 -1.35419,2.40224 0.34098,2.12072 c 0.76564,4.76181 2.15522,6.65117 5.81961,7.912755 l 1.19063,0.40992 0.97287,-0.2617 c 1.03438,-0.278245 2.04806,-1.298985 2.84889,-2.868735 0.60132,-1.17868 0.68685,-1.89765 0.42835,-3.60068 -0.11044,-0.7276 -0.23207,-1.56104 -0.27029,-1.85208 -0.29406,-2.23904 2.95436,-7.95734 6.502107,-11.4459 2.23983,-2.20247 3.00626,-2.7142 5.62292,-3.75439 1.03775,-0.41252 3.12307,-1.35818 4.63406,-2.10145 1.51098,-0.74327 2.90004,-1.3514 3.0868,-1.3514 0.18676,0 0.38542,-0.13755 0.44146,-0.30567 0.13961,-0.41882 6.31838,-0.45299 7.87971,-0.0436 0.65484,0.17172 1.75406,0.45449 2.44271,0.62839 l 1.25208,0.31618 2.17527,-0.33839 c 1.94865,-0.30314 3.53298,-0.92629 4.33214,-1.70394 0.31053,-0.30217 2.58775,-3.680686 3.52987,-5.236976 0.33144,-0.5475 0.66327,-1.38093 0.73739,-1.85208 0.0741,-0.47115 0.22366,-0.91617 0.33229,-0.98893 0.10864,-0.0728 0.5609,-1.22226 1.00503,-2.55445 l 0.80752,-2.42216 -0.45966,-0.75284 c -0.25282,-0.41406 -1.47456,-1.71232 -2.71499,-2.88501 l -2.25532,-2.13218 -2.21873,-1.09048 -2.21873,-1.09047 -2.11667,-0.0674 c -1.50728,-0.048 -2.76413,0.1005 -4.36562,0.51579 -3.44128,0.89238 -5.81065,1.66534 -5.98891,1.95377 -0.0886,0.14337 -0.5568,0.42601 -1.04043,0.62808 -0.61736,0.25795 -1.24932,0.93936 -2.1213,2.2873 -0.68308,1.05594 -1.82067,2.49555 -2.52796,3.19914 -0.7073,0.70358 -1.28599,1.43816 -1.28599,1.6324 0,0.19424 -0.0942,0.39285 -0.2094,0.44136 -0.11516,0.0485 -0.54419,0.53228 -0.95338,1.07506 l -0.74399,0.98686 -0.47796,-0.25579 c -0.75789,-0.40562 -0.40222,-1.02008 2.1352,-3.6888 1.30141,-1.36875 2.3662,-2.57807 2.3662,-2.68738 0,-0.10931 0.14883,-0.35896 0.33073,-0.55477 0.86417,-0.93025 2.57726,-3.10458 3.02138,-3.83487 0.63633,-1.04636 2.49979,-2.60116 4.04014,-3.37094 1.74978,-0.87443 3.20571,-1.03008 4.93448,-0.52752 0.80293,0.23343 1.62225,0.36209 1.82072,0.28593 0.19846,-0.0762 0.42611,0.0316 0.50588,0.2395 0.0798,0.20788 0.41705,0.37097 0.7495,0.36242 1.61877,-0.0416 2.71724,0.33343 5.47067,1.86788 3.05148,1.70055 5.95744,4.07663 6.25489,5.11437 0.0912,0.31808 0.34623,0.9774 0.5668,1.46515 0.22056,0.48775 0.39661,1.45608 0.39122,2.15184 l -0.01,1.26503 -1.20602,2.26784 c -0.66331,1.24731 -1.20601,2.46285 -1.20601,2.70121 0,0.23836 -0.23813,0.7361 -0.52917,1.1061 -0.29104,0.37 -0.52917,0.86616 -0.52917,1.10257 0,0.23641 -0.24972,0.58579 -0.55493,0.7764 -0.30521,0.19061 -0.49373,0.40777 -0.41892,0.48257 0.0748,0.0748 -0.0922,0.36421 -0.37111,0.64312 -0.27893,0.27892 -0.50713,0.745246 -0.50713,1.036286 0,0.29104 -0.12701,0.52916 -0.28225,0.52916 -0.15523,0 -0.72078,0.41569 -1.25677,0.92375 -0.86672,0.82156 -1.19665,0.98713 -1.80484,0.90574 -0.0929,-0.0124 -0.24169,0.0827 -0.33073,0.21132 -0.55453,0.80134 -5.21859,1.33769 -6.38543,0.73429 -0.99482,-0.51444 -5.54819,-1.20827 -6.92094,-1.05459 -0.62865,0.0704 -1.58386,0.17446 -2.12268,0.23129 -0.53883,0.0568 -2.02712,0.67002 -3.3073,1.36264 -1.28019,0.69261 -3.27122,1.60034 -4.42453,2.01719 -2.99877,1.08385 -4.23725,1.89221 -6.63327,4.32953 -2.226677,2.26504 -4.373297,5.51543 -5.206637,7.88383 l -0.48301,1.37273 0.15797,2.51354 c 0.11485,1.82736 0.0565,2.80246 -0.21365,3.57188 -0.42969,1.22371 -2.24056,3.836455 -2.65902,3.836455 -0.87161,0 0.30716,0.34328 2.26962,0.66096 3.43673,0.556339 6.051417,-0.37491 8.266507,-2.944205 1.19077,-1.38119 4.03879,-5.06132 4.74633,-6.13308 0.14552,-0.22043 0.47294,-0.61959 0.7276,-0.88702 0.25466,-0.26743 0.46302,-0.6053 0.46302,-0.75082 0,-0.14552 0.14883,-0.26672 0.33073,-0.26934 0.1819,-0.003 0.70869,-0.58295 1.17064,-1.28964 0.5832,-0.89217 1.23013,-1.477 2.11667,-1.91347 l 1.27676,-0.62859 h 2.11667 c 2.12318,0 4.92531,0.67394 5.61538,1.35056 0.17804,0.17457 0.71382,0.56179 1.19062,0.86049 0.4768,0.2987 1.39142,1.15761 2.03249,1.90867 1.34804,1.57935 2.42678,2.11943 3.88428,1.9447 1.59946,-0.19175 2.58693,-0.77876 3.22759,-1.91866 l 0.5861,-1.04281 v -2.0718 c 0,-4.24861 2.07931,-7.29716 6.2177,-9.11599 1.48497,-0.65264 4.07575,-1.28454 5.32418,-1.29859 1.11353,-0.0125 2.98944,0.8489 3.83299,1.76014 0.98786,1.06712 4.59575,7.33604 5.30098,9.21079 0.32845,0.87312 0.66255,1.64703 0.74243,1.71979 0.53142,0.484 -0.0869,4.22341 -0.8659,5.23673 -0.38015,0.4945 -0.0382,0.71072 2.20178,1.39209 1.09141,0.33199 2.54597,0.88132 3.23235,1.22073 0.68639,0.33942 1.51983,0.62116 1.85209,0.62609 0.33226,0.005 1.08035,0.23903 1.66244,0.52019 0.58208,0.28117 1.16757,0.51526 1.30109,0.52019 0.13352,0.005 1.6218,0.995735 3.30729,2.201764 4.21586,3.01661 4.3633,3.09888 5.55376,3.09888 h 1.05264 l 0.41188,-0.58804 c 0.55729,-0.79564 0.52244,-1.21279 -0.24657,-2.951659 -0.36215,-0.81888 -0.72322,-1.935015 -0.80239,-2.480315 l -0.14394,-0.99144 0.60835,-1.05117 c 1.27772,-2.20776 4.78884,-3.49997 8.27247,-3.04456 0.88612,0.11585 3.01616,0.0845 4.82112,-0.071 l 3.23362,-0.27851 -0.83192,-0.9475 c -0.45755,-0.52112 -1.45416,-1.51619 -2.21469,-2.21127 -0.99206,-0.9067 -1.70683,-1.91731 -2.52969,-3.57677 l -1.14693,-2.313 -0.004,-2.86532 -0.004,-2.86532 0.39688,-0.30969 c 0.21828,-0.17032 0.91788,-0.99496 1.55467,-1.83251 2.24401,-2.95151 7.31928,-7.292866 9.02866,-7.723046 0.0728,-0.0183 0.37042,-0.16569 0.66146,-0.3275 1.65364,-0.91942 3.98853,-1.39093 7.66493,-1.54788 2.29132,-0.0978 3.99828,-0.0602 4.28845,0.0946 0.26512,0.14142 0.83922,0.29452 1.27579,0.34021 0.43656,0.0457 0.94258,0.19146 1.12448,0.32392 0.1819,0.13246 0.33073,0.16523 0.33073,0.0728 0,-0.265 3.53895,1.58647 4.39105,2.29727 0.42258,0.3525 1.3041,0.88798 1.95895,1.189956 1.67096,0.77056 2.62911,1.75986 4.10106,4.23437 1.56769,2.63547 3.38383,4.75341 4.17216,4.86544 0.34568,0.0491 0.59161,0.27102 0.59343,0.53544 0.008,1.19596 2.73213,3.05062 5.95001,4.05131 4.25592,1.32351 6.68355,2.96608 7.91865,5.35791 0.28038,0.54294 0.72568,1.40387 0.98954,1.9132 l 0.4798,0.92604 0.003,4.01224 c 0.003,2.20673 0.0917,4.101805 0.20079,4.211285 0.10914,0.10947 0.18658,0.566149 0.17206,1.014839 l -0.0265,0.81579 -0.22016,-0.66145 -0.22016,-0.66146 0.0204,1.5875 c 0.0114,0.87312 0.13676,1.73633 0.27893,1.91823 0.17518,0.22411 0.15703,0.33073 -0.0563,0.33073 -0.18986,0 -0.2509,0.20131 -0.1538,0.50722 0.25575,0.80582 -0.57391,3.87244 -1.6056,5.93467 -1.34572,2.68995 -4.92969,7.58558 -6.47126,8.83959 -0.7194,0.58521 -1.84399,1.22227 -2.49907,1.4157 l -1.19109,0.35167 v 0.53911 c 0,1.37745 5.57349,2.09296 7.60676,0.97654 z m -6.35463,-2.97439 c 0.53186,-0.17553 1.20453,-0.54042 1.49483,-0.81088 0.2903,-0.27045 0.62738,-0.49173 0.74906,-0.49173 0.12168,0 0.33916,-0.31016 0.48328,-0.68924 0.14414,-0.37907 1.5625,-2.69025 3.15195,-5.13594 1.58943,-2.44568 3.00911,-4.90373 3.15484,-5.46232 0.15489,-0.5938 0.23842,-4.15504 0.20106,-8.574294 l -0.0639,-7.55867 -0.55727,-0.77571 c -1.1449,-1.59374 -2.08722,-2.25314 -3.78618,-2.64948 -4.52977,-1.05672 -10.81052,-6.2434 -14.70655,-12.14475 -2.49956,-3.78611 -4.34046,-5.26359 -9.36495,-7.516176 -1.09141,-0.4893 -2.1888,-0.99216 -2.43865,-1.11747 -0.25914,-0.12998 -0.73046,-0.12283 -1.09727,0.0166 -0.35365,0.13446 -0.71562,0.17186 -0.80437,0.0831 -0.18161,-0.18161 -6.73877,-0.15332 -7.32227,0.0316 -0.20679,0.0655 -0.55457,0.11216 -0.77286,0.10361 -0.68293,-0.0268 -4.53828,1.89406 -6.20838,3.093136 -0.87825,0.63056 -2.76576,2.40802 -4.19446,3.94991 l -2.59763,2.80343 -0.41602,2.44893 -0.41603,2.44892 0.98916,2.09388 c 1.11985,2.37051 2.86138,4.37125 5.35835,6.15588 l 1.64311,1.17436 0.77568,-0.57348 c 1.22687,-0.90706 1.7924,-1.86601 1.9643,-3.33076 0.40383,-3.44103 3.72193,-7.51337 7.09008,-8.70173 0.61904,-0.21841 1.28621,-0.53046 1.4826,-0.69345 0.22382,-0.18575 1.03278,-0.248 2.16767,-0.1668 2.02127,0.14462 4.12909,1.0273 5.48033,2.29496 0.44859,0.42085 1.28203,1.00693 1.85208,1.30241 3.50226,1.81535 5.02802,3.58153 9.58856,11.09941 2.81892,4.64689 3.23247,5.94095 2.83578,8.873444 l -0.20784,1.53647 -0.6018,0.39431 c -0.33099,0.21688 -0.92646,0.8628 -1.32327,1.43539 -0.40748,0.588 -1.17058,1.23923 -1.75343,1.49638 -1.31989,0.58234 -1.47965,1.19041 -1.22476,4.66156 0.10896,1.48377 0.21905,3.51521 0.24465,4.51431 l 0.0466,1.81656 0.65013,0.77263 c 1.62968,1.93678 5.51749,2.76074 8.45381,1.79166 z M 136.51,119.17876 c -0.18116,-0.21828 -0.25504,-0.39688 -0.16418,-0.39688 0.0909,0 -0.0732,-0.44472 -0.36448,-0.98827 -0.29132,-0.54355 -0.52968,-1.09397 -0.52968,-1.22317 0,-0.58751 -2.45625,-3.61813 -3.05401,-3.76816 -1.28638,-0.32286 -2.15635,0.75054 -1.80545,2.22765 0.18856,0.79374 1.92444,2.56618 2.77883,2.83735 0.30575,0.097 1.0478,0.51735 1.649,0.93403 0.6012,0.41668 1.2565,0.76136 1.45622,0.76596 l 0.36313,0.008 z m 83.20642,-4.43177 c -0.035,-0.47295 -0.14639,-2.05052 -0.24757,-3.50573 -0.10116,-1.45521 -0.31026,-3.08342 -0.46464,-3.61825 l -0.28071,-0.97241 -3.04071,0.11673 c -1.6724,0.0642 -3.17426,0.0143 -3.33748,-0.111 -1.04774,-0.80397 -1.06572,-0.38982 -0.0593,1.36705 1.05866,1.84814 6.48749,7.56102 7.2002,7.57694 0.16919,0.004 0.26688,-0.35827 0.23025,-0.85333 z M 49.177474,109.1002 c -0.88196,-0.94303 -4.962033,-3.62474 -5.933099,-3.89964 -0.436562,-0.12359 -0.950322,-0.35405 -1.14169,-0.51213 -0.191368,-0.15807 -0.608087,-0.31065 -0.926042,-0.33906 -0.317955,-0.0284 -0.965054,-0.14135 -1.437997,-0.25098 l -0.859896,-0.19932 v 0.55342 c 0,0.72866 1.441993,2.14563 2.919831,2.86916 2.81728,1.3793 5.868077,2.3889 7.378893,2.4419 l 0.641434,0.0225 z m 3.680095,-0.14883 c 0.04851,-0.12301 0.703352,-0.22548 1.455208,-0.22771 6.182776,-0.0184 16.183146,-5.56277 18.645676,-10.337524 l 0.8453,-1.63899 v -2.03878 -2.03879 l -0.76064,-2.09124 c -0.41834,-1.15018 -1.14732,-2.92468 -1.61993,-3.94332 -0.87811,-1.89261 -1.46037,-4.94226 -1.3828,-7.24259 l 0.039,-1.15717 -1.37897,0.18955 c -0.75844,0.10425 -1.94102,0.1857 -2.62797,0.18099 -2.65622,-0.0182 -8.486854,-2.2028 -9.875073,-3.69993 -0.807016,-0.87033 -0.879557,-0.29247 -0.119729,0.95376 0.290497,0.47646 0.528177,0.99299 0.528177,1.14783 0,0.52946 1.525818,3.5407 2.331088,4.60048 0.442297,0.58208 1.344917,1.76504 2.005817,2.62879 0.82393,1.07682 1.25615,1.93392 1.37504,2.7267 0.21376,1.42547 0.009,3.76933 -0.34849,3.99927 -0.14578,0.0936 -0.34515,0.42708 -0.44304,0.741 -0.51255,1.64358 -3.861764,4.60785 -5.833693,5.16319 -2.884675,0.81238 -5.01156,0.0486 -6.751066,-2.4245 l -0.652886,-0.92821 -0.0086,-1.98437 -0.0086,-1.98438 0.630309,-1.48832 0.630307,-1.48832 -0.180706,-1.20503 c -0.227811,-1.51916 -0.969486,-2.47331 -2.182984,-2.80837 l -0.946714,-0.2614 -1.488649,0.76872 c -0.818755,0.4228 -1.37981,0.77446 -1.246788,0.78146 0.133022,0.007 -0.313719,0.44557 -0.992759,0.9746 -0.679037,0.52904 -1.460907,1.33271 -1.737484,1.78594 -0.713999,1.17004 -1.453695,3.01861 -1.044374,2.61 0.405032,-0.40434 0.754634,-0.42775 0.754634,-0.0505 0,0.1541 -0.106587,0.21432 -0.23686,0.13381 -0.13027,-0.0805 -0.308025,0.0391 -0.395005,0.26574 -0.08844,0.23048 -0.293602,0.3284 -0.465481,0.22218 -0.191079,-0.1181 -0.235921,-0.0744 -0.118544,0.11552 0.103833,0.168 0.0627,0.30546 -0.09141,0.30546 -0.154109,0 -0.259164,0.0893 -0.233458,0.19844 0.02572,0.10914 -0.09117,0.67929 -0.259722,1.26699 -0.168553,0.5877 -0.374624,1.95692 -0.457936,3.04271 -0.08331,1.08578 -0.193318,2.4504 -0.244459,3.03249 -0.146812,1.670995 0.313788,4.146204 0.876202,4.708614 0.282146,0.28215 0.95196,0.53315 1.52759,0.57243 0.900264,0.0614 1.735855,0.44053 5.523042,2.50564 1.241865,0.67717 2.791921,1.74046 4.229307,2.90115 l 1.318892,1.06502 0.665483,-0.16268 c 0.366016,-0.0895 0.705173,-0.26332 0.753679,-0.38632 z m 165.673261,-3.50135 0.66146,-0.0728 0.0895,-0.76616 c 0.18703,-1.60064 -0.52914,-3.8533 -1.67113,-5.256419 -2.14305,-2.633095 -4.6538,-2.607095 -8.11199,0.084 l -1.22693,0.954759 0.0477,0.67902 c 0.12306,1.75377 1.31334,2.87665 4.39058,4.14194 l 1.45521,0.59835 1.85208,-0.14489 c 1.01864,-0.0797 2.14974,-0.17768 2.51354,-0.21774 z m 3.9359,-1.45683 c 1.1449,-1.22286 2.22168,-3.53314 2.22168,-4.766739 0,-0.52893 -0.28413,-1.481785 -0.6314,-2.117435 -0.34726,-0.63565 -1.02022,-1.88312 -1.49546,-2.77216 -1.33459,-2.49663 -3.76759,-6.49209 -4.9041,-8.05349 -0.95445,-1.31127 -1.47384,-1.71754 -4.45513,-3.48481 -0.61372,-0.3638 -1.76134,-1.26991 -2.55026,-2.01357 l -1.43442,-1.35211 -1.7974,-0.43382 c -2.41174,-0.58211 -3.19828,-0.54826 -4.60184,0.19802 -4.01396,2.13424 -6.22579,4.86812 -6.80697,8.41361 -0.38253,2.3336 -0.94171,3.30073 -2.28423,3.95063 l -1.12734,0.54573 0.50856,0.70357 c 0.89307,1.23551 2.76006,2.88433 4.10775,3.62772 1.4191,0.78277 2.1081,0.94425 4.48086,1.0502 0.8551,0.0382 2.55639,0.3386 3.78065,0.6676 l 2.22591,0.598185 1.37873,-0.627205 c 0.75829,-0.34496 1.79331,-0.89891 2.30003,-1.231 1.21124,-0.79382 3.36968,-0.82255 4.88213,-0.065 2.15899,1.08137 3.43211,3.236164 4.16581,7.050714 l 0.26386,1.3718 0.43969,-0.1532 c 0.24184,-0.0843 0.84164,-0.58252 1.33289,-1.10723 z M 37.025863,99.731881 c -0.308714,-2.795125 0.634769,-10.309575 1.323244,-10.539065 0.145783,-0.0486 0.26506,-0.25347 0.26506,-0.45527 0,-0.94118 1.801418,-3.79712 3.291528,-5.21835 2.349058,-2.24046 4.778554,-2.87927 6.510768,-1.71193 1.915949,1.29116 2.471407,4.01696 1.442075,7.07671 -0.607611,1.80615 -0.603949,3.59357 0.0098,4.78128 1.208212,2.33811 4.199057,3.1251 6.578084,1.73089 1.433243,-0.83993 3.659681,-3.29195 4.379421,-4.82312 l 0.57315,-1.21933 -0.18173,-1.49163 c -0.21829,-1.79167 -0.82802,-3.06863 -1.97559,-4.13747 -1.24407,-1.15873 -2.423001,-3.13409 -3.395016,-5.68854 -0.470675,-1.23694 -0.946312,-2.42756 -1.056974,-2.64584 -0.110659,-0.21828 -0.234063,-0.99219 -0.274235,-1.71979 -0.04017,-0.72761 -0.117316,-1.3678 -0.171434,-1.42265 -0.05412,-0.0548 -1.144926,0.15366 -2.424015,0.46337 -2.612956,0.63267 -3.251655,0.68811 -3.251655,0.2822 0,-0.15411 -0.09118,-0.22385 -0.202615,-0.15497 -0.30544,0.18877 -2.754172,-0.50108 -3.957188,-1.11482 -1.825667,-0.93138 -2.695662,-1.87407 -3.734249,-4.046256 l -1.004496,-2.10089 -0.71846,1.26888 c -0.731314,1.29158 -2.154987,3.381376 -3.117509,4.576176 -2.036596,2.52805 -5.853081,12.27045 -6.165681,15.73922 -0.159988,1.77532 0.22016,4.3052 0.698334,4.6474 0.112202,0.0803 0.322601,0.77136 0.467556,1.5357 0.37285,1.96604 1.80667,4.73781 3.049934,5.895945 2.002549,1.865429 2.910781,2.573029 3.071135,2.392689 0.08839,-0.0994 0.07524,-0.95465 -0.02923,-1.900539 z M 251.7653,84.211996 c 0.0575,-2.45088 0.14644,-5.76584 0.19775,-7.36657 0.0513,-1.60073 0.044,-2.6723 -0.0161,-2.38125 -0.0602,0.29104 -0.17413,0.70776 -0.2531,0.92604 -0.079,0.21828 -0.18238,0.81359 -0.22974,1.32291 -0.0474,0.50934 -0.19564,1.62304 -0.32949,2.4749 -0.13388,0.85187 -0.15139,2.0425 -0.0389,2.64584 0.11245,0.60334 0.18349,2.49009 0.15788,4.19279 -0.0259,1.722 0.0541,2.99501 0.18039,2.86865 0.12483,-0.12493 0.27398,-2.23242 0.33145,-4.68331 z M 29.430781,83.923036 c 0.191532,-1.01653 0.85597,-3.22074 1.256154,-4.16719 0.184595,-0.43656 0.370526,-0.97119 0.413182,-1.18807 0.328406,-1.66968 3.924403,-7.74084 7.046513,-11.896706 1.335965,-1.77832 2.053489,-3.45169 1.480047,-3.45169 -0.120319,0 -0.21876,0.23813 -0.21876,0.52917 0,0.29104 -0.100706,0.52917 -0.22379,0.52917 -0.303369,0 -4.076039,5.06946 -6.228294,8.369166 -1.998594,3.06411 -3.263911,5.63351 -3.435726,6.97667 -0.06515,0.50932 -0.197705,1.52135 -0.294558,2.24896 -0.341984,2.56909 -0.352769,2.77812 -0.143333,2.77812 0.116311,0 0.273164,-0.32742 0.348565,-0.7276 z m 136.767589,-6.01592 c 2.55025,-0.81451 4.11319,-1.94849 6.35285,-4.60924 0.25013,-0.29715 0.87851,-1.83852 1.39641,-3.42528 0.5179,-1.586756 1.17398,-3.152906 1.45797,-3.480346 0.28398,-0.32743 0.46888,-0.67211 0.41088,-0.76596 -0.10823,-0.17511 1.73542,-1.57288 3.78306,-2.86814 2.40308,-1.52009 5.56521,-4.04625 6.43963,-5.1445 1.00137,-1.2577 2.85833,-4.33875 2.85833,-4.74252 0,-0.14089 0.24054,-0.72767 0.53454,-1.30395 0.294,-0.57629 0.46183,-1.0478 0.37296,-1.0478 -0.28099,0 2.03463,-4.06797 2.75365,-4.83748 0.37847,-0.40505 1.58477,-1.26088 2.68067,-1.90186 l 1.99255,-1.16542 2.70238,-0.54859 c 1.4863,-0.30172 3.42477,-0.62409 4.30769,-0.71637 0.88292,-0.0923 1.67268,-0.27681 1.75503,-0.41004 0.51862,-0.83915 0.63464,-5.2391 0.15414,-5.84572 -0.13821,-0.17447 -0.3314,-0.76194 -0.42932,-1.30549 -0.25532,-1.41716 -1.05664,-2.79533 -3.47765,-5.98109 -2.67734,-3.52307 -4.87636,-5.20292 -11.62685,-8.88184 -0.56407,-0.30741 -2.55701,-1.75638 -2.77813,-2.01984 -0.0728,-0.0867 -0.78713,-0.64997 -1.5875,-1.25172 -0.80036,-0.60175 -1.87192,-1.45673 -2.38125,-1.89996 l -0.92604,-0.80586 -0.92604,0.13386 c -1.93965,0.28038 -3.65639,0.39648 -6.08542,0.41155 l -2.51354,0.0156 0.43206,0.31504 c 0.23764,0.17327 1.00169,0.73175 1.6979,1.24107 0.69621,0.50932 1.49193,1.0451 1.76827,1.19063 0.87982,0.46332 4.34704,6.2177 3.74639,6.2177 -0.078,0 0.0156,0.15767 0.20784,0.35037 0.19229,0.1927 0.6854,2.0084 1.0958,4.0349 0.41039,2.02649 0.84189,4.10124 0.9589,4.61057 0.65602,2.85581 -0.14341,6.77011 -2.01883,9.88486 -0.89345,1.48387 -3.31726,4.13805 -3.77887,4.13805 -0.25825,0 -1.33133,0.94162 -1.33133,1.16823 0,0.0991 -0.41672,0.83154 -0.92604,1.62774 -0.50933,0.7962 -0.92605,1.56916 -0.92605,1.71769 0,0.86848 -5.09868,4.51595 -6.81302,4.87386 -0.47294,0.0987 -0.85989,0.27867 -0.85989,0.39983 0,0.12117 -0.4681,0.29939 -1.04023,0.39605 -1.34586,0.22738 -2.86005,1.70167 -4.7129,4.5887 -1.98431,3.09188 -4.89632,10.640826 -4.94173,12.810716 -0.0114,0.5457 -0.11006,0.99218 -0.2192,0.99218 -0.36938,0 -0.19775,1.18639 0.27541,1.90386 1.67768,2.54393 5.80165,3.32939 10.16452,1.93596 z m -97.914727,-0.84065 c 0.16128,-0.19434 0.50309,-0.35334 0.75957,-0.35334 0.25649,0 0.66618,-0.30498 0.91041,-0.67773 l 0.44407,-0.67773 -0.17333,-2.16654 c -0.32362,-4.044956 -0.79398,-4.994686 -3.0352,-6.128566 -3.40559,-1.72295 -7.62569,-1.18224 -9.772427,1.25211 l -0.908886,1.03066 -0.437607,2.294836 c -0.304689,1.59781 -0.350081,2.32409 -0.149445,2.39114 0.158488,0.053 0.76441,0.30658 1.346494,0.56359 2.901171,1.28097 6.149031,2.49075 6.821391,2.54084 0.25927,0.0193 0.55234,0.11606 0.65126,0.21499 0.3203,0.3203 3.23607,0.0864 3.5437,-0.28426 z m 173.153617,-0.37418 c 0.86635,-0.90427 0.94734,-1.64126 0.52112,-4.74166 -0.51379,-3.737536 -1.89005,-6.324206 -7.48641,-14.070866 -0.32742,-0.45322 -0.59531,-1.02999 -0.59531,-1.28169 0,-0.2517 -0.1786,-0.60586 -0.39688,-0.78702 -0.21828,-0.18116 -0.39687,-0.24676 -0.39687,-0.14579 0,0.10097 -0.18709,-0.004 -0.41577,-0.23219 -0.22868,-0.22867 -0.63172,-0.41577 -0.89566,-0.41577 -0.65923,0 -3.24985,-0.84449 -3.62275,-1.18094 -0.16718,-0.15085 -0.73909,-0.6277 -1.2709,-1.05966 -0.53182,-0.43197 -1.22071,-1.20587 -1.53087,-1.71979 -0.70388,-1.1663 -1.78905,-2.50497 -1.78905,-2.20699 0,0.25548 -1.94894,0.38913 -2.85509,0.19578 -0.33337,-0.0711 -0.53555,-0.24354 -0.44928,-0.38313 0.088,-0.14244 -0.0271,-0.18319 -0.2625,-0.0929 -0.56554,0.21702 -3.05119,-1.4606 -4.10261,-2.76896 -1.64833,-2.05113 -6.695,-3.84943 -7.43639,-2.64985 -0.1026,0.16602 -0.3711,0.23104 -0.59666,0.14448 -0.26965,-0.10347 -0.3642,-0.0378 -0.27608,0.19189 0.0737,0.19209 -0.0573,0.42268 -0.29117,0.51242 -0.60746,0.2331 -1.74846,2.96748 -1.91614,4.59197 -0.14583,1.41285 0.27545,2.98607 0.79962,2.98607 0.15212,0 0.20255,0.074 0.11207,0.16451 -0.36899,0.36899 1.19367,2.72249 2.89828,4.36504 2.75968,2.65922 4.12184,3.20825 13.84679,5.58106 0.65484,0.15978 1.54618,0.46817 1.98074,0.68532 0.73532,0.36743 1.13056,0.46073 2.31874,0.54738 0.25466,0.0186 0.44379,0.12307 0.42029,0.23221 -0.0805,0.37412 0.55866,1.65364 0.82612,1.65364 0.37682,0 1.6995,2.71142 2.34767,4.812596 0.68402,2.21739 1.47416,3.77907 2.42894,4.80069 l 0.7416,0.7935 1.28095,0.0686 c 2.42374,0.1298 4.32369,0.63256 4.32369,1.14413 0,0.44461 -0.42743,0.54357 -1.28524,0.29755 -0.96192,-0.27588 -1.10863,-0.0107 -0.23611,0.42677 1.05886,0.53088 2.50856,0.3271 3.26112,-0.45842 z M 73.274583,76.192266 c 0,-0.14095 0.1769,-0.1884 0.3931,-0.10543 0.45129,0.17317 3.31107,-0.94108 3.31107,-1.29009 0,-0.12733 0.11091,-0.16296 0.24648,-0.0792 0.13556,0.0838 0.40698,-0.0768 0.60314,-0.35688 0.19617,-0.28007 0.90653,-0.96667 1.57858,-1.52578 0.67205,-0.55911 2.39493,-2.40289 3.82862,-4.097286 l 2.60672,-3.08073 1.66619,-3.76385 c 0.9164,-2.07011 1.63078,-3.79867 1.5875,-3.84123 -0.0433,-0.0426 -1.26593,-0.19366 -2.71699,-0.33577 l -2.63831,-0.25838 -1.03056,0.88213 c -1.83256,1.5686 -3.24807,1.29946 -5.59927,-1.06464 -2.24605,-2.25837 -3.16304,-4.65782 -3.17036,-8.29575 l -0.004,-2.21652 -1.4552,0.17034 c -10.4217,1.21995 -12.31522,1.65801 -16.347476,3.78191 -3.435077,1.80935 -4.221265,2.40434 -5.768636,4.36566 -2.081493,2.63834 -4.936366,5.34187 -6.928398,6.56112 l -1.924711,1.17805 0.174924,1.1919 c 0.200768,1.36802 1.421439,4.11101 2.202582,4.94947 1.601621,1.719126 3.791828,2.751906 5.837544,2.752646 1.455542,5.3e-4 4.195839,-0.70573 4.776232,-1.23098 0.234347,-0.21208 0.487254,-0.32444 0.562015,-0.24967 0.07476,0.0748 0.422288,-0.58581 0.772279,-1.467936 l 0.636349,-1.60386 1.190625,-0.70907 c 1.704281,-1.01499 2.807151,-1.37385 4.762501,-1.54965 l 1.71979,-0.15463 1.5875,0.57289 c 0.87313,0.31509 1.74876,0.58627 1.94587,0.60262 0.1971,0.0163 0.9322,0.58865 1.63355,1.27179 1.55102,1.51075 1.92587,2.655406 1.95541,5.971266 0.0145,1.62352 0.13962,2.54913 0.38456,2.84427 0.38916,0.46891 1.62124,0.60665 1.62124,0.18125 z M 156.0514,68.63398 c 1.59064,-4.81424 2.88095,-7.37534 5.19397,-10.30939 1.24236,-1.57591 1.40277,-1.9198 0.6146,-1.3176 -4.89078,3.73685 -6.31103,5.92624 -6.81225,10.50145 -0.29457,2.688806 -0.36522,4.614136 -0.16186,4.410776 0.0658,-0.0658 0.59028,-1.54415 1.16554,-3.285236 z m 95.4047,-0.2287 c -0.34663,-1.96866 -1.08667,-4.36309 -1.43922,-4.65673 -0.0874,-0.0728 -0.42794,-0.84667 -0.75687,-1.71979 -0.64627,-1.71564 -1.91378,-3.83843 -2.82609,-4.73307 -0.3133,-0.30723 -1.09398,-1.32777 -1.7348,-2.26786 -0.64085,-0.94009 -1.34376,-1.90143 -1.56205,-2.13631 -0.21828,-0.23488 -0.81359,-0.94345 -1.32291,-1.57461 -0.50932,-0.63115 -1.19706,-1.45574 -1.52831,-1.83243 l -0.60228,-0.68489 0.59574,1.05834 c 0.60068,1.06714 1.4079,2.22986 4.31297,6.21241 0.87313,1.19697 1.66545,2.3129 1.76067,2.47986 0.37957,0.66532 2.14929,4.83068 2.86441,6.74191 0.41743,1.11557 0.99832,2.51259 1.29093,3.10448 0.29257,0.5919 0.61431,1.404286 0.71495,1.805306 0.39667,1.5804 0.57934,0.17103 0.23286,-1.796616 z M 47.709219,56.49082 c 1.291497,-1.39637 3.094058,-3.51954 4.005691,-4.71816 0.911632,-1.19863 1.88673,-2.36763 2.166887,-2.5978 5.362096,-4.40524 10.089876,-6.12941 14.828726,-5.40785 0.98663,0.15022 1.38906,0.12417 1.38906,-0.0899 0,-0.19219 0.64722,-0.31449 1.78594,-0.33747 0.98226,-0.0198 1.51804,-0.0876 1.19062,-0.15069 -1.13513,-0.21864 -0.47472,-0.87161 0.88154,-0.87161 0.42188,0 0.64972,0.15772 0.66891,0.46302 0.016,0.25466 0.26137,-0.42995 0.54528,-1.52135 0.57055,-2.19332 0.55725,-2.12624 0.86549,-4.36563 0.12018,-0.87312 0.33649,-1.88515 0.48069,-2.24896 0.1442,-0.3638 0.54649,-1.73302 0.89398,-3.0427 0.34749,-1.30969 0.66732,-2.50032 0.71073,-2.64584 0.0434,-0.14552 0.15056,-0.50271 0.23811,-0.79375 0.0875,-0.29104 0.23652,-0.98644 0.33105,-1.54533 l 0.17189,-1.01618 -1.27326,0.16946 c -1.50999,0.20096 -11.72987,4.6406 -12.8477,5.5812 -0.42311,0.35602 -0.88105,0.64731 -1.01764,0.64731 -0.13659,0 -0.8716,0.40126 -1.63334,0.89169 -0.76175,0.49043 -2.16242,1.31502 -3.1126,1.83241 -2.531729,1.37859 -5.960766,4.23515 -7.211018,6.00715 C 49.534981,43.8951 47.61,47.02855 47.61,47.49857 c 0,0.0964 0.16469,0.0385 0.365977,-0.1285 l 0.365974,-0.30374 0.144963,0.37776 c 0.182877,0.47658 -0.03059,0.69408 -0.681199,0.69408 -0.294214,0 -0.570836,0.23326 -0.654069,0.55154 l -0.144229,0.55153 -0.218419,-0.3531 c -0.155644,-0.2516 -0.310449,-0.0892 -0.538599,0.56491 -0.176099,0.5049 -0.651798,1.51694 -1.057114,2.24896 -2.162778,3.90612 -2.86808,5.50238 -3.251599,7.35911 -0.229407,1.11063 -0.417103,2.13674 -0.417103,2.28024 0,0.63731 4.03823,-2.5298 6.184636,-4.8505 z m 41.361764,0.0162 c 0.0417,-0.0417 -0.28247,-1.13572 -0.72037,-2.43119 l -0.79617,-2.35539 -1.25295,-1.28629 c -1.81249,-1.86074 -6.05672,-4.41267 -7.3389,-4.41267 -0.18235,0 -0.47977,-0.1786 -0.66093,-0.39688 -0.21933,-0.26428 -0.813,-0.39687 -1.77698,-0.39687 h -1.4476 l 0.0909,2.57968 0.0909,2.57969 0.78222,1.54379 c 0.93913,1.85347 2.31673,3.10641 3.64955,3.31931 0.10914,0.0174 0.43656,0.26982 0.7276,0.56086 l 0.52917,0.52917 2.05052,0.0264 c 1.12779,0.0145 2.34818,0.11611 2.71198,0.22578 0.58623,0.17673 3.16437,0.11125 3.36099,-0.0854 z m 1.77473,-0.39309 c 0.0769,-0.12446 0.91128,-0.62196 1.85414,-1.10554 0.94285,-0.48359 1.66215,-0.96358 1.59845,-1.06664 -0.15627,-0.25286 0.39462,-0.66886 1.20128,-0.90714 1.98852,-0.58737 3.36419,-2.58576 3.72554,-5.41198 l 0.22163,-1.73344 -0.66918,-3.83646 c -1.05649,-6.05694 -1.65919,-7.6654 -3.98964,-10.64757 -0.91828,-1.17507 -1.6696,-2.2179 -1.6696,-2.31738 0,-0.18293 -0.95293,-0.69198 -2.64583,-1.41337 -1.24782,-0.53174 -3.65293,-1.10648 -6.21771,-1.48583 -1.16417,-0.17219 -2.36785,-0.36221 -2.67485,-0.42227 -0.31572,-0.0618 -0.74309,0.0951 -0.98389,0.36122 -0.94716,1.0466 -3.27817,8.89721 -3.70725,12.48561 -0.0609,0.50933 -0.23437,1.23543 -0.38548,1.61357 -0.15111,0.37814 -0.33674,1.25126 -0.41251,1.94027 l -0.13775,1.25275 0.39429,-0.1513 c 0.21686,-0.0832 0.32935,-0.0462 0.24998,0.0822 -0.15549,0.25158 1.68435,1.0769 2.43729,1.09333 0.99619,0.0217 5.63857,2.79874 7.19947,4.30663 0.87591,0.84616 1.59257,1.59533 1.59257,1.66481 0,0.13594 0.38532,0.63139 1.12448,1.44588 0.25467,0.2806 0.46302,0.66498 0.46302,0.85416 0,0.18917 0.12223,0.46618 0.27162,0.61557 0.14939,0.14939 0.34456,0.88757 0.43373,1.64042 0.1518,1.28168 0.39941,1.67125 0.7262,1.1425 z m -2.01649,-27.16975 c -0.0712,-0.0712 -0.98933,-0.17007 -2.04034,-0.21976 -1.31217,-0.062 -2.04508,-0.22449 -2.33905,-0.51847 -0.23547,-0.23547 -0.37568,-0.46746 -0.31158,-0.51553 0.10108,-0.0758 4.92722,0.24601 5.68441,0.37905 0.15191,0.0267 0.42449,0.20728 0.60574,0.40131 l 0.32954,0.35278 -0.34116,0.0197 c -0.18764,0.0108 -0.59248,0.0671 -0.89965,0.12501 -0.30717,0.058 -0.61673,0.0471 -0.68791,-0.024 z m 79.262457,24.70427 c 0.70778,-0.27458 1.79622,-0.84968 2.41875,-1.27798 1.17318,-0.80717 3.40292,-3.16509 3.19225,-3.37576 -0.22167,-0.22167 -7.47714,4.3599 -8.10777,5.11976 l -0.33774,0.40695 0.77381,-0.18686 c 0.4256,-0.10277 1.35291,-0.41152 2.0607,-0.68611 z m 63.31453,-0.315 c -0.55839,-0.45633 -1.57042,-1.02079 -2.24896,-1.25437 -0.67854,-0.23358 -1.47184,-0.52532 -1.76288,-0.64831 l -0.52916,-0.22362 0.42417,0.64082 c 0.49899,0.75386 1.70721,1.47384 3.54458,2.11223 1.68832,0.58661 1.84586,0.41406 0.57225,-0.62675 z M 61.765213,47.21755 c 1.47692,-0.2533 1.72842,-0.29913 2.77812,-0.50633 0.50932,-0.10053 2.29526,-0.30444 3.96875,-0.45313 5.84417,-0.51927 6.06519,-0.56874 6.08137,-1.3611 0.006,-0.27575 -2.60374,-0.2477 -6.99245,0.0752 -3.94931,0.29055 -6.23267,0.68463 -6.23267,1.0757 0,0.131 -0.21537,0.23819 -0.4786,0.23819 -0.26322,0 -0.70971,0.17481 -0.99218,0.38846 -0.28248,0.21365 -0.67273,0.39225 -0.86723,0.39688 -0.394585,0.009 -4.078866,2.49409 -4.562773,3.07717 -0.170238,0.20512 1.163966,-0.3296 2.9649,-1.18828 1.800933,-0.85867 3.750673,-1.6429 4.332763,-1.74273 z m 60.290757,1.71893 2.94465,-0.71848 -1.05833,-0.1764 c -1.99383,-0.33232 -5.02948,0.60261 -5.3727,1.65472 -0.0784,0.2403 -0.005,0.29677 0.21091,0.1631 0.18195,-0.11245 1.65591,-0.52777 3.27547,-0.92294 z m 100.90396,-0.87249 c -0.13425,-0.40277 -2.55507,-1.67423 -3.93695,-2.06778 -0.63448,-0.18069 -1.26672,-0.42752 -1.40496,-0.54851 -0.13825,-0.12099 -0.42072,-0.21998 -0.62771,-0.21998 h -0.37636 l 0.36282,0.43716 c 0.72222,0.87023 3.18611,2.51277 3.55622,2.37075 0.2085,-0.08 0.37976,-0.0599 0.38059,0.0447 7.9e-4,0.10457 0.48315,0.20838 1.07184,0.23067 0.66816,0.0253 1.03434,-0.0675 0.97451,-0.24697 z m 15.2796,-1.18263 c -0.50514,-0.88944 -1.61322,-2.61746 -2.5395,-3.96035 -0.37959,-0.55032 -1.23999,-1.83402 -1.91201,-2.85267 -0.67201,-1.01864 -1.76051,-2.44739 -2.41888,-3.175 l -1.19704,-1.32291 0.27994,0.78469 c 0.15397,0.43158 0.50627,1.20549 0.78291,1.71979 0.27664,0.51431 0.67701,1.37333 0.88972,1.90895 0.63307,1.59406 2.66237,4.51304 3.92348,5.64354 1.91119,1.71325 2.18363,1.93572 2.39937,1.95922 0.11287,0.0123 0.0193,-0.30507 -0.20799,-0.70526 z m -44.11651,-0.94537 c 0.32742,-0.29476 0.59531,-0.46311 0.59531,-0.37411 0,0.089 0.74414,-0.16685 1.65365,-0.56856 0.9095,-0.40171 2.87358,-1.06938 4.36462,-1.48371 1.49104,-0.41434 2.66583,-0.79849 2.61065,-0.85367 -0.4056,-0.40559 -6.34665,1.19941 -7.57059,2.04524 -0.3638,0.25141 -0.91051,0.53431 -1.21492,0.62866 -0.3044,0.0944 -0.84018,0.48636 -1.19062,0.87113 -0.69756,0.76589 -0.19741,0.58963 0.7519,-0.26498 z m -69.91615,-7.44559 0.79375,-0.36345 -2.11666,-0.0588 c -1.16417,-0.0324 -2.47386,-0.0419 -2.91042,-0.0211 l -0.79375,0.0377 0.39687,-0.26093 0.39688,-0.26094 -0.69529,-0.004 c -0.38241,-0.002 -1.13942,-0.18962 -1.68225,-0.41643 -1.25353,-0.52376 -1.51174,-0.3184 -0.35093,0.27911 2.41711,1.24417 5.53388,1.7227 6.9618,1.06886 z m 1.476,-1.73329 c 2.0121,-0.38159 3.49796,-1.17522 5.1266,-2.73826 1.35945,-1.30469 2.79517,-3.46324 2.78549,-4.18788 -0.003,-0.19028 -0.77721,-0.80593 -1.72149,-1.36812 -2.43436,-1.44932 -3.44946,-2.75927 -4.2642,-5.50282 -0.26026,-0.87639 -0.78482,-1.70299 -1.61554,-2.54577 -0.67657,-0.6864 -1.3554,-1.47344 -1.5085,-1.74897 -0.1531,-0.27554 -0.67966,-0.71475 -1.17015,-0.97604 -0.49049,-0.26128 -1.14533,-0.70122 -1.45521,-0.97765 -2.11183,-1.88382 -4.49771,-2.92972 -5.49928,-2.41071 -0.59127,0.30639 -5.45022,9.29304 -5.61706,10.38876 -0.0249,0.16359 -0.13562,0.44199 -0.24602,0.61866 -0.47882,0.76621 -0.37689,3.39303 0.19305,4.97491 1.65514,4.59393 8.75021,7.65768 14.99231,6.47389 z m 43.0755,-7.17438 c -0.13019,-3.60762 -2.36876,-5.58079 -5.63844,-4.96995 -0.66102,0.12349 -1.51495,0.42968 -1.89762,0.68041 l -0.69577,0.45589 1.96357,0.94192 c 1.95398,0.93732 5.01323,3.0636 5.76989,4.01026 0.55814,0.69829 0.5635,0.68626 0.49837,-1.11853 z m 55.8017,0.17049 c -0.83127,-0.77953 -2.20049,-1.86669 -3.04271,-2.41592 -0.84223,-0.54923 -2.0671,-1.42304 -2.72195,-1.94181 -2.88093,-2.28227 -5.08792,-3.51368 -3.24133,-1.80853 0.40028,0.36962 1.08498,1.10943 1.52154,1.64402 0.94322,1.15501 5.14586,4.37671 6.5372,5.01136 0.53952,0.2461 1.03648,0.53731 1.10436,0.64714 0.0679,0.10982 0.40035,0.21799 0.73884,0.24037 l 0.61544,0.0407 z M 67.024663,28.3129 c 1.55985,-0.89236 8.96825,-3.4452 10.112,-3.48447 l 0.76813,-0.0264 -0.65996,-0.18364 c -1.04994,-0.29215 -8.99733,1.52912 -8.99733,2.06188 0,0.0974 -0.38696,0.40311 -0.8599,0.67936 -0.47294,0.27625 -1.01687,0.72063 -1.20873,0.98751 -0.19185,0.26689 -0.45975,0.41669 -0.59531,0.33291 -0.13556,-0.0838 -0.24648,-0.0263 -0.24648,0.12786 0,0.41498 0.19883,0.35665 1.68758,-0.49503 z m 68.387107,-0.28238 c 0.15205,-0.43617 0.56809,-1.18031 0.92454,-1.65365 0.35645,-0.47333 1.568,-2.58702 2.69233,-4.69707 1.12432,-2.11005 2.47354,-4.27999 2.99826,-4.82208 1.17943,-1.21847 2.9622,-2.01045 4.68405,-2.08085 1.48551,-0.0607 5.01114,-0.62643 5.80634,-0.93165 0.29104,-0.11171 1.06495,-0.51649 1.71979,-0.89952 1.24169,-0.72629 4.42379,-2.01193 5.72675,-2.31373 0.41555,-0.0963 2.18429,-0.16886 3.93054,-0.16135 l 3.175,0.0136 2.54927,0.70297 c 1.4021,0.38663 2.85359,0.70297 3.22553,0.70297 0.37195,0 0.75634,0.12956 0.8542,0.28791 0.1095,0.17716 0.6498,0.23103 1.40468,0.14005 0.67471,-0.0813 2.21308,-0.22886 3.41862,-0.32785 1.20554,-0.099 2.24446,-0.26507 2.30873,-0.36905 0.21274,-0.34423 -2.47228,-1.80823 -4.16179,-2.2692 -0.91395,-0.24936 -1.85701,-0.62035 -2.09568,-0.8244 -0.40117,-0.34299 -3.07415,-1.00194 -6.99733,-1.725 -1.13383,-0.20897 -2.38668,-0.2199 -4.23333,-0.037 l -2.6229,0.25985 -2.24896,-0.33418 c -1.23692,-0.1838 -2.84427,-0.50784 -3.57187,-0.72009 -1.98752,-0.57977 -4.98838,-1.01595 -6.98962,-1.01595 -1.63661,0 -6.86687,1.13144 -8.94307,1.93461 -0.40483,0.15661 -0.91465,0.32642 -1.13294,0.37736 -0.60296,0.1407 -6.28274,1.62095 -8.5152,2.2192 -1.08605,0.29104 -2.3231,0.66865 -2.74899,0.83914 -0.42589,0.17048 -1.72685,0.52545 -2.89101,0.78881 -2.35865,0.5336 -4.79193,1.3608 -5.19833,1.76719 -0.26163,0.26163 3.98798,2.76551 4.73531,2.79006 0.1819,0.006 0.2731,0.0685 0.20268,0.1389 -0.17789,0.17789 4.68441,5.07543 5.03889,5.07543 0.67002,0 5.2763,5.68667 5.94728,7.34219 0.33026,0.81486 0.67909,0.74645 1.00823,-0.19772 z m -2.76764,-0.59603 c -1.14013,-1.95442 -4.29261,-5.88649 -4.5295,-5.6496 -0.0684,0.0684 -0.0247,0.28104 0.0971,0.47262 0.12174,0.19158 0.40156,0.88084 0.62181,1.53167 l 0.40046,1.18334 1.71979,1.39113 c 1.84107,1.48925 1.9892,1.58308 1.69038,1.07084 z M 95.162233,15.03543 c 6.354007,-2.91913 10.975737,-4.30983 13.457687,-4.04946 2.34748,0.24627 5.29143,0.70236 6.10164,0.9453 0.44225,0.13261 0.49411,-0.38308 0.0621,-0.61773 -1.07042,-0.58145 -3.08806,-1.35181 -3.79421,-1.44868 -0.44303,-0.0608 -1.22223,-0.17366 -1.73156,-0.25085 -2.04714,-0.31026 -8.17916,1.18225 -10.897037,2.6523 -1.20991,0.65442 -2.58115,1.38419 -3.04722,1.62171 -0.46606,0.23753 -1.14332,0.70613 -1.50502,1.04135 -0.3617,0.33521 -0.74361,0.53268 -0.84868,0.43881 -0.10507,-0.0939 -0.1054,-0.0218 -8e-4,0.16006 0.24814,0.43119 0.13825,0.45577 2.203,-0.49281 z m 63.043597,-2.10858 c 2.81826,-0.70366 6.61386,-1.33289 6.91553,-1.14645 0.12552,0.0776 0.22822,0.0305 0.22822,-0.10453 0,-0.38352 -1.68188,-0.5614 -2.84247,-0.30063 -0.57738,0.12973 -1.45394,0.28954 -1.94792,0.35513 -1.20442,0.15992 -4.17781,1.12979 -4.99919,1.63066 l -0.66146,0.40335 0.52917,-0.13801 c 0.29104,-0.0759 1.54119,-0.39068 2.77812,-0.69952 z m -36.77708,-2.36338 c 0.50932,-0.13744 1.75948,-0.49914 2.77812,-0.80378 1.53935,-0.46036 6.46327,-1.76218 7.40834,-1.95866 2.20529,-0.45849 9.61415,-2.89508 9.10546,-2.99457 -0.46659,-0.0912 -10.83921,1.60654 -13.35702,2.18628 -1.73158,0.3987 -5.07397,1.98456 -6.99324,3.31807 l -1.19062,0.82725 0.66146,-0.16235 c 0.3638,-0.0893 1.07818,-0.2748 1.5875,-0.41224 z"
       id="path1" />
  </g>
</svg>
