<?xml version="1.0" encoding="UTF-8" standalone="no"?>
<!-- Created with Inkscape (http://www.inkscape.org/) -->

<svg
   width="256mm"
   height="256mm"
   viewBox="0 0 256 256"
   version="1.1"
   id="svg1"
   inkscape:version="1.3.2 (091e20e, 2023-11-25)"
   sodipodi:docname="brain02.svg"
   xmlns:inkscape="http://www.inkscape.org/namespaces/inkscape"
   xmlns:sodipodi="http://sodipodi.sourceforge.net/DTD/sodipodi-0.dtd"
   xmlns="http://www.w3.org/2000/svg"
   xmlns:svg="http://www.w3.org/2000/svg">
  <sodipodi:namedview
     id="namedview1"
     pagecolor="#ffffff"
     bordercolor="#000000"
     borderopacity="0.25"
     inkscape:showpageshadow="2"
     inkscape:pageopacity="0.0"
     inkscape:pagecheckerboard="true"
     inkscape:deskcolor="#d1d1d1"
     inkscape:document-units="mm"
     inkscape:zoom="0.38583845"
     inkscape:cx="176.23956"
     inkscape:cy="501.50523"
     inkscape:window-width="1312"
     inkscape:window-height="838"
     inkscape:window-x="0"
     inkscape:window-y="0"
     inkscape:window-maximized="0"
     inkscape:current-layer="layer1" />
  <defs
     id="defs1" />
  <g
     inkscape:label="Layer 1"
     inkscape:groupmode="layer"
     id="layer1">
    <path
       style="fill:#ffffff;stroke-width:0.264583;fill-opacity:1"
       d="M 131.8424,253.24943 C 115.4992,249.68412 104.40578,235.53861 93.293695,224.18591 83.265668,214.45309 66.951857,205.8082 53.783644,214.98858 40.67879,221.77911 38.88896,238.23089 27.054088,246.28421 c -3.39826,5.35556 -22.4304365,7.63684 -20.5942773,3.93025 16.5525073,1.84653 28.3099033,-12.23673 34.6058253,-25.72065 8.869588,-13.35805 27.928582,-20.61906 41.697811,-10.05688 18.493903,10.13376 28.400703,33.19079 50.532013,37.10555 14.31165,0.66133 29.39405,-8.41639 32.91975,-22.91883 5.78644,-13.71872 6.37558,-29.48039 -0.25574,-43.02443 -5.55031,-14.92153 -21.07668,-21.70526 -31.32061,-32.87914 -7.34453,-13.09451 -20.76502,-6.00807 -31.79302,-9.16662 -11.04869,-3.7334 -25.190769,-12.24971 -22.364783,-25.93631 2.123535,-13.26504 -15.591241,7.10296 -23.402316,-1.20944 C 45.347452,110.34231 31.571852,106.53401 26.466062,93.108569 21.354444,77.388327 36.116609,67.037864 40.499228,53.704451 44.109483,40.573159 56.110751,32.490724 66.437912,25.077425 79.324178,24.702424 85.136348,12.88428 97.444513,10.558251 110.89541,8.6276656 122.33602,7.2009967 135.49996,3.2013956 c 11.86785,-2.1927371 23.91976,0.034194 35.60421,2.4634745 11.2212,7.9357389 25.37913,3.195143 36.81731,11.2142569 13.14588,8.262347 24.04427,19.446288 32.26794,32.627523 9.43181,9.385156 12.67618,22.361747 10.36096,35.267747 -0.80655,13.029353 -4.37109,26.823903 -13.04681,36.732803 -8.77346,7.29069 -19.01122,-8.86917 -25.2956,4.43622 -9.0499,4.38856 -18.54872,7.11305 -24.62789,16.63582 -9.57921,6.03541 -21.7469,4.80682 -30.16318,-3.03456 -8.41474,-5.54662 -19.33186,-16.1248 -13.39093,-27.01896 6.02967,-5.26158 12.43461,-20.786619 -1.40532,-17.961646 -13.41543,2.358597 -28.31787,11.480456 -20.50152,26.599646 -1.08268,11.15625 22.11457,2.10138 7.68749,-4.6634 -6.54336,-8.81419 7.18815,-3.03394 6.70414,3.51943 1.9316,12.26822 -21.12333,1.0503 -14.48504,16.21984 4.99046,10.57001 22.54231,-5.15193 26.45751,10.35249 7.71432,12.69238 24.6321,18.31841 27.21437,34.00551 2.98777,15.46751 6.02169,32.03056 -2.04903,46.59278 -4.8363,14.52024 -19.11766,21.85604 -32.90551,25.81729 -2.92396,0.58575 -5.94956,0.69076 -8.90066,0.24177 z m 30.25142,-11.63987 c 10.06629,-9.22566 15.31694,-23.38807 16.05903,-36.78809 -1.44387,-13.19968 -4.05114,-27.49382 -12.17684,-38.30604 -12.09013,-6.50414 -16.13723,-25.31146 -29.91088,-26.16236 -7.88493,-0.002 -13.79023,4.56626 -3.58531,8.65157 11.62445,10.88469 28.02671,17.98925 33.60254,33.9946 7.3328,13.50569 7.33006,29.49985 2.18839,43.75062 1.46,2.24187 -12.31181,20.43048 -6.17693,14.8597 z m 12.3542,-62.24137 c 0.65824,-5.69905 -9.1215,-15.39655 -2.56561,-5.07029 0.61595,0.63277 1.96493,6.80846 2.56561,5.07029 z m -15.25303,-6.87917 c -2.71234,-5.70351 -8.92183,-6.79562 -1.45838,-0.98143 z m 15.74416,-27.02535 c -5.16864,-2.56951 -12.83227,-2.01646 -2.7502,-0.0429 0.87648,0.6274 1.80752,0.18975 2.7502,0.0429 z m 6.11575,-2.92077 c 9.05479,0.16911 17.01115,-12.74223 8.07384,-11.52258 -10.64978,3.08532 -23.36145,4.4811 -30.91201,-6.07696 -6.18676,-10.73309 11.14951,-12.41258 16.14017,-4.98681 8.05632,-0.57367 18.5856,-5.5225 22.10725,6.21647 8.94619,9.74751 15.21324,-11.53268 4.33014,-15.20379 -8.34613,-9.31819 -21.80023,4.488 -29.75357,-5.34613 -5.84765,-6.116739 -20.59447,-16.038869 -20.04479,-1.07402 -9.35208,7.8018 -10.11649,21.276 0.25387,28.72533 7.48882,8.18809 19.11073,11.00167 29.8051,9.26849 z m -61.9125,-0.69538 c 7.70214,1.6893 0.58943,-19.6456 -3.9881,-9.56325 -11.82145,7.16632 -31.117712,-10.33338 -19.551319,-21.39108 6.491139,-12.338854 26.411029,-1.61756 14.747089,9.67179 -3.83316,6.72051 -13.206149,-3.00622 -4.09205,1.44972 13.59483,-5.23133 0.91407,-23.657053 -8.417639,-11.91007 -12.570877,9.39462 3.411329,26.34599 15.373719,21.88561 16.66082,-4.59714 -2.18053,-26.27805 12.29627,-31.93959 7.56528,-4.900079 19.27047,-6.50384 25.46379,-9.142064 2.86795,-13.835362 -16.56363,-20.432534 -18.852,-4.993771 -3.08994,14.462135 -18.52372,-9.076396 -24.66516,4.586677 -3.68114,13.361078 -24.87837,7.124426 -25.446952,23.035008 -4.358762,13.1033 6.697767,23.37664 18.020452,27.14206 6.13078,2.11894 12.75828,1.85477 19.1119,1.16896 z m 61.64792,-10.4175 c 7.28076,-0.13183 22.8262,-2.64349 10.28058,-11.20724 -9.22879,-2.37388 -18.24979,5.08614 -25.52913,-3.82877 -13.69712,-2.49388 -6.45649,14.6098 3.24865,14.1101 3.45781,2.8717 8.07067,2.35658 11.9999,0.92591 z m 25.34571,-3.8394 c 11.19621,-2.19514 13.36124,-12.57674 3.71948,-18.45628 -3.95921,-12.087679 -16.37728,-14.08466 -26.89244,-17.04578 -15.1755,-3.555959 -11.63148,24.64191 1.77301,14.95486 10.05,-4.68991 22.22055,4.71214 23.59686,14.49253 -0.1534,2.1581 -0.69564,4.3991 -2.19691,6.05467 z M 234.17,122.06342 C 248.99813,110.06188 249.1555,88.651531 248.01497,71.222521 244.6466,56.329314 232.70355,44.93564 223.85789,32.916218 214.17177,25.533553 205.42025,15.899866 192.91428,13.16638 c -9.02366,-3.145678 -10.91571,2.351978 -1.92923,5.050912 11.05815,3.606175 12.71881,16.394191 17.6327,22.905375 11.13721,3.449901 22.03975,8.821251 27.93784,19.481227 8.58223,5.775613 2.83614,24.95606 -6.23188,13.352061 -2.42474,-14.180282 -17.90329,-9.615061 -24.74894,-18.994193 -4.21124,-5.905967 -2.09803,-16.576262 -11.71921,-9.139984 -7.8148,10.127133 -16.97435,18.165753 -23.7286,28.782636 -11.20287,13.857674 -26.2406,-5.938843 -14.00934,-16.356221 8.93519,-8.861194 28.3745,-14.288085 23.7255,-30.399102 -1.78547,-16.630786 -20.13772,-17.781208 -32.38763,-12.119037 -15.3691,2.422203 -18.02319,23.841398 -4.45439,30.607468 9.89439,4.648091 28.27829,-7.555813 19.44985,-18.610371 -10.22317,-8.484588 10.65461,-4.136735 5.35134,5.463921 -1.86344,9.889679 -13.89104,17.958114 -23.85375,15.286126 -10.99311,-0.261793 -8.05851,-26.177066 -17.90135,-10.329956 -14.51334,6.448711 -25.08877,-12.887266 -13.72359,-22.890114 -5.18942,-8.826795 -21.180528,1.64891 -29.441313,4.421474 -9.094335,5.979634 11.78713,4.49474 12.656816,13.205878 8.436037,11.243182 -0.974351,21.615565 -9.457735,28.507169 1.121147,12.874995 -22.301204,11.270493 -15.305844,24.191627 8.338325,14.699764 -8.190651,22.098814 -19.134865,25.735194 11.596816,9.40988 31.502372,2.51245 36.424041,-10.88753 -13.362753,-7.039794 -4.613458,-21.461576 5.453887,-27.600192 4.087821,-3.770724 19.020453,-14.919792 9.018393,-5.222245 -7.792047,6.742083 -22.892619,13.369104 -19.982718,25.59284 4.54998,11.240857 13.458537,-0.389712 11.537531,-7.547262 5.843431,-12.479577 20.671937,-16.762264 33.128187,-14.206284 14.37396,-4.828288 11.02358,-26.440959 -5.62004,-22.573136 -5.81147,-0.164193 -14.36583,10.681926 -14.35734,10.489125 3.32687,-14.962777 25.82026,-16.910981 30.9095,-2.634667 0.5597,19.199071 -19.49795,13.914993 -31.59958,17.753101 -10.253701,3.150315 -15.242848,18.850737 -13.14309,25.050941 11.80453,2.126779 13.53154,-20.811846 26.01763,-13.255047 6.65812,5.123208 14.14841,3.295847 13.40516,-5.955224 9.88518,-12.603329 21.54802,4.33507 21.64115,14.269602 4.58928,2.62216 16.37542,7.772848 16.90074,6.250698 -4.80858,-14.846151 25.37993,-4.24829 11.79354,-15.596837 -6.7458,-11.426266 9.81823,-21.731187 20.07364,-20.675328 13.71001,0.227423 16.94537,17.868557 30.05744,19.734161 9.62764,8.753075 5.64218,26.109514 -2.83636,34.548834 -8.77435,2.5657 0.3936,4.92018 3.70763,3.2094 z m -6.35463,-2.97439 c 8.98487,-6.46735 11.78653,-19.82038 7.75964,-29.722885 -10.31403,-5.632176 -17.50349,-13.898673 -25.65438,-21.584055 -11.9296,-7.729529 -36.47193,7.389268 -23.18085,20.290592 8.76115,4.365397 11.87592,-20.392353 22.83013,-8.606906 8.83857,5.582822 19.33079,19.163652 9.13947,27.843324 -2.66609,5.97273 1.45313,15.32789 9.10599,11.77993 z m -93.32713,-0.37657 c -0.13587,-8.49787 -13.241,-6.21668 0,0 z m 83.20642,-4.43177 c 5.80617,-9.31341 -14.49623,-10.85445 -3.69835,-2.12589 0.92255,0.68145 2.2407,3.18237 3.69835,2.12589 z M 47.15571,108.6339 c -2.659482,-5.25077 -16.015934,-5.86607 -5.249859,-0.82256 0.484449,0.14867 7.403723,2.92402 5.249859,0.82256 z m 3.680095,-0.14883 c 9.928541,-0.59538 25.029971,-7.77237 19.556176,-19.896208 1.543566,-10.424638 -9.96409,-12.918636 -16.363674,-12.687833 8.81572,5.465445 7.452235,23.390267 -5.214623,19.721486 -5.408105,-2.663266 2.205073,-18.40601 -7.803529,-11.541442 -10.477616,11.09647 -3.723332,21.839157 9.82565,24.403997 z m 165.673265,-3.50135 c 6.37583,-10.686488 -19.12409,-7.039629 -5.95717,-0.15821 1.91627,0.70759 3.99667,0.46992 5.95717,0.15821 z m 3.9359,-1.45683 c 5.0154,-11.033392 -8.86958,-26.299187 -19.81787,-24.334954 -16.18814,6.830637 -6.11782,23.552344 8.41327,18.144768 8.11372,-3.81128 8.86553,7.466516 11.4046,6.190186 z M 35.004099,99.265582 C 29.314543,89.94618 49.078612,71.787096 47.478423,89.075719 47.793067,103.47985 68.289297,86.306657 55.156289,79.816762 53.424813,69.479483 41.331177,72.926904 36.470507,66.200569 c -6.846008,9.702069 -14.107196,26.611826 -1.437166,34.965551 -0.0097,-0.63351 -0.01947,-1.267047 -0.02924,-1.900538 z M 249.74354,83.745697 c 0.83507,-6.029983 -0.55863,-11.762763 -0.66958,-2.37813 0.003,3.183155 0.51943,10.188718 0.66958,2.37813 z M 27.409017,83.456737 C 26.913458,77.748135 38.95428,63.303461 35.381919,65.984448 31.74605,71.076785 26.440697,76.729043 27.409017,83.456737 Z m 136.767593,-6.01592 c 8.36153,-7.72433 15.525,-17.548916 22.56577,-25.81984 1.86719,-11.943211 23.63367,-7.771491 15.69115,-21.345386 -7.51699,-8.055498 -17.15398,-18.981044 -29.11783,-17.439309 4.6821,6.29574 12.89412,21.506632 3.63362,31.563323 -8.41983,9.191989 -23.39528,15.043284 -23.39089,29.884271 1.30765,4.443438 7.07937,4.299571 10.61818,3.156941 z M 66.261883,76.600167 C 76.783616,65.59014 46.986548,60.62153 55.786843,74.637204 c 3.099763,1.88221 6.927146,2.285234 10.47504,1.962963 z M 239.4155,76.225987 c 2.26871,-13.467079 -9.69423,-22.39947 -20.05979,-27.866461 -7.37246,-9.516385 -23.00837,-2.507484 -11.79262,7.417897 9.08117,6.065687 21.05142,4.920565 23.94533,17.614771 5.7775,3.600147 2.73202,2.924265 7.45514,3.382239 z M 71.252819,75.725967 c 7.918825,-0.294791 23.745498,-22.841601 6.840459,-17.673791 -8.775073,0.0591 -2.400143,-17.430557 -14.787511,-10.922029 -8.701518,2.646204 -27.021429,10.360557 -21.38005,21.426299 8.052663,8.658271 23.619643,-14.753364 27.021909,2.544743 0.218887,1.545198 -0.18284,4.752059 2.305193,4.624778 z m 82.776821,-7.558286 c 1.29308,-4.511495 9.11574,-16.410437 0.75636,-6.69065 -1.89635,0.937557 -2.86807,14.666348 -0.75636,6.69065 z m 95.4047,-0.2287 c 0.15419,-5.840178 -10.73578,-18.901946 -10.23375,-17.397047 3.66282,2.618656 10.38943,21.432 10.23375,17.397047 z M 45.687455,56.024521 C 50.18363,42.568205 68.516683,46.845119 74.354522,37.20839 c 2.296437,-5.742474 3.395047,-16.181256 -5.33866,-9.323718 -13.397581,4.274751 -22.75691,14.990731 -27.966771,27.627038 -3.88794,6.876266 2.559533,3.573255 4.638364,0.512851 z m 41.361763,0.0162 C 88.101135,45.65008 65.430355,40.812504 75.876244,53.751272 c 3.00055,2.992548 7.335624,2.567482 11.172974,2.289449 z m 1.77473,-0.39309 c 14.912052,-4.710844 8.228065,-31.342032 -6.921299,-29.47171 -13.077957,4.486761 -7.876161,21.744575 4.279448,23.760103 1.673107,1.382295 2.802681,3.499441 2.641851,5.711607 z m -2.01649,-27.16975 c -10.637627,-1.153664 5.535463,-1.256686 0,0 z m 79.262462,24.70427 c 8.86671,-5.023251 2.37951,-4.281807 -2.0739,0.436496 z m 63.31453,-0.315 c -8.18492,-5.46476 0.6838,3.242284 0,0 z m -169.641006,-6.1159 c 4.56691,-0.03004 18.335885,-3.002024 5.835798,-2.24536 -5.885842,-1.293273 -21.165847,9.647938 -5.835798,2.24536 z m 60.290766,1.71893 c 7.99681,-2.892574 -9.21413,2.145551 0,0 z m 100.90396,-0.87249 c -3.85247,-4.341505 -9.61375,-1.63515 -1.54684,-0.136126 z m 15.2796,-1.18263 c -2.46715,-5.476808 -11.71953,-15.615935 -4.37602,-3.904087 0.97619,0.747768 3.28094,5.535398 4.37602,3.904087 z m -44.11651,-0.94537 c 5.70316,-1.895794 10.7227,-4.347948 2.05533,-1.563209 0.31922,-0.445276 -5.26498,3.635986 -2.05533,1.563209 z m -69.91615,-7.44559 c -8.26899,-2.176065 -8.58827,-0.135837 0,0 z m 1.476,-1.73329 C 139.42353,33.30074 119.23119,7.7915949 111.5664,17.375563 c -7.20354,8.868926 0.0838,23.272727 12.09471,18.915248 z m 43.0755,-7.17438 c -0.57502,-8.609923 -13.04721,-2.508465 -1.95215,-0.332455 0.22093,0.275685 3.15609,3.67675 1.95215,0.332455 z m 55.8017,0.17049 c -3.60071,-3.949296 -13.32451,-8.873568 -4.3839,-1.821425 0.11628,0.636275 8.44558,5.441956 4.3839,1.821425 z M 65.002903,27.846601 c 4.839468,-1.800424 14.677745,-4.974694 3.792805,-2.596177 -0.956431,-0.420788 -8.354912,4.764246 -3.792805,2.596177 z m 68.387107,-0.28238 c 4.12897,-13.661194 21.09952,-18.2224528 33.7411,-16.901669 5.69026,2.06098 15.37662,0.408818 4.24626,-3.0249832 -11.20704,-0.957908 -22.63261,-4.110956 -33.69365,-1.4563831 -9.01173,3.2576229 -29.27586,4.0926033 -12.85909,12.6019823 2.91299,2.870093 5.43825,6.130067 8.56538,8.781053 z m -2.76764,-0.59603 c -2.25419,-5.432643 -7.56296,-7.441881 -1.69624,-1.040464 z M 93.140468,14.569131 C 97.548711,9.4082724 121.70667,11.493788 105.64118,9.2267392 102.67794,7.8172733 88.28801,15.763795 93.140468,14.569131 Z m 63.043602,-2.10858 c 21.03292,-4.762572 -13.19581,2.174555 0,0 z m -36.77708,-2.36338 c 4.31076,-1.116783 26.68312,-7.041286 10.93174,-4.5391513 -3.47038,1.1084173 -9.45244,0.7426842 -10.93174,4.5391513 z"
       id="path1" />
  </g>
</svg>
