<?xml version="1.0" encoding="UTF-8" standalone="no"?>
<!-- Created with Inkscape (http://www.inkscape.org/) -->

<svg
   width="512"
   height="512"
   viewBox="0 0 135.46666 135.46667"
   version="1.1"
   id="svg1"
   inkscape:version="1.3.2 (091e20e, 2023-11-25)"
   sodipodi:docname="islabrainColour.svg"
   inkscape:export-filename="islabrainColour2.png"
   inkscape:export-xdpi="96"
   inkscape:export-ydpi="96"
   xmlns:inkscape="http://www.inkscape.org/namespaces/inkscape"
   xmlns:sodipodi="http://sodipodi.sourceforge.net/DTD/sodipodi-0.dtd"
   xmlns:xlink="http://www.w3.org/1999/xlink"
   xmlns="http://www.w3.org/2000/svg"
   xmlns:svg="http://www.w3.org/2000/svg">
  <sodipodi:namedview
     id="namedview1"
     pagecolor="#ffffff"
     bordercolor="#000000"
     borderopacity="0.25"
     inkscape:showpageshadow="2"
     inkscape:pageopacity="0.0"
     inkscape:pagecheckerboard="true"
     inkscape:deskcolor="#d1d1d1"
     inkscape:document-units="mm"
     inkscape:zoom="0.49693622"
     inkscape:cx="29.178795"
     inkscape:cy="242.48584"
     inkscape:window-width="1440"
     inkscape:window-height="872"
     inkscape:window-x="87"
     inkscape:window-y="0"
     inkscape:window-maximized="0"
     inkscape:current-layer="layer1"
     showgrid="false"
     inkscape:export-bgcolor="#452084ff" />
  <defs
     id="defs1">
    <linearGradient
       id="linearGradient23"
       inkscape:collect="always">
      <stop
         style="stop-color:#ffbd00;stop-opacity:0.94011974;"
         offset="0.0781973"
         id="stop23" />
      <stop
         style="stop-color:#ff9300;stop-opacity:1;"
         offset="0.17087689"
         id="stop25" />
      <stop
         style="stop-color:#d40000;stop-opacity:1;"
         offset="0.24277464"
         id="stop28" />
      <stop
         style="stop-color:#ff002f;stop-opacity:1;"
         offset="0.29023033"
         id="stop29" />
      <stop
         style="stop-color:#ffffff;stop-opacity:1;"
         offset="0.58950621"
         id="stop26" />
      <stop
         style="stop-color:#ffffff;stop-opacity:1;"
         offset="0.76278096"
         id="stop27" />
      <stop
         style="stop-color:#e4ffff;stop-opacity:1;"
         offset="0.97968107"
         id="stop35" />
      <stop
         style="stop-color:#c1ffff;stop-opacity:1;"
         offset="1"
         id="stop24" />
    </linearGradient>
    <clipPath
       clipPathUnits="userSpaceOnUse"
       id="clipPath5">
      <path
         id="path5"
         style="stroke-width:0.1;stroke-linecap:square;paint-order:markers fill stroke;stop-color:#000000"
         d="m 438.25066,553.76374 859.87054,0 v 201.39554 l -859.87054,0 z"
         sodipodi:nodetypes="ccccc" />
    </clipPath>
    <radialGradient
       inkscape:collect="always"
       xlink:href="#linearGradient23"
       id="radialGradient24"
       cx="65.61055"
       cy="53.745361"
       fx="65.61055"
       fy="53.745361"
       r="59.673199"
       gradientTransform="matrix(0.71905339,-0.00494204,0.00399269,0.60861776,15.30863,17.011744)"
       gradientUnits="userSpaceOnUse"
       spreadMethod="pad" />
  </defs>
  <g
     inkscape:label="Layer 1"
     inkscape:groupmode="layer"
     id="layer1">
    <rect
       style="opacity:0.94;fill:#000000;fill-opacity:1;stroke:#000000;stroke-width:1.647;stroke-linejoin:round;stroke-dasharray:none;stroke-opacity:1"
       id="rect29"
       width="135.3131"
       height="134.69238"
       x="0.076785788"
       y="0.38714191" />
    <path
       style="opacity:0.94;fill:none;stroke:url(#radialGradient24);stroke-width:2.30202;stroke-linecap:round;stroke-linejoin:round;stroke-dasharray:none;stroke-opacity:1"
       d="m 87.41874,109.63875 c -18.114678,18.49734 14.26708,19.95219 15.53968,1.41425 C 101.77123,92.916099 77.174912,89.914881 62.937365,84.429331 45.455149,77.729725 54.157991,69.887931 59.691808,68.788878 c 5.872646,-1.166346 10.939832,2.74354 6.11658,8.416299 -3.562233,4.189637 -10.928391,5.744797 -16.89238,6.167173 -4.714325,0.333874 -9.612404,-0.872099 -13.881517,-2.946169 -3.331743,-1.618665 -7.315478,-4.815409 -8.590074,-7.137332 -1.14088,-2.078333 -3.660593,-8.555709 -3.131951,-11.846529 0.905942,-5.639543 5.683595,-8.176044 10.716609,-8.31303 5.306473,-0.144429 7.106507,5.767691 3.120377,9.799178 -2.919591,2.952812 -4.290563,5.078546 -11.487907,6.329846 -2.148651,0.373555 -4.846046,-0.02123 -6.812648,-0.98271 C 6.8518191,62.410152 5.7218549,54.842374 9.8359231,48.368004 12.304999,44.482384 20.441143,40.297375 24.055549,42.752107 36.807243,51.41245 10.140146,58.611806 14.736025,37.9046 17.177928,26.90236 34.100598,19.997409 36.459793,19.699108 c 2.673808,-0.338082 8.001713,0.262721 9.725302,2.203656 6.703466,7.548775 -6.424295,14.917132 -6.286804,2.831392 0.09512,-8.360856 10.323404,-12.257149 15.361897,-13.095515 9.601465,-1.597608 16.157293,5.989299 17.05597,8.486439 3.809507,10.585435 -11.366564,11.103173 -8.248004,1.26023 2.416903,-7.628338 9.432338,-11.157388 20.004857,-9.936739 8.539817,0.985963 19.313179,3.712663 25.772579,10.481382 6.14448,6.438714 8.55407,19.389018 -0.33103,21.342264 -4.87676,1.072076 -8.6784,-5.413967 -6.97377,-8.74892 2.49045,-4.872328 9.51043,-2.953574 16.06827,1.279029 2.90717,1.813788 7.82176,8.256648 8.96618,16.813255 0.73831,5.520213 -0.55679,12.210074 -4.0612,16.473553 -4.42723,5.386199 -7.05993,6.683084 -10.40725,5.35391 -3.36133,-1.33474 -7.37199,-4.802796 -9.83753,-7.495401 -23.393863,-25.383455 16.42805,-20.558548 7.62312,11.920047 -1.93403,7.134042 -5.91879,11.713436 -9.36853,10.640756 C 81.89267,83.404233 87.143574,41.899048 67.094386,36.399695 53.363776,32.633484 46.202658,43.347605 48.275544,51.151794 52.599341,67.430423 69.071561,64.20092 72.170806,55.798457 75.506621,46.754621 64.951278,39.79537 58.430398,43.052435 c -7.470437,3.731351 -5.379946,13.627359 2.08902,13.67678 7.193927,0.0476 4.829891,-5.906627 4.829891,-5.906627"
       id="path1"
       sodipodi:nodetypes="cssssaassssssssssssssssssassssssssssssc" />
  </g>
</svg>
