<?xml version="1.0" encoding="UTF-8" standalone="no"?>
<!-- Created with Inkscape (http://www.inkscape.org/) -->

<svg
   width="512"
   height="512"
   viewBox="0 0 135.46666 135.46667"
   version="1.1"
   id="svg1"
   inkscape:version="1.3.2 (091e20e, 2023-11-25)"
   sodipodi:docname="islabrainAnimation.svg"
   inkscape:export-filename="islabrain.png"
   inkscape:export-xdpi="96"
   inkscape:export-ydpi="96"
   xmlns:inkscape="http://www.inkscape.org/namespaces/inkscape"
   xmlns:sodipodi="http://sodipodi.sourceforge.net/DTD/sodipodi-0.dtd"
   xmlns="http://www.w3.org/2000/svg"
   xmlns:svg="http://www.w3.org/2000/svg">
  <sodipodi:namedview
     id="namedview1"
     pagecolor="#ffffff"
     bordercolor="#000000"
     borderopacity="0.25"
     inkscape:showpageshadow="2"
     inkscape:pageopacity="0.0"
     inkscape:pagecheckerboard="true"
     inkscape:deskcolor="#d1d1d1"
     inkscape:document-units="mm"
     inkscape:zoom="4.1911873"
     inkscape:cx="268.42036"
     inkscape:cy="214.1398"
     inkscape:window-width="1440"
     inkscape:window-height="872"
     inkscape:window-x="0"
     inkscape:window-y="0"
     inkscape:window-maximized="0"
     inkscape:current-layer="layer4"
     showgrid="false" />
  <defs
     id="defs1" />
  <g
     inkscape:label="Layer 1"
     inkscape:groupmode="layer"
     id="layer1"
     style="display:inline">
    <path
       style="display:none;opacity:0.94;fill:none;stroke:#000000;stroke-width:0.747;stroke-linejoin:round;stroke-dasharray:none;stroke-opacity:1"
       d="m 90.020526,113.40166 c -17.888912,17.84617 14.089264,19.24981 15.346004,1.36446 C 104.19414,97.267704 79.904368,94.372139 65.844265,89.079699 48.579932,82.615941 65.704911,77.057404 71.169759,75.997042 c 5.799455,-1.125287 12.810688,1.643358 6.542148,5.861917 -4.445607,2.991774 -16.898269,6.059112 -25.714249,6.200968 -4.666096,0.07508 -9.492604,-0.841398 -13.70851,-2.842454 -15.376165,-8.95075 -11.286797,-18.75887 6.032315,-19.812549 5.208621,-0.592301 14.043138,3.557449 10.106688,7.447014 -2.883204,2.848863 -15.025791,3.394364 -25.395133,1.590814 -2.120428,-0.368808 -4.78565,-0.02048 -6.727742,-0.948115 -11.847557,-5.658969 -11.708938,-12.458536 -8.900644,-19.206786 1.7182,-4.128786 10.473046,-7.786516 14.042405,-5.418199 12.592769,8.35547 -13.741974,15.301385 -9.203373,-4.676859 2.411469,-10.614924 19.12323,-17.276798 21.453022,-17.564598 2.640484,-0.32618 7.901987,0.253473 9.604095,2.12608 6.61992,7.283033 -6.344229,14.392 -6.208451,2.731718 0.09393,-8.066526 10.194742,-11.825657 15.17044,-12.634509 9.481801,-1.541367 15.955923,5.778455 16.843399,8.187688 3.762029,10.212792 -11.224901,10.712304 -8.145208,1.215865 2.386781,-7.359795 9.314782,-10.76461 19.755535,-9.586932 8.433384,0.951254 19.072474,3.581965 25.451374,10.112402 6.0679,6.21205 8.44746,18.70646 -0.32691,20.590945 -4.81598,1.034336 -8.57024,-5.223377 -6.88685,-8.440929 2.45941,-4.700805 9.3919,-2.849598 15.86801,1.234003 2.87093,1.749937 7.72427,7.965987 8.85443,16.221373 0.72911,5.325883 -0.54985,11.780238 -4.01058,15.893629 -4.37206,5.196587 -6.97195,6.447817 -10.27755,5.165434 -3.31944,-1.287752 -7.28011,-4.633721 -9.71492,-7.231538 -23.102303,-24.489872 16.2233,-19.834818 7.52811,11.500422 -1.90993,6.8829 -5.84501,11.301064 -9.25177,10.266166 C 84.563272,88.090799 95.012134,53.165999 75.971078,46.755267 66.624143,43.608345 56.193597,54.921286 58.892176,62.242543 c 4.771709,12.945666 20.24137,8.375653 21.590253,2.224985 2.4282,-11.072161 -7.053831,-14.019559 -13.067359,-9.28652 -3.604119,2.836677 -2.418721,7.643017 1.310283,8.930012 5.08117,1.753669 8.784097,-5.447795 3.264296,-5.196895"
       id="path1"
       sodipodi:nodetypes="cssssaassssssssssssssssassssssssssssc" />
  </g>
  <g
     inkscape:groupmode="layer"
     id="layer2"
     inkscape:label="BaseAnimation">
    <path
       style="display:inline;opacity:0.94;fill:none;stroke:#000000;stroke-width:0.747;stroke-linejoin:round;stroke-dasharray:none;stroke-opacity:1"
       d="m 90.020526,113.40166 c -17.888912,17.84617 14.089264,19.24981 15.346004,1.36446 C 104.19414,97.267704 79.904368,94.372139 65.844265,89.079699 48.579932,82.615941 65.704911,77.057404 71.169759,75.997042 c 5.799455,-1.125287 12.810688,1.643358 6.542148,5.861917 -4.445607,2.991774 -16.898269,6.059112 -25.714249,6.200968 -4.666096,0.07508 -9.492604,-0.841398 -13.70851,-2.842454 -15.376165,-8.95075 -11.286797,-18.75887 6.032315,-19.812549 5.208621,-0.592301 14.043138,3.557449 10.106688,7.447014 -2.883204,2.848863 -15.025791,3.394364 -25.395133,1.590814 -2.120428,-0.368808 -4.78565,-0.02048 -6.727742,-0.948115 -11.847557,-5.658969 -11.708938,-12.458536 -8.900644,-19.206786 1.7182,-4.128786 10.473046,-7.786516 14.042405,-5.418199 12.592769,8.35547 -13.741974,15.301385 -9.203373,-4.676859 2.411469,-10.614924 19.12323,-17.276798 21.453022,-17.564598 2.640484,-0.32618 7.901987,0.253473 9.604095,2.12608 6.61992,7.283033 -6.344229,14.392 -6.208451,2.731718 0.09393,-8.066526 10.194742,-11.825657 15.17044,-12.634509 9.481801,-1.541367 15.955923,5.778455 16.843399,8.187688 3.762029,10.212792 -11.224901,10.712304 -8.145208,1.215865 2.386781,-7.359795 9.314782,-10.76461 19.755535,-9.586932 8.433384,0.951254 19.072474,3.581965 25.451374,10.112402 6.0679,6.21205 8.44746,18.70646 -0.32691,20.590945 -4.81598,1.034336 -8.57024,-5.223377 -6.88685,-8.440929 2.45941,-4.700805 9.3919,-2.849598 15.86801,1.234003 2.87093,1.749937 7.72427,7.965987 8.85443,16.221373 0.72911,5.325883 -0.54985,11.780238 -4.01058,15.893629 -4.37206,5.196587 -6.97195,6.447817 -10.27755,5.165434 -3.31944,-1.287752 -7.28011,-4.633721 -9.71492,-7.231538 -23.102303,-24.489872 16.2233,-19.834818 7.52811,11.500422 -1.90993,6.8829 -5.84501,11.301064 -9.25177,10.266166 C 84.563272,88.090799 95.012133,53.166001 75.971078,46.755267 74.802711,46.361902 72.49474,45.23278 72.49474,45.23278 l -3.41137,2.413979 -3.853221,0.02207 -1.953005,3.733271 -3.512083,1.685874 0.119785,3.773264 -2.34933,3.054535 2.444414,2.48216 0.636651,4.78987 3.886833,1.003612 2.754142,2.894661 3.765104,-1.398683 3.967244,1.021236 1.651233,-3.002226 3.706182,-0.726807 -0.59006,-3.289038 2.03985,-2.943315 -2.263373,-2.394016 0.191947,-3.611052 -3.129264,0.0875 -1.712045,-2.538489 -2.549106,1.719426 -3.309543,-0.865181 -1.196272,2.86434 -3.083295,1.271502 1.50649,2.894072 -0.640798,3.121485 3.57968,-0.01458 3.015505,1.757253 0.617937,-2.54169 2.543846,-0.162718 -1.726576,-1.950221 0.05213,-2.231717 -1.704729,0.760963"
       id="path2"
       sodipodi:nodetypes="cssssaassssssssssssssssasssssssccccccccccccccccccccccccccccccccccc"
       inkscape:label="path2" />
  </g>
  <g
     inkscape:groupmode="layer"
     id="layer3"
     inkscape:label="Path3">
    <path
       style="opacity:0.94;fill:none;stroke:#000000;stroke-width:0.747;stroke-linejoin:round;stroke-dasharray:none;stroke-opacity:1"
       d="m 90.020526,113.40166 c -17.888912,17.84617 14.089264,19.24981 15.346004,1.36446 C 104.19414,97.267704 79.904368,94.372139 65.844265,89.079699 48.579932,82.615941 65.704911,77.057404 71.169759,75.997042 c 5.799455,-1.125287 12.810688,1.643358 6.542148,5.861917 -4.445607,2.991774 -16.898269,6.059112 -25.714249,6.200968 -4.666096,0.07508 -9.492604,-0.841398 -13.70851,-2.842454 -15.376165,-8.95075 -11.286797,-18.75887 6.032315,-19.812549 5.208621,-0.592301 14.043138,3.557449 10.106688,7.447014 -2.883204,2.848863 -15.025791,3.394364 -25.395133,1.590814 -2.120428,-0.368808 -4.78565,-0.02048 -6.727742,-0.948115 -11.847557,-5.658969 -11.708938,-12.458536 -8.900644,-19.206786 1.7182,-4.128786 10.473046,-7.786516 14.042405,-5.418199 12.592769,8.35547 -13.741974,15.301385 -9.203373,-4.676859 2.411469,-10.614924 19.12323,-17.276798 21.453022,-17.564598 2.640484,-0.32618 7.901987,0.253473 9.604095,2.12608 6.61992,7.283033 -6.344229,14.392 -6.208451,2.731718 0.09393,-8.066526 10.194742,-11.825657 15.17044,-12.634509 9.481801,-1.541367 15.955923,5.778455 16.843399,8.187688 3.762029,10.212792 -11.224901,10.712304 -8.145208,1.215865 2.386781,-7.359795 9.314782,-10.76461 19.755535,-9.586932 8.433384,0.951254 19.072474,3.581965 25.451374,10.112402 6.0679,6.21205 8.44746,18.70646 -0.32691,20.590945 -4.81598,1.034336 -8.57024,-5.223377 -6.88685,-8.440929 2.45941,-4.700805 9.3919,-2.849598 15.86801,1.234003 2.87093,1.749937 7.72427,7.965987 8.85443,16.221373 0.72911,5.325883 -0.54985,11.780238 -4.01058,15.893629 -4.37206,5.196587 -6.97195,6.447817 -10.27755,5.165434 -3.31944,-1.287752 -7.28011,-4.633721 -9.71492,-7.231538 -23.102303,-24.489872 16.2233,-19.834818 7.52811,11.500422 -1.90993,6.8829 -5.84501,11.301064 -9.25177,10.266166 C 84.563272,88.090799 95.012133,53.166001 75.971078,46.755267 74.802711,46.361902 72.49474,43.72296 72.49474,43.72296 l -0.895003,4.527727 -8.181372,-1.890369 1.267944,6.954221 -5.323867,-2.642277 1.629605,6.188976 -5.670934,4.161736 6.269292,0.06645 -1.879716,8.916712 5.497308,-4.43174 2.150214,7.222811 2.859212,-6.129452 3.866589,5.148077 1.751888,-4.713355 8.336296,3.400034 -4.91821,-7.113915 5.05949,-2.84266 -5.584977,-1.588779 2.708313,-5.926109 -4.941048,2.503212 -1.913354,-6.665331 -0.837977,7.154778 -3.712161,-5.293986 -1.095618,7.192491 -4.794424,-2.754685 3.620238,5.00782 -4.063057,3.22214 5.894738,-2.228983 2.612886,3.871001 -0.1873,-3.447582 5.160867,2.756267 -3.53836,-3.963314 3.172425,-3.137609 -4.825024,1.666855"
       id="path4"
       sodipodi:nodetypes="cssssaassssssssssssssssasssssssccccccccccccccccccccccccccccccccccc"
       inkscape:label="path2" />
  </g>
  <g
     inkscape:groupmode="layer"
     id="layer4"
     inkscape:label="Path4">
    <path
       style="opacity:0.94;fill:none;stroke:#000000;stroke-width:0.747;stroke-linejoin:round;stroke-dasharray:none;stroke-opacity:1"
       d="m 90.020526,113.40166 c -17.888912,17.84617 14.089264,19.24981 15.346004,1.36446 C 104.19414,97.267704 79.904368,94.372139 65.844265,89.079699 48.579932,82.615941 65.704911,77.057404 71.169759,75.997042 c 5.799455,-1.125287 12.810688,1.643358 6.542148,5.861917 -4.445607,2.991774 -16.898269,6.059112 -25.714249,6.200968 -4.666096,0.07508 -9.492604,-0.841398 -13.70851,-2.842454 -15.376165,-8.95075 -11.286797,-18.75887 6.032315,-19.812549 5.208621,-0.592301 14.043138,3.557449 10.106688,7.447014 -2.883204,2.848863 -15.025791,3.394364 -25.395133,1.590814 -2.120428,-0.368808 -4.78565,-0.02048 -6.727742,-0.948115 -11.847557,-5.658969 -11.708938,-12.458536 -8.900644,-19.206786 1.7182,-4.128786 10.473046,-7.786516 14.042405,-5.418199 12.592769,8.35547 -13.741974,15.301385 -9.203373,-4.676859 2.411469,-10.614924 19.12323,-17.276798 21.453022,-17.564598 2.640484,-0.32618 7.901987,0.253473 9.604095,2.12608 6.61992,7.283033 -6.344229,14.392 -6.208451,2.731718 0.09393,-8.066526 10.194742,-11.825657 15.17044,-12.634509 9.481801,-1.541367 15.955923,5.778455 16.843399,8.187688 3.762029,10.212792 -11.224901,10.712304 -8.145208,1.215865 2.386781,-7.359795 9.314782,-10.76461 19.755535,-9.586932 8.433384,0.951254 19.072474,3.581965 25.451374,10.112402 6.0679,6.21205 8.44746,18.70646 -0.32691,20.590945 -4.81598,1.034336 -8.57024,-5.223377 -6.88685,-8.440929 2.45941,-4.700805 9.3919,-2.849598 15.86801,1.234003 2.87093,1.749937 7.72427,7.965987 8.85443,16.221373 0.72911,5.325883 -0.54985,11.780238 -4.01058,15.893629 -4.37206,5.196587 -6.97195,6.447817 -10.27755,5.165434 -3.31944,-1.287752 -7.28011,-4.633721 -9.71492,-7.231538 -23.102303,-24.489872 16.2233,-19.834818 7.52811,11.500422 -1.90993,6.8829 -5.84501,11.301064 -9.25177,10.266166 C 84.563272,88.090799 95.012133,53.166001 75.971078,46.755267 74.802711,46.361902 72.305355,44.417373 72.305355,44.417373 l -1.968188,3.454543 -5.908746,-0.943442 -0.499654,5.565395 c -5.738593,-2.579604 -2.539189,0.258593 -4.313811,-0.622166 l 0.935192,4.926407 -3.966465,3.467322 4.24918,1.707791 -0.554018,6.517829 4.61351,-1.527829 2.402728,5.013314 3.427368,-3.856827 3.740332,3.191094 1.815016,-4.208327 5.558643,1.127408 -2.582456,-4.841289 3.860049,-2.905788 C 79.896557,59.61426 80.968929,59.234236 79.10727,58.704643 l 1.319486,-4.726668 -3.930992,1.619413 -1.913354,-4.58209 -1.595519,3.998353 -3.585904,-3.084489 -0.779975,5.046123 -4.415654,-0.608317 2.988954,3.808379 -2.737359,3.159012 4.947811,-1.155799 2.802271,2.860945 0.06521,-3.13194 3.898297,1.430569 -2.528304,-2.953258 1.404827,-2.443196 -3.057426,0.972442"
       id="path3"
       sodipodi:nodetypes="cssssaassssssssssssssssasssssssccccccccccccccccccccccccccccccccccc"
       inkscape:label="path2" />
  </g>
</svg>
