<?xml version="1.0" encoding="UTF-8" standalone="no"?>
<!-- Created with Inkscape (http://www.inkscape.org/) -->

<svg
   width="512"
   height="512"
   viewBox="0 0 135.46666 135.46667"
   version="1.1"
   id="svg1"
   inkscape:version="1.3.2 (091e20e, 2023-11-25)"
   sodipodi:docname="islabrainCutOut.svg"
   xmlns:inkscape="http://www.inkscape.org/namespaces/inkscape"
   xmlns:sodipodi="http://sodipodi.sourceforge.net/DTD/sodipodi-0.dtd"
   xmlns="http://www.w3.org/2000/svg"
   xmlns:svg="http://www.w3.org/2000/svg">
  <sodipodi:namedview
     id="namedview1"
     pagecolor="#ffffff"
     bordercolor="#000000"
     borderopacity="0.25"
     inkscape:showpageshadow="2"
     inkscape:pageopacity="0.0"
     inkscape:pagecheckerboard="true"
     inkscape:deskcolor="#d1d1d1"
     inkscape:document-units="mm"
     inkscape:zoom="1.0545369"
     inkscape:cx="231.38119"
     inkscape:cy="288.75234"
     inkscape:window-width="1440"
     inkscape:window-height="872"
     inkscape:window-x="0"
     inkscape:window-y="0"
     inkscape:window-maximized="0"
     inkscape:current-layer="layer1"
     showgrid="false" />
  <defs
     id="defs1" />
  <g
     inkscape:label="Layer 1"
     inkscape:groupmode="layer"
     id="layer1">
    <path
       style="opacity:0.94;fill:none;stroke:#000000;stroke-width:0.747;stroke-linejoin:round;stroke-dasharray:none;stroke-opacity:1"
       d="m 90.020526,113.40166 c -17.888912,17.84617 14.089264,19.24981 15.346004,1.36446 C 104.19414,97.267704 79.904368,94.372139 65.844265,89.079699 48.579932,82.615941 65.704911,77.057404 71.169759,75.997042 c 5.799455,-1.125287 12.810688,1.643358 6.542148,5.861917 -4.445607,2.991774 -16.898269,6.059112 -25.714249,6.200968 -4.666096,0.07508 -9.492604,-0.841398 -13.70851,-2.842454 -15.376165,-8.95075 -11.286797,-18.75887 6.032315,-19.812549 5.208621,-0.592301 14.043138,3.557449 10.106688,7.447014 -2.883204,2.848863 -15.025791,3.394364 -25.395133,1.590814 -2.120428,-0.368808 -4.78565,-0.02048 -6.727742,-0.948115 -11.847557,-5.658969 -11.708938,-12.458536 -8.900644,-19.206786 1.7182,-4.128786 10.473046,-7.786516 14.042405,-5.418199 12.592769,8.35547 -13.741974,15.301385 -9.203373,-4.676859 2.411469,-10.614924 19.12323,-17.276798 21.453022,-17.564598 2.640484,-0.32618 7.901987,0.253473 9.604095,2.12608 6.61992,7.283033 -6.344229,14.392 -6.208451,2.731718 0.09393,-8.066526 10.194742,-11.825657 15.17044,-12.634509 9.481801,-1.541367 15.955923,5.778455 16.843399,8.187688 3.762029,10.212792 -11.224901,10.712304 -8.145208,1.215865 2.386781,-7.359795 9.314782,-10.76461 19.755535,-9.586932 8.433384,0.951254 19.072474,3.581965 25.451374,10.112402 6.0679,6.21205 8.44746,18.70646 -0.32691,20.590945 -4.81598,1.034336 -8.57024,-5.223377 -6.88685,-8.440929 2.45941,-4.700805 9.3919,-2.849598 15.86801,1.234003 2.87093,1.749937 7.72427,7.965987 8.85443,16.221373 0.72911,5.325883 -0.54985,11.780238 -4.01058,15.893629 -4.37206,5.196587 -6.97195,6.447817 -10.27755,5.165434 -3.31944,-1.287752 -7.28011,-4.633721 -9.71492,-7.231538 -23.102303,-24.489872 16.2233,-19.834818 7.52811,11.500422 -1.90993,6.8829 -5.84501,11.301064 -9.25177,10.266166 C 84.563272,88.090799 95.012134,53.165999 75.971078,46.755267 66.624143,43.608345 56.193597,54.921286 58.892176,62.242543 c 4.771709,12.945666 20.24137,8.375653 21.590253,2.224985 2.4282,-11.072161 -7.053831,-14.019559 -13.067359,-9.28652 -3.604119,2.836677 -2.418721,7.643017 1.310283,8.930012 5.08117,1.753669 8.784097,-5.447795 3.264296,-5.196895"
       id="path1"
       sodipodi:nodetypes="cssssaassssssssssssssssassssssssssssc" />
  </g>
</svg>
