<?xml version="1.0" encoding="UTF-8" standalone="no"?>
<!-- Created with Inkscape (http://www.inkscape.org/) -->

<svg
   width="512"
   height="512"
   viewBox="0 0 135.46666 135.46667"
   version="1.1"
   id="svg1"
   inkscape:version="1.3.2 (091e20e, 2023-11-25)"
   sodipodi:docname="islabrain.svg"
   xmlns:inkscape="http://www.inkscape.org/namespaces/inkscape"
   xmlns:sodipodi="http://sodipodi.sourceforge.net/DTD/sodipodi-0.dtd"
   xmlns="http://www.w3.org/2000/svg"
   xmlns:svg="http://www.w3.org/2000/svg">
  <sodipodi:namedview
     id="namedview1"
     pagecolor="#ffffff"
     bordercolor="#000000"
     borderopacity="0.25"
     inkscape:showpageshadow="2"
     inkscape:pageopacity="0.0"
     inkscape:pagecheckerboard="true"
     inkscape:deskcolor="#d1d1d1"
     inkscape:document-units="mm"
     inkscape:zoom="1.0344496"
     inkscape:cx="230.07404"
     inkscape:cy="261.49172"
     inkscape:window-width="1440"
     inkscape:window-height="872"
     inkscape:window-x="0"
     inkscape:window-y="28"
     inkscape:window-maximized="0"
     inkscape:current-layer="layer1" />
  <defs
     id="defs1" />
  <g
     inkscape:label="Layer 1"
     inkscape:groupmode="layer"
     id="layer1">
    <path
       style="fill:none;stroke:#000000;stroke-width:3.34701;stroke-linejoin:round;stroke-opacity:1"
       d="m 90.773226,116.91426 c -0.32591,-4.73483 -1.27874,-8.99532 -2.9697,-12.68594 -1.09942,-2.39956 -4.09835,-6.56344 -7.17074,-9.538253 -2.08252,-2.016376 -7.613683,-5.627901 -14.788521,-5.610368 -5.135838,0.01255 -9.60393,3.704548 -13.385937,2.805846 -5.570535,-1.323703 -11.438888,-15.24233 1.901129,-17.644803 6.705296,-1.207592 19.835889,0.388858 15.072749,5.861917 -3.517836,4.042148 -10.154948,5.090536 -15.678248,5.950068 -5.101052,0.793822 -10.647826,1.021507 -15.46481,-0.835254 -3.39831,-1.309918 -7.224305,-4.645891 -8.483015,-6.886074 -1.126661,-2.005169 -3.614971,-8.25452 -3.092918,-11.429492 0.894652,-5.441012 5.61276,-7.88822 10.583047,-8.020384 5.240338,-0.139344 7.017938,5.56465 3.081488,9.454215 -2.883204,2.848863 -4.23709,4.899764 -11.344732,6.107014 -2.121872,0.360405 -4.78565,-0.02048 -6.727742,-0.948115 -2.0388,-0.97383 -3.577705,-2.040296 -5.288434,-3.516255 -1.566907,-1.351874 -3.033028,-3.016417 -3.72507,-4.96676 -0.720256,-2.029857 -1.16482,-4.700708 -0.920016,-6.840605 0.107274,-0.937713 0.575554,-3.057533 1.032876,-3.883166 1.419229,-2.562229 3.700029,-3.660958 6.343928,-4.921523 2.321167,-1.106692 5.555751,-1.918403 7.698477,-0.496676 1.679695,1.1145 2.663136,3.812847 1.986706,5.711775 -0.848014,2.380614 -4.121143,4.938398 -6.456789,3.973406 -3.933958,-1.625349 -5.676243,-10.211302 -4.73329,-14.36204 2.411469,-10.614924 19.12323,-17.276798 21.453022,-17.564598 2.640484,-0.32618 7.580608,0.39864 9.604095,2.12608 2.534788,2.163936 4.322964,6.906027 2.483379,9.685181 -1.525004,2.3039 -6.046708,2.978865 -8.195154,1.24169 -2.128099,-1.720723 -1.364099,-5.599528 -0.496676,-8.195153 2.556906,-7.651137 9.901015,-12.223972 22.948341,-11.630909 4.11142,0.186883 9.832268,3.040079 11.574498,4.925988 4.862217,5.263185 1.461242,11.438134 -7.26009,11.038879 -5.871671,-0.2688 -7.486587,-4.690734 -6.154018,-7.314014 3.50411,-6.898153 9.314782,-10.76461 19.755535,-9.586932 8.433384,0.951254 14.0839,2.321057 20.684274,5.596202 17.54953,8.833076 16.2072,20.983488 11.21449,24.354445 -3.84255,2.594393 -10.75647,3.153226 -13.90693,-0.248338 -1.91578,-2.068475 -1.49691,-6.449901 0.49668,-8.443491 1.99359,-1.99359 5.08391,-3.659051 7.89106,-3.396916 3.39829,0.317337 7.57159,3.607212 10.48595,5.383619 2.87093,1.749937 7.72427,7.965987 8.85443,16.221373 0.72911,5.325883 -0.54985,11.780238 -4.01058,15.893629 -4.37206,5.196587 -7.99504,5.424729 -11.30064,4.142346 -3.31944,-1.287752 -6.25702,-3.610633 -8.69183,-6.20845 -3.41582,-3.20892 -16.500152,-13.851869 -10.642624,-19.908006 2.14581,-1.588082 5.566944,-0.191419 8.568914,2.444945 4.5136,3.963883 5.33608,9.983814 5.79878,15.973033 0.23626,3.058194 1.18735,7.744265 -0.28931,10.432729 -1.71408,3.120718 -5.28756,5.885251 -8.48446,7.452673 -3.879944,1.902319 -8.945514,2.899701 -13.246374,2.480846 -3.35377,-0.326619 -6.814733,-3.059546 -8.52542,-5.962643 -2.863153,-4.858872 0.42901,-10.360877 4.44178,-15.312488 3.3877,-4.180303 4.930482,-9.877297 4.38815,-15.230553 -0.722329,-7.129968 -7.403786,-12.129913 -12.92878,-12.583304 -7.027303,-0.576674 -10.9599,-0.244555 -15.028244,1.449061 -9.950716,4.142397 -11.080111,10.371258 -9.147541,17.509094 0.773236,2.855902 7.370954,12.730868 19.086125,5.791176 7.446647,-4.411155 9.747775,-10.587369 5.13316,-15.688793 -5.079051,-5.614854 -15.858723,-2.416717 -15.401643,2.353769 0.547409,5.713245 7.083581,5.301855 7.083581,5.301855"
       id="path1"
       sodipodi:nodetypes="cssssssaassssssssssssssssssssssssssssssssssssssssssssssssssc" />
  </g>
</svg>
